<?xml version="1.0" encoding="UTF-8" standalone="no"?>
<svg
   xmlns:dc="http://purl.org/dc/elements/1.1/"
   xmlns:cc="http://creativecommons.org/ns#"
   xmlns:rdf="http://www.w3.org/1999/02/22-rdf-syntax-ns#"
   xmlns:svg="http://www.w3.org/2000/svg"
   xmlns="http://www.w3.org/2000/svg"
   xmlns:sodipodi="http://sodipodi.sourceforge.net/DTD/sodipodi-0.dtd"
   xmlns:inkscape="http://www.inkscape.org/namespaces/inkscape"
   height="60"
   width="60"
   viewBox="0 0 60 60"
   version="1.1"
   id="svg4"
   sodipodi:docname="codesignal.svg"
   inkscape:version="1.0 (4035a4fb49, 2020-05-01)">
  <metadata
     id="metadata10">
    <rdf:RDF>
      <cc:Work
         rdf:about="">
        <dc:format>image/svg+xml</dc:format>
        <dc:type
           rdf:resource="http://purl.org/dc/dcmitype/StillImage" />
        <dc:title></dc:title>
      </cc:Work>
    </rdf:RDF>
  </metadata>
  <defs
     id="defs8" />
  <sodipodi:namedview
     inkscape:document-rotation="0"
     pagecolor="#ffffff"
     bordercolor="#666666"
     borderopacity="1"
     objecttolerance="10"
     gridtolerance="10"
     guidetolerance="10"
     inkscape:pageopacity="0"
     inkscape:pageshadow="2"
     inkscape:window-width="1920"
     inkscape:window-height="1017"
     id="namedview6"
     showgrid="false"
     inkscape:zoom="4.0865385"
     inkscape:cx="6.1542"
     inkscape:cy="52.111017"
     inkscape:window-x="1912"
     inkscape:window-y="-8"
     inkscape:window-maximized="1"
     inkscape:current-layer="svg4" />
  <path
     id="path830"
     style="fill:#ffffff;fill-opacity:1;stroke:#4e4bff;stroke-width:0;stroke-linecap:round;stroke-linejoin:bevel;stroke-miterlimit:4;stroke-dasharray:none;paint-order:stroke fill markers"
     d="M 29.752103,1.4575141e-4 A 29.999997,29.999997 0 0 0 6.640118e-7,30.000145 29.999997,29.999997 0 0 0 30,60.000143 29.999997,29.999997 0 0 0 59.999998,30.000145 29.999997,29.999997 0 0 0 30,1.4575141e-4 a 29.999997,29.999997 0 0 0 -0.247897,0 z M 52.477462,13.774184 51.977163,17.763066 45.180287,33.772681 39.893328,35.093293 30.59495,56.033797 21.585036,35.296118 15.928486,33.736624 9.0549882,17.69095 8.1941108,13.841792 31.424279,17.542212 Z m -38.946813,3.493089 -0.563401,3.493088 7.752403,3.11899 2.582632,5.670074 -5.034555,-0.07212 1.838943,2.839542 4.024939,0.216346 6.156851,16.600061 6.422776,-16.582031 4.029447,-0.211839 1.554988,-2.83053 -4.791166,0.108173 2.388822,-6.44982 L 47.76292,20.625145 47.199518,17.330373 36.1253,20.85952 30.301982,39.3481 25.573917,21.806034 Z" />
</svg>
