<?xml version="1.0" encoding="UTF-8" standalone="no"?>
<svg
   xmlns:dc="http://purl.org/dc/elements/1.1/"
   xmlns:cc="http://creativecommons.org/ns#"
   xmlns:rdf="http://www.w3.org/1999/02/22-rdf-syntax-ns#"
   xmlns:svg="http://www.w3.org/2000/svg"
   xmlns="http://www.w3.org/2000/svg"
   xmlns:sodipodi="http://sodipodi.sourceforge.net/DTD/sodipodi-0.dtd"
   xmlns:inkscape="http://www.inkscape.org/namespaces/inkscape"
   inkscape:version="1.0 (4035a4fb49, 2020-05-01)"
   sodipodi:docname="codepen.svg"
   id="svg4"
   version="1.1"
   preserveAspectRatio="xMinYMin meet"
   viewBox="0 0 6.144 6.144"
   height="60"
   width="60">
  <metadata
     id="metadata10">
    <rdf:RDF>
      <cc:Work
         rdf:about="">
        <dc:format>image/svg+xml</dc:format>
        <dc:type
           rdf:resource="http://purl.org/dc/dcmitype/StillImage" />
        <dc:title></dc:title>
      </cc:Work>
    </rdf:RDF>
  </metadata>
  <defs
     id="defs8" />
  <sodipodi:namedview
     inkscape:current-layer="svg4"
     inkscape:window-maximized="1"
     inkscape:window-y="-8"
     inkscape:window-x="1912"
     inkscape:cy="416.43781"
     inkscape:cx="237.51852"
     inkscape:zoom="0.68"
     showgrid="false"
     id="namedview6"
     inkscape:window-height="1017"
     inkscape:window-width="1920"
     inkscape:pageshadow="2"
     inkscape:pageopacity="0"
     guidetolerance="10"
     gridtolerance="10"
     objecttolerance="10"
     borderopacity="1"
     bordercolor="#666666"
     pagecolor="#ffffff"
     inkscape:document-rotation="0" />
  <path
     id="path830"
     style="fill:#ffffff;fill-opacity:1;stroke:#4e4bff;stroke-width:0;stroke-linecap:round;stroke-linejoin:bevel;paint-order:stroke fill markers"
     d="M 3.0719999,-3.8912032e-8 A 3.0719997,3.0719997 0 0 0 -3.8912032e-8,3.0719999 3.0719997,3.0719997 0 0 0 3.0719999,6.1439999 a 3.0719997,3.0719997 0 0 0 3.072,-3.072 A 3.0719997,3.0719997 0 0 0 3.0719999,-3.8912032e-8 Z M 3.0689759,0.61439996 a 0.2109888,0.21099127 0 0 1 0.1201439,0.03552 L 5.4353279,2.1475199 c 0.00124,8.065e-4 0.00233,0.0018 0.0035,0.00264 0.00332,0.00225 0.00643,0.00479 0.0096,0.00725 a 0.174144,0.17414605 0 0 1 0.012,0.00998 c 0.00292,0.00271 0.00571,0.00547 0.0085,0.00826 a 0.2143872,0.21438971 0 0 1 0.010416,0.011472 0.2119296,0.21193209 0 0 1 0.016176,0.021936 c 0.00204,0.00323 0.00418,0.00641 0.006,0.00979 a 0.187008,0.1870102 0 0 1 0.00725,0.014016 c 0.00159,0.00338 0.00326,0.00673 0.0047,0.010224 a 0.2113344,0.21133687 0 0 1 0.00542,0.01536 c 0.00112,0.00346 0.0023,0.00676 0.00331,0.010272 0.00159,0.00584 0.00257,0.011808 0.0037,0.01776 h -3.36e-4 c 6.478e-4,0.00325 0.00166,0.00588 0.00216,0.00912 0.00113,0.00914 0.00187,0.018269 0.00187,0.0276 v 1.497696 c 0,0.00933 -6.48e-4,0.018432 -0.00187,0.027552 -2.88e-4,0.00311 -0.0011,0.00612 -0.00163,0.00917 -0.00111,0.00595 -0.00216,0.011894 -0.0037,0.017712 -9.983e-4,0.00344 -0.00221,0.00684 -0.00331,0.010272 -0.00165,0.00516 -0.00338,0.010349 -0.00542,0.015456 -0.00144,0.00344 -0.0031,0.0068 -0.0047,0.010176 -0.00225,0.00476 -0.00455,0.00947 -0.0072,0.014112 -0.00192,0.00324 -0.00401,0.00648 -0.00605,0.00965 -0.00284,0.00438 -0.00574,0.00865 -0.00893,0.012816 A 0.1896192,0.18962143 0 0 1 5.4691199,3.9684 c -0.00278,0.00278 -0.00555,0.00562 -0.00845,0.00821 -0.00384,0.00344 -0.00789,0.00682 -0.012,0.01008 -0.00319,0.00244 -0.0063,0.0049 -0.0096,0.0072 -0.00119,8.687e-4 -0.00226,0.00182 -0.0035,0.00259 l -2.2464,1.4976 A 0.212352,0.21235449 0 0 1 3.0719999,5.5296 0.207648,0.20765044 0 0 1 2.9548801,5.49408 L 0.70905595,3.9956638 c -0.001315,-5.807e-4 -0.002054,-0.00187 -0.003312,-0.00254 -0.00263,-0.00257 -0.006077,-0.0046 -0.009264,-0.00725 -0.003955,-0.00344 -0.008064,-0.00671 -0.011904,-0.010032 -0.003302,-0.00198 -0.005885,-0.00534 -0.008592,-0.00797 -0.003974,-0.00351 -0.007248,-0.00745 -0.010608,-0.011424 -0.00265,-0.00319 -0.004973,-0.00585 -0.007296,-0.00917 -0.003302,-0.00395 -0.006374,-0.00793 -0.009216,-0.012576 -0.001997,-0.00303 -0.004118,-0.00635 -0.005952,-0.00965 -0.00265,-0.00484 -0.005107,-0.00948 -0.007296,-0.014112 -0.001325,-0.00332 -0.003269,-0.00659 -0.004656,-0.00989 -0.001997,-0.00484 -0.003638,-0.010157 -0.00528,-0.015456 -0.001318,-0.00363 -0.002395,-0.00697 -0.003312,-0.010272 -0.00199,-0.00597 -0.002938,-0.011904 -0.003984,-0.017856 -6.624e-4,-0.00319 -0.001526,-0.0058 -0.002016,-0.00912 -0.001322,-0.00906 -0.001968,-0.018346 -0.001968,-0.0276 V 2.322816 c 0,-0.00933 6.3359e-4,-0.018481 0.001824,-0.0276 4.0561e-4,-0.00311 0.001152,-0.00607 0.001728,-0.00912 0.001056,-0.00603 0.002208,-0.011942 0.003744,-0.01776 9.4079e-4,-0.00311 0.002107,-0.00648 0.003216,-0.00994 0.001651,-0.00516 0.003473,-0.01033 0.00552,-0.01536 0.001402,-0.00344 0.003103,-0.00684 0.004704,-0.010224 a 0.1841856,0.18418777 0 0 1 0.007104,-0.01392 c 0.00192,-0.00338 0.004001,-0.00655 0.006048,-0.00979 0.002842,-0.00444 0.00576,-0.00865 0.008928,-0.012816 0.002323,-0.00332 0.004704,-0.00634 0.0072,-0.00931 0.003379,-0.00397 0.006854,-0.0077 0.01056,-0.011424 a 0.1651968,0.16519875 0 0 1 0.0084,-0.00826 0.297984,0.29798751 0 0 1 0.011952,-0.00994 c 0.003187,-0.00246 0.006298,-0.00494 0.0096,-0.00725 0.001267,-8.639e-4 0.002266,-0.00185 0.003504,-0.00264 L 2.9548319,0.64991995 a 0.2109888,0.21099127 0 0 1 0.114144,-0.03552 z M 2.8607999,1.220256 1.2059519,2.32344 1.9451039,2.817936 2.8607999,2.2054559 Z m 0.4223521,0 V 2.205504 L 4.1988479,2.817888 4.938048,2.323488 Z M 3.071952,2.57232 2.324976,3.0720479 3.071952,3.571632 3.8189759,3.0720479 Z M 1.036896,2.7185759 v 0.706752 L 1.565232,3.071952 Z m 4.0702078,4.8e-5 -0.5282879,0.353424 0.5282879,0.353424 z m -3.1619999,0.607488 -0.739152,0.4944 1.654848,1.1033761 V 3.9386878 L 1.9451039,3.3262559 Z M 4.1988479,3.32616 3.283152,3.9385441 V 4.923744 L 4.938048,3.8205119 Z" />
</svg>
