<?xml version="1.0" encoding="UTF-8" standalone="no"?>
<svg
   xmlns:dc="http://purl.org/dc/elements/1.1/"
   xmlns:cc="http://creativecommons.org/ns#"
   xmlns:rdf="http://www.w3.org/1999/02/22-rdf-syntax-ns#"
   xmlns:svg="http://www.w3.org/2000/svg"
   xmlns="http://www.w3.org/2000/svg"
   xmlns:sodipodi="http://sodipodi.sourceforge.net/DTD/sodipodi-0.dtd"
   xmlns:inkscape="http://www.inkscape.org/namespaces/inkscape"
   height="60"
   width="60"
   viewBox="0 0 60 60"
   xml:space="preserve"
   enable-background="new 0 0 512 512"
   version="1.1"
   id="svg1436"
   sodipodi:docname="github.svg"
   inkscape:version="1.0 (4035a4fb49, 2020-05-01)"><metadata
     id="metadata1442"><rdf:RDF><cc:Work
         rdf:about=""><dc:format>image/svg+xml</dc:format><dc:type
           rdf:resource="http://purl.org/dc/dcmitype/StillImage" /><dc:title></dc:title></cc:Work></rdf:RDF></metadata><defs
     id="defs1440" /><sodipodi:namedview
     inkscape:document-rotation="0"
     pagecolor="#ffffff"
     bordercolor="#666666"
     borderopacity="1"
     objecttolerance="10"
     gridtolerance="10"
     guidetolerance="10"
     inkscape:pageopacity="0"
     inkscape:pageshadow="2"
     inkscape:window-width="1920"
     inkscape:window-height="1017"
     id="namedview1438"
     showgrid="false"
     inkscape:zoom="1.1739077"
     inkscape:cx="161.56941"
     inkscape:cy="337.8369"
     inkscape:window-x="1912"
     inkscape:window-y="-8"
     inkscape:window-maximized="1"
     inkscape:current-layer="svg1436" /><path
     d="M 30,0 C 13.433036,0 0,13.768585 0,30.765018 c 0,13.594469 8.5982143,25.112935 20.517857,29.184578 1.5,0.281265 2.049107,-0.669678 2.049107,-1.486685 0,-0.736646 -0.02679,-2.66532 -0.04018,-5.236884 C 14.183036,55.087732 12.415179,49.100809 12.415179,49.100809 11.049107,45.551514 9.0803571,44.600571 9.0803571,44.600571 6.3616071,42.685291 9.28125,42.725472 9.28125,42.725472 c 3.013393,0.214297 4.59375,3.174275 4.59375,3.174275 2.678571,4.701141 7.017857,3.348391 8.732143,2.558171 0.267857,-1.982248 1.044643,-3.348392 1.901786,-4.111825 -6.65625,-0.776827 -13.660715,-3.415359 -13.660715,-15.201696 0,-3.361785 1.165179,-6.107465 3.080357,-8.250436 -0.308035,-0.776827 -1.339285,-3.910921 0.294643,-8.143287 0,0 2.517857,-0.830401 8.25,3.147487 2.397322,-0.683071 4.955357,-1.01791 7.513393,-1.031304 2.544643,0.01339 5.116072,0.348233 7.513393,1.031304 5.732143,-3.977888 8.236607,-3.147487 8.236607,-3.147487 1.633929,4.232366 0.602679,7.36646 0.294643,8.143287 1.915179,2.156364 3.080357,4.902045 3.080357,8.250436 0,11.813124 -7.017857,14.411476 -13.700893,15.174909 1.071429,0.950943 2.035715,2.826042 2.035715,5.692265 0,4.111825 -0.04018,7.433429 -0.04018,8.437946 0,0.817007 0.535714,1.781344 2.0625,1.473292 C 51.415179,55.864559 60,44.346093 60,30.765018 60,13.768585 46.566964,0 30,0 Z"
     fill-rule="evenodd"
     clip-rule="evenodd"
     fill="#ffffff"
     class="fill-000000"
     id="path1434"
     style="fill:#fffffe;fill-opacity:1;stroke-width:0.133932" /></svg>
