<?xml version="1.0" encoding="UTF-8" standalone="no"?>
<svg
   xmlns:dc="http://purl.org/dc/elements/1.1/"
   xmlns:cc="http://creativecommons.org/ns#"
   xmlns:rdf="http://www.w3.org/1999/02/22-rdf-syntax-ns#"
   xmlns:svg="http://www.w3.org/2000/svg"
   xmlns="http://www.w3.org/2000/svg"
   xmlns:sodipodi="http://sodipodi.sourceforge.net/DTD/sodipodi-0.dtd"
   xmlns:inkscape="http://www.inkscape.org/namespaces/inkscape"
   height="60"
   width="60"
   viewBox="0 0 60 60"
   xml:space="preserve"
   enable-background="new 0 0 512 512"
   version="1.1"
   id="svg2017"
   sodipodi:docname="hackerrank.svg"
   inkscape:version="1.0 (4035a4fb49, 2020-05-01)"><metadata
     id="metadata2023"><rdf:RDF><cc:Work
         rdf:about=""><dc:format>image/svg+xml</dc:format><dc:type
           rdf:resource="http://purl.org/dc/dcmitype/StillImage" /><dc:title></dc:title></cc:Work></rdf:RDF></metadata><defs
     id="defs2021" /><sodipodi:namedview
     inkscape:document-rotation="0"
     pagecolor="#ffffff"
     bordercolor="#666666"
     borderopacity="1"
     objecttolerance="10"
     gridtolerance="10"
     guidetolerance="10"
     inkscape:pageopacity="0"
     inkscape:pageshadow="2"
     inkscape:window-width="1920"
     inkscape:window-height="1017"
     id="namedview2019"
     showgrid="false"
     inkscape:zoom="1.1739077"
     inkscape:cx="176.29007"
     inkscape:cy="258.49503"
     inkscape:window-x="1912"
     inkscape:window-y="-8"
     inkscape:window-maximized="1"
     inkscape:current-layer="svg2017" /><path
     id="path832"
     style="fill:#ffffff;fill-opacity:1;stroke:#4e4bff;stroke-width:0;stroke-linecap:round;stroke-linejoin:bevel;paint-order:stroke fill markers"
     d="M 29.950576,-6.8277406e-5 A 30,29.999995 0 0 0 -6.3902996e-7,29.999927 30,29.999995 0 0 0 29.999999,59.999921 a 30,29.999995 0 0 0 30,-29.999994 30,29.999995 0 0 0 -30,-29.999995277406 30,29.999995 0 0 0 -0.04942,0 z M 22.450832,7.2133306 c 0.580109,0 6.030784,5.2411844 5.605893,5.6675434 -0.1275,0.127337 -1.157313,0.218081 -2.456606,0.269276 v 0.463145 c -0.354457,3.772011 -0.297311,11.658575 -0.385191,15.437922 h 11.756709 c 0,-0.666685 0.05704,-5.088963 -0.175782,-12.251951 -0.01484,-0.496793 0.139117,-0.757479 0.616508,-0.761718 1.62147,-0.01174 3.244514,-0.01903 4.867612,-0.0089 0.506739,0.0031 0.669416,0.252127 0.659307,0.788214 -0.534783,28.02081 -0.09681,26.065267 -0.09681,30.811136 1.299458,0.05136 2.463965,0.140818 2.591627,0.269786 0.421958,0.426358 -4.9249,5.667543 -5.505009,5.667543 -0.580272,0 -5.992765,-5.23981 -5.566406,-5.667799 0.127337,-0.127174 0.917241,-0.21648 2.570991,-0.268002 0,-3.841955 0.08637,-10.047084 0.137568,-12.644529 0.0062,-0.295761 -0.06445,-0.502377 -0.06445,-0.856997 h -11.70856 c 0,1.040054 -0.06704,5.302774 0.201002,10.676034 0.03342,0.664891 -0.231492,0.87267 -0.840947,0.869735 -1.484022,-0.0041 -2.969328,-0.01602 -4.454654,-0.01147 -0.600489,0.0015 -0.859769,-0.224194 -0.840693,-0.894954 0.134674,-4.898315 0.433635,-12.307621 -0.02191,-31.152509 V 13.150162 C 17.924509,13.098962 16.94155,13.00969 16.812583,12.880886 16.384756,12.45306 21.872189,7.2133424 22.450831,7.2133424 Z" /></svg>
