<?xml version="1.0" encoding="UTF-8" standalone="no"?>
<svg
   xmlns:dc="http://purl.org/dc/elements/1.1/"
   xmlns:cc="http://creativecommons.org/ns#"
   xmlns:rdf="http://www.w3.org/1999/02/22-rdf-syntax-ns#"
   xmlns:svg="http://www.w3.org/2000/svg"
   xmlns="http://www.w3.org/2000/svg"
   xmlns:sodipodi="http://sodipodi.sourceforge.net/DTD/sodipodi-0.dtd"
   xmlns:inkscape="http://www.inkscape.org/namespaces/inkscape"
   inkscape:version="1.0 (4035a4fb49, 2020-05-01)"
   sodipodi:docname="linkedin.svg"
   id="svg2598"
   version="1.1"
   enable-background="new 0 0 67 67"
   xml:space="preserve"
   viewBox="0 0 60 60"
   width="60"
   height="60"><metadata
     id="metadata2604"><rdf:RDF><cc:Work
         rdf:about=""><dc:format>image/svg+xml</dc:format><dc:type
           rdf:resource="http://purl.org/dc/dcmitype/StillImage" /><dc:title /></cc:Work></rdf:RDF></metadata><defs
     id="defs2602" /><sodipodi:namedview
     inkscape:current-layer="svg2598"
     inkscape:window-maximized="1"
     inkscape:window-y="-8"
     inkscape:window-x="1912"
     inkscape:cy="32.781705"
     inkscape:cx="15.057565"
     inkscape:zoom="8.9707577"
     showgrid="false"
     id="namedview2600"
     inkscape:window-height="1017"
     inkscape:window-width="1920"
     inkscape:pageshadow="2"
     inkscape:pageopacity="0"
     guidetolerance="10"
     gridtolerance="10"
     objecttolerance="10"
     borderopacity="1"
     bordercolor="#666666"
     pagecolor="#ffffff"
     inkscape:document-rotation="0" /><path
     style="fill:#ffffff;fill-opacity:1"
     id="path2596"
     class="fill-007ab9"
     fill="#ffffff"
     clip-rule="evenodd"
     fill-rule="evenodd"
     d="M 46.837,44.137 V 32.425 c 0,-6.275 -3.35,-9.195 -7.816,-9.195 -3.604,0 -5.219,1.983 -6.119,3.374 V 23.71 h -6.79 c 0.09,1.917 0,20.427 0,20.427 h 6.79 V 32.729 c 0,-0.609 0.044,-1.219 0.224,-1.655 0.49,-1.22 1.607,-2.483 3.482,-2.483 2.458,0 3.44,1.873 3.44,4.618 v 10.929 h 6.789 z M 18.959,20.922 c 2.367,0 3.842,-1.57 3.842,-3.531 -0.044,-2.003 -1.475,-3.528 -3.797,-3.528 -2.322,0 -3.841,1.524 -3.841,3.528 0,1.961 1.474,3.531 3.753,3.531 z M 30,60 C 13.432,60 0,46.568 0,30 0,13.431 13.432,0 30,0 46.568,0 60,13.431 60,30 60,46.568 46.568,60 30,60 Z M 22.354,44.137 V 23.71 h -6.789 v 20.427 z" /></svg>
