<?xml version="1.0" encoding="UTF-8" standalone="no"?>
<svg
   xmlns:dc="http://purl.org/dc/elements/1.1/"
   xmlns:cc="http://creativecommons.org/ns#"
   xmlns:rdf="http://www.w3.org/1999/02/22-rdf-syntax-ns#"
   xmlns:svg="http://www.w3.org/2000/svg"
   xmlns="http://www.w3.org/2000/svg"
   xmlns:sodipodi="http://sodipodi.sourceforge.net/DTD/sodipodi-0.dtd"
   xmlns:inkscape="http://www.inkscape.org/namespaces/inkscape"
   inkscape:version="1.0 (4035a4fb49, 2020-05-01)"
   sodipodi:docname="mal.svg"
   id="svg6"
   version="1.1"
   viewBox="0 0 60 60"
   height="60"
   width="60">
  <metadata
     id="metadata12">
    <rdf:RDF>
      <cc:Work
         rdf:about="">
        <dc:format>image/svg+xml</dc:format>
        <dc:type
           rdf:resource="http://purl.org/dc/dcmitype/StillImage" />
        <dc:title></dc:title>
      </cc:Work>
    </rdf:RDF>
  </metadata>
  <defs
     id="defs10" />
  <sodipodi:namedview
     inkscape:current-layer="svg6"
     inkscape:window-maximized="1"
     inkscape:window-y="-8"
     inkscape:window-x="1912"
     inkscape:cy="425.31993"
     inkscape:cx="42.388924"
     inkscape:zoom="0.58695387"
     showgrid="false"
     id="namedview8"
     inkscape:window-height="1017"
     inkscape:window-width="1920"
     inkscape:pageshadow="2"
     inkscape:pageopacity="0"
     guidetolerance="10"
     gridtolerance="10"
     objecttolerance="10"
     borderopacity="1"
     bordercolor="#666666"
     pagecolor="#ffffff"
     inkscape:document-rotation="0" />
  <path
     id="circle2"
     style="fill:#ffffff;fill-opacity:1;stroke-width:0.0585936"
     d="M 30,0 A 30,30 0 0 0 0,30 30,30 0 0 0 30,60 30,30 0 0 0 60,30 30,30 0 0 0 30,0 Z m 10.56736,22.5 3.328171,0.0491 V 32.901878 L 48.75,32.949486 48.078346,35.72319 H 40.56736 Z m -5.091019,0.02129 c 0.52134,-0.0029 1.147133,0.0041 1.899147,0.02632 l 0.851784,2.732621 h -4.305153 c -0.926514,0.01245 -1.37178,5.8e-5 -2.095413,0.326728 a 3.4936523,3.4936523 0 0 0 -1.996651,3.00293 l 4.160958,0.05127 0.05928,-2.82795 h 3.607178 v -0.0065 l 6.86e-4,0.0065 h -6.86e-4 l 0.0388,9.892159 h -3.695068 l -0.01247,-4.486084 H 29.614 c 0.109131,0.780029 0.328125,1.977539 0.651855,2.783203 0.242432,0.595459 0.465866,1.171829 0.911179,1.762161 l -2.663841,1.757813 c -0.545655,-0.993897 -0.971901,-2.08889 -1.371804,-3.253441 a 14.524658,14.524658 0 0 1 -0.792503,-3.404961 c -0.132568,-1.171875 -0.151634,-2.298385 0.166969,-3.456344 a 6.1062012,6.1062012 0 0 1 1.814232,-2.915726 c 0.489258,-0.457764 1.171898,-0.781563 1.719017,-1.073799 0.547119,-0.292237 1.160912,-0.412308 1.730003,-0.56099 a 11.572266,11.572266 0 0 1 1.861039,-0.285644 c 0.388641,-0.03342 0.967305,-0.06546 1.836204,-0.07027 z m -11.299782,0.07244 v 13.160935 l -3.285713,-0.0045 v -8.147391 l -3.172073,3.756523 -3.107643,-3.840751 -0.03159,8.258056 H 11.25 V 22.596703 h 3.442383 l 2.914352,3.976249 3.149414,-3.977737 z" />
</svg>
