<?xml version="1.0" encoding="UTF-8" standalone="no"?>
<svg
   xmlns:dc="http://purl.org/dc/elements/1.1/"
   xmlns:cc="http://creativecommons.org/ns#"
   xmlns:rdf="http://www.w3.org/1999/02/22-rdf-syntax-ns#"
   xmlns:svg="http://www.w3.org/2000/svg"
   xmlns="http://www.w3.org/2000/svg"
   xmlns:sodipodi="http://sodipodi.sourceforge.net/DTD/sodipodi-0.dtd"
   xmlns:inkscape="http://www.inkscape.org/namespaces/inkscape"
   height="60"
   width="60"
   inkscape:version="1.0 (4035a4fb49, 2020-05-01)"
   sodipodi:docname="pinterest.svg"
   id="svg3750"
   version="1.1"
   stroke-miterlimit="2"
   stroke-linejoin="round"
   clip-rule="evenodd"
   fill-rule="evenodd"
   xml:space="preserve"
   viewBox="0 0 60 60"><metadata
     id="metadata3756"><rdf:RDF><cc:Work
         rdf:about=""><dc:format>image/svg+xml</dc:format><dc:type
           rdf:resource="http://purl.org/dc/dcmitype/StillImage" /><dc:title></dc:title></cc:Work></rdf:RDF></metadata><defs
     id="defs3754" /><sodipodi:namedview
     inkscape:current-layer="svg3750"
     inkscape:window-maximized="1"
     inkscape:window-y="-8"
     inkscape:window-x="1912"
     inkscape:cy="234.04376"
     inkscape:cx="49.447552"
     inkscape:zoom="1.1739077"
     showgrid="false"
     id="namedview3752"
     inkscape:window-height="1017"
     inkscape:window-width="1920"
     inkscape:pageshadow="2"
     inkscape:pageopacity="0"
     guidetolerance="10"
     gridtolerance="10"
     objecttolerance="10"
     borderopacity="1"
     bordercolor="#666666"
     pagecolor="#ffffff"
     inkscape:document-rotation="0" /><path
     style="fill:#ffffff;fill-opacity:1;stroke-width:0.117187"
     id="path3748"
     class="fill-000000"
     fill="#ffffff"
     fill-rule="nonzero"
     d="M 29.999707,0.001 C 13.431302,0.001 0,13.432706 0,30.000824 c 0,12.709713 7.9072111,23.574773 19.067189,27.945875 -0.262499,-2.373637 -0.499335,-6.024035 0.10418,-8.615407 0.544921,-2.341177 3.517727,-14.911904 3.517727,-14.911904 0,0 -0.897537,-1.796957 -0.897537,-4.454072 0,-4.171414 2.417808,-7.285678 5.428466,-7.285678 2.559253,0 3.795813,1.921762 3.795813,4.225907 0,2.574145 -1.638747,6.422239 -2.484722,9.988496 -0.706639,2.986178 1.497536,5.421221 4.442452,5.421221 5.332373,0 9.43088,-5.622198 9.43088,-13.7378 0,-7.182787 -5.161513,-12.204985 -12.531069,-12.204985 -8.536038,0 -13.546497,6.402435 -13.546497,13.018971 0,2.578599 0.993162,5.343292 2.232652,6.846224 0.244921,0.297071 0.281015,0.55758 0.208125,0.86051 -0.22793,0.947697 -0.733827,2.98524 -0.833319,3.402194 -0.130898,0.549142 -0.434882,0.665743 -1.00324,0.401251 -3.746946,-1.744222 -6.089402,-7.221928 -6.089402,-11.621976 0,-9.463495 6.875611,-18.154137 19.821992,-18.154137 10.406933,0 18.494612,7.415522 18.494612,17.326206 0,10.339356 -6.51901,18.660036 -15.567391,18.660036 -3.039838,0 -5.897801,-1.579222 -6.875846,-3.444616 0,0 -1.50445,5.727902 -1.869137,7.131576 -0.677577,2.605904 -2.505698,5.87216 -3.728665,7.864469 C 23.924485,59.532366 26.907369,60.001 29.999707,60.001 46.568698,60.001 60,46.56988 60,30.000824 60,13.432706 46.568698,0.001 29.999707,0.001 Z" /></svg>
