<?xml version="1.0" encoding="UTF-8" standalone="no"?>
<svg
   xmlns:dc="http://purl.org/dc/elements/1.1/"
   xmlns:cc="http://creativecommons.org/ns#"
   xmlns:rdf="http://www.w3.org/1999/02/22-rdf-syntax-ns#"
   xmlns:svg="http://www.w3.org/2000/svg"
   xmlns="http://www.w3.org/2000/svg"
   xmlns:sodipodi="http://sodipodi.sourceforge.net/DTD/sodipodi-0.dtd"
   xmlns:inkscape="http://www.inkscape.org/namespaces/inkscape"
   height="60"
   width="60"
   viewBox="0 0 59.999999 59.999999"
   xml:space="preserve"
   version="1.1"
   id="svg4331"
   sodipodi:docname="twitter.svg"
   inkscape:version="1.0 (4035a4fb49, 2020-05-01)"><metadata
     id="metadata4337"><rdf:RDF><cc:Work
         rdf:about=""><dc:format>image/svg+xml</dc:format><dc:type
           rdf:resource="http://purl.org/dc/dcmitype/StillImage" /><dc:title></dc:title></cc:Work></rdf:RDF></metadata><defs
     id="defs4335" /><sodipodi:namedview
     inkscape:document-rotation="0"
     pagecolor="#ffffff"
     bordercolor="#666666"
     borderopacity="1"
     objecttolerance="10"
     gridtolerance="10"
     guidetolerance="10"
     inkscape:pageopacity="0"
     inkscape:pageshadow="2"
     inkscape:window-width="1920"
     inkscape:window-height="1017"
     id="namedview4333"
     showgrid="false"
     inkscape:zoom="10.601675"
     inkscape:cx="10.099507"
     inkscape:cy="29.147685"
     inkscape:window-x="1912"
     inkscape:window-y="-8"
     inkscape:window-maximized="1"
     inkscape:current-layer="svg4331" /><path
     d="M 30.001218,0 C 13.432018,0 0,13.434454 0,30.001218 0,46.570419 13.432018,60 30.001218,60 46.570419,60 60,46.570419 60,30.001218 60,13.434454 46.569201,0 30.001218,0 Z m 15.112086,23.952242 c 0.01584,0.324074 0.02193,0.649366 0.02193,0.978314 0,9.991471 -7.604776,21.510721 -21.510721,21.510721 A 21.408382,21.408382 0 0 1 12.0346,43.045809 c 0.592106,0.06944 1.192739,0.104776 1.803119,0.104776 a 15.168129,15.168129 0 0 0 9.38962,-3.235868 7.5706628,7.5706628 0 0 1 -7.061403,-5.252193 7.3830409,7.3830409 0 0 0 1.421783,0.135234 c 0.689571,0 1.357213,-0.09016 1.991959,-0.264376 a 7.5657895,7.5657895 0 0 1 -6.066033,-7.412281 l 0.0012,-0.09747 a 7.5341131,7.5341131 0 0 0 3.424707,0.946638 7.5584795,7.5584795 0 0 1 -3.363791,-6.29386 c 0,-1.385234 0.372807,-2.685185 1.023392,-3.801169 a 21.464425,21.464425 0 0 0 15.584795,7.898391 7.5609162,7.5609162 0 0 1 7.364766,-9.282407 7.5536062,7.5536062 0 0 1 5.517787,2.386696 15.101121,15.101121 0 0 0 4.801414,-1.834795 7.5816277,7.5816277 0 0 1 -3.326024,4.182505 15.115741,15.115741 0 0 0 4.343324,-1.190303 15.274123,15.274123 0 0 1 -3.77193,3.916911 z"
     fill="#ffffff"
     class="fill-000000"
     id="path4329"
     style="fill:#ffffff;fill-opacity:1;stroke-width:1.21833" /></svg>
