<?xml version="1.0" encoding="UTF-8" standalone="no"?>
<svg
   xmlns:dc="http://purl.org/dc/elements/1.1/"
   xmlns:cc="http://creativecommons.org/ns#"
   xmlns:rdf="http://www.w3.org/1999/02/22-rdf-syntax-ns#"
   xmlns:svg="http://www.w3.org/2000/svg"
   xmlns="http://www.w3.org/2000/svg"
   xmlns:sodipodi="http://sodipodi.sourceforge.net/DTD/sodipodi-0.dtd"
   xmlns:inkscape="http://www.inkscape.org/namespaces/inkscape"
   sodipodi:docname="cloud.svg"
   inkscape:version="1.0 (4035a4fb49, 2020-05-01)"
   id="svg8"
   version="1.1"
   viewBox="0 0 45 15"
   height="15mm"
   width="45mm">
  <defs
     id="defs2" />
  <sodipodi:namedview
     inkscape:window-maximized="0"
     inkscape:window-y="0"
     inkscape:window-x="2128"
     inkscape:window-height="1040"
     inkscape:window-width="1397"
     showgrid="false"
     inkscape:document-rotation="0"
     inkscape:current-layer="layer1"
     inkscape:document-units="mm"
     inkscape:cy="52.707056"
     inkscape:cx="76.706571"
     inkscape:zoom="3.959798"
     inkscape:pageshadow="2"
     inkscape:pageopacity="0.0"
     borderopacity="1.0"
     bordercolor="#666666"
     pagecolor="#ffffff"
     id="base" />
  <metadata
     id="metadata5">
    <rdf:RDF>
      <cc:Work
         rdf:about="">
        <dc:format>image/svg+xml</dc:format>
        <dc:type
           rdf:resource="http://purl.org/dc/dcmitype/StillImage" />
        <dc:title></dc:title>
      </cc:Work>
    </rdf:RDF>
  </metadata>
  <g
     id="layer1"
     inkscape:groupmode="layer"
     inkscape:label="Vrstva 1">
    <path
       d="m 4.6753897,0.3000005 c -1.7591653,0 -3.1753892,1.4166958 -3.1753892,3.1764471 0,1.7597514 1.4162239,3.1764471 3.1753892,3.1764471 H 15.630069 c 0.04484,-0.00717 0.09003,-0.013443 0.13696,-0.013443 h 0.06409 c 0.04694,0 0.09211,0.00627 0.13696,0.013443 h 0.02067 v 0.00207 c 0.400033,0.073812 0.701852,0.4215862 0.701852,0.8437437 0,0.4221564 -0.301822,0.7699313 -0.701852,0.8437437 v 0.00465 h -0.04548 c -0.03706,0.00484 -0.07372,0.011375 -0.112152,0.011375 h -0.06409 c -0.03843,0 -0.07509,-0.00653 -0.112152,-0.011375 h -5.399814 c -1.7591648,0 -3.1753894,1.4166965 -3.1753894,3.1764469 0,1.759752 1.4162246,3.176447 3.1753894,3.176447 H 40.32461 c 1.759166,0 3.17539,-1.416695 3.17539,-3.176447 0,-1.7597504 -1.416224,-3.1764469 -3.17539,-3.1764469 H 29.632998 v -0.00775 c -0.457655,-0.010376 -0.823307,-0.3806518 -0.823307,-0.8411588 0,-0.4605067 0.365652,-0.8307828 0.823307,-0.8411586 v -0.00413 h 4.309826 c 1.759166,0 3.175389,-1.4166957 3.175389,-3.1764471 0,-1.7597513 -1.416223,-3.1764471 -3.175389,-3.1764471 z"
       style="fill:#272d5e;fill-opacity:1;stroke:#e8e6c0;stroke-width:0.6;stroke-linecap:round;stroke-linejoin:bevel;paint-order:stroke fill markers;stroke-miterlimit:4;stroke-dasharray:none;stroke-opacity:1"
       id="rect847" />
  </g>
</svg>
