<?xml version="1.0" encoding="UTF-8" standalone="no"?>
<svg
   xmlns:dc="http://purl.org/dc/elements/1.1/"
   xmlns:cc="http://creativecommons.org/ns#"
   xmlns:rdf="http://www.w3.org/1999/02/22-rdf-syntax-ns#"
   xmlns:svg="http://www.w3.org/2000/svg"
   xmlns="http://www.w3.org/2000/svg"
   xmlns:sodipodi="http://sodipodi.sourceforge.net/DTD/sodipodi-0.dtd"
   xmlns:inkscape="http://www.inkscape.org/namespaces/inkscape"
   sodipodi:docname="cloud_alt3.svg"
   inkscape:version="1.0 (4035a4fb49, 2020-05-01)"
   id="svg8"
   version="1.1"
   viewBox="0 0 31 13"
   height="13mm"
   width="31mm">
  <defs
     id="defs2" />
  <sodipodi:namedview
     inkscape:window-maximized="1"
     inkscape:window-y="-8"
     inkscape:window-x="1912"
     inkscape:window-height="1017"
     inkscape:window-width="1920"
     showgrid="false"
     inkscape:document-rotation="0"
     inkscape:current-layer="layer1"
     inkscape:document-units="mm"
     inkscape:cy="26.852233"
     inkscape:cx="49.710107"
     inkscape:zoom="11.2"
     inkscape:pageshadow="2"
     inkscape:pageopacity="0.0"
     borderopacity="1.0"
     bordercolor="#666666"
     pagecolor="#ffffff"
     id="base" />
  <metadata
     id="metadata5">
    <rdf:RDF>
      <cc:Work
         rdf:about="">
        <dc:format>image/svg+xml</dc:format>
        <dc:type
           rdf:resource="http://purl.org/dc/dcmitype/StillImage" />
        <dc:title />
      </cc:Work>
    </rdf:RDF>
  </metadata>
  <g
     id="layer1"
     inkscape:groupmode="layer"
     inkscape:label="Vrstva 1">
    <g
       style="opacity:1;fill:#feffff;fill-opacity:1"
       id="g1224"
       transform="translate(-48.389819,-4.0344416)">
      <path
         transform="scale(0.26458333)"
         d="m 241.10742,15.449219 c -8.25497,0.0072 -15.23995,5.932765 -16.70117,13.953125 0.34018,0.153046 0.673,0.320113 0.99609,0.503906 4.44476,2.52838 6.65578,8.100398 3.78125,12.435547 -2.04347,3.081815 -6.55065,4.603674 -10.06054,2.556641 -1.23908,-0.722652 -2.16419,-1.871684 -2.57422,-3.144532 -0.41004,-1.272845 -0.30339,-2.672566 0.52734,-3.892578 1.16604,-1.712437 3.703,-2.555221 5.67774,-1.371094 1.37934,0.827108 2.06761,2.608178 1.09961,3.988282 a 0.54213777,0.50403519 1.7131075 0 1 -0.75196,0.144531 0.54213777,0.50403519 1.7131075 0 1 -0.15625,-0.695313 c 0.59991,-0.855298 0.14264,-2.038181 -0.77734,-2.589843 -1.40827,-0.844449 -3.29993,-0.215046 -4.17383,1.068359 -1.30353,1.914376 -0.30921,4.46504 1.70313,5.638672 2.94266,1.716214 6.80922,0.416642 8.56445,-2.230469 2.52555,-3.808847 0.55133,-8.794543 -3.42188,-11.054687 -0.19601,-0.1115 -0.40193,-0.207824 -0.60546,-0.306641 -7.9e-4,0.0066 -0.003,0.01288 -0.004,0.01953 -1.82646,-0.752054 -3.78259,-1.138895 -5.75781,-1.138672 -7.0043,0.0014 -13.09047,4.813715 -14.70704,11.628907 -1.2754,0.285959 -4.71416,0.131871 -8.8125,0.664062 -4.79254,0.578098 -7.33175,0.324243 -11.6621,5.011719 3.0953,-0.98321 12.79277,-4.191086 20.96289,2.945312 2.16257,5.992619 7.84981,9.986423 14.2207,9.986328 2.89209,-1.37e-4 5.72344,-0.829825 8.1582,-2.390624 1.49483,3.417823 4.42946,5.905094 7.90821,6.890624 2.0891,0.334254 4.23803,0.257941 6.22265,-0.291015 5.45106,-1.507786 8.95491,-6.584771 6.85547,-11.429688 -1.58614,-3.660411 -6.35639,-6.156226 -10.69531,-4.927734 -3.24787,0.919588 -5.33143,3.961253 -4.0586,6.837891 0.94262,2.130305 3.73286,3.583993 6.24219,2.855468 1.83468,-0.532658 3.01223,-2.264129 2.2832,-3.875 a 0.68107851,0.57617194 7.9434424 0 1 0.37696,-0.730468 0.68107851,0.57617194 7.9434424 0 1 0.88476,0.359375 c 1.02909,2.273914 -0.56504,4.623459 -3.05273,5.345703 -3.27465,0.950716 -6.81038,-0.888557 -8.00391,-3.585938 -1.56579,-3.538744 0.94067,-7.200983 4.84571,-8.30664 5.10348,-1.444965 10.61204,1.44116 12.44531,5.671875 1.19298,2.75307 0.80807,5.553081 -0.63867,7.875 -0.009,0.0146 -0.0201,0.02841 -0.0293,0.04297 2.32303,2.575631 5.62264,4.07076 9.10937,4.070313 6.78377,-1.44e-4 12.28306,-5.499439 12.28321,-12.283203 -2.9591,0.0018 -2.12471,-0.0032 0,-0.002 4e-5,-0.170791 -0.0144,-0.341106 -0.0215,-0.511719 -1.55804,0.291043 -3.15899,0.229386 -4.63476,-0.1875 -2.28591,-0.645738 -4.27509,-2.125133 -5.34375,-4.390625 -1.64156,-3.480003 -0.35387,-8.049714 3.4414,-9.814453 2.90293,-1.349812 6.62937,-0.45163 7.98438,2.476562 1.0325,2.231229 0.20605,5.157237 -2.24414,6.275391 a 0.51129678,0.53205321 66.393504 0 1 -0.70117,-0.248047 0.51129678,0.53205321 66.393504 0 1 0.27343,-0.683594 c 1.86523,-0.8512 2.51778,-3.148361 1.70704,-4.90039 -1.09602,-2.368488 -4.18208,-3.115803 -6.58594,-1.998047 -3.21446,1.494666 -4.32373,5.436675 -2.90821,8.4375 1.79926,3.814303 6.63389,5.098666 10.57422,3.517578 2.01634,-1.486215 3.60588,-3.494943 4.5625,-5.835938 7.01731,-11.846769 8.25419,-3.881265 23.55274,-8.277343 -5.30816,1.03158 -10.954,-6.096161 -16.82617,-3.931641 -4.44068,1.21962 -6.3445,0.788321 -7.66211,-0.02148 -2.47622,-4.127478 -6.93672,-6.652813 -11.75,-6.652344 -2.0916,1.55e-4 -4.1554,0.479193 -6.03321,1.40039 -2.52665,-6.569209 -8.83859,-10.903485 -15.87695,-10.902343 z"
         style="opacity:1;fill:#feffff;fill-opacity:1;stroke:#ffffff;stroke-width:0;stroke-linecap:round;stroke-linejoin:bevel;stroke-miterlimit:4;stroke-dasharray:none;stroke-opacity:1;paint-order:stroke fill markers"
         id="path1243" />
      <g
         style="opacity:1;fill:#feffff;fill-opacity:1"
         id="g1314" />
    </g>
  </g>
</svg>
