<?xml version="1.0" encoding="UTF-8" standalone="no"?>
<svg
   xmlns:dc="http://purl.org/dc/elements/1.1/"
   xmlns:cc="http://creativecommons.org/ns#"
   xmlns:rdf="http://www.w3.org/1999/02/22-rdf-syntax-ns#"
   xmlns:svg="http://www.w3.org/2000/svg"
   xmlns="http://www.w3.org/2000/svg"
   xmlns:sodipodi="http://sodipodi.sourceforge.net/DTD/sodipodi-0.dtd"
   xmlns:inkscape="http://www.inkscape.org/namespaces/inkscape"
   width="27.5mm"
   height="13.5mm"
   viewBox="0 0 27.5 13.5"
   version="1.1"
   id="svg8"
   inkscape:version="1.0 (4035a4fb49, 2020-05-01)"
   sodipodi:docname="cloud_alt.svg">
  <defs
     id="defs2" />
  <sodipodi:namedview
     id="base"
     pagecolor="#ffffff"
     bordercolor="#666666"
     borderopacity="1.0"
     inkscape:pageopacity="0.0"
     inkscape:pageshadow="2"
     inkscape:zoom="11.2"
     inkscape:cx="49.404721"
     inkscape:cy="15.762433"
     inkscape:document-units="mm"
     inkscape:current-layer="layer1"
     inkscape:document-rotation="0"
     showgrid="false"
     inkscape:window-width="1920"
     inkscape:window-height="1017"
     inkscape:window-x="1912"
     inkscape:window-y="-8"
     inkscape:window-maximized="1" />
  <metadata
     id="metadata5">
    <rdf:RDF>
      <cc:Work
         rdf:about="">
        <dc:format>image/svg+xml</dc:format>
        <dc:type
           rdf:resource="http://purl.org/dc/dcmitype/StillImage" />
        <dc:title />
      </cc:Work>
    </rdf:RDF>
  </metadata>
  <g
     inkscape:label="Vrstva 1"
     inkscape:groupmode="layer"
     id="layer1">
    <g
       id="g1224"
       style="opacity:1;fill:#ffffff;fill-opacity:1">
      <g
         id="g1314"
         style="opacity:1;fill:#ffffff;fill-opacity:1" />
    </g>
    <path
       id="path1094"
       style="opacity:1;fill:#ffffff;fill-opacity:1;stroke:#fe0000;stroke-width:0;stroke-linecap:round;stroke-linejoin:bevel;stroke-miterlimit:4;stroke-dasharray:none;stroke-opacity:1;paint-order:stroke fill markers"
       d="M 13.888559,0.18899116 A 4.7499994,4.7499994 0 0 0 9.1710168,4.5220599 4.9999995,4.9999995 0 0 0 5.1650598,2.5144307 4.9999995,4.9999995 0 0 0 0.16536509,7.5146421 4.9999995,4.9999995 0 0 0 5.1650598,12.514336 4.9999995,4.9999995 0 0 0 7.3344365,12.018759 C 8.1747555,11.222982 8.4664269,9.9035573 7.7984908,8.9052548 7.2430295,8.0750582 6.0781072,7.7228975 5.2312056,8.295473 4.6163738,8.7111496 4.3576623,9.5778323 4.7842045,10.201816 5.0883992,10.646823 5.7196646,10.835609 6.1675824,10.525827 6.4797495,10.309931 6.6093906,9.8642353 6.3923751,9.5543103 a 0.2325,0.2325 0 0 1 0.057878,-0.3234939 0.2325,0.2325 0 0 1 0.3234944,0.057878 C 7.1537329,9.8313593 6.9396559,10.555861 6.431649,10.907199 5.7507573,11.378107 4.8391619,11.106417 4.4002486,10.464332 3.8143085,9.6071643 4.1576823,8.4612223 4.9707564,7.9115171 6.0510308,7.1811631 7.4961958,7.6168186 8.1850303,8.646356 8.4126212,8.9865149 8.5492555,9.3563151 8.6051598,9.7315613 8.7156305,10.473069 8.5107678,11.238521 8.0801273,11.860112 a 3.9999994,3.9999994 0 0 0 2.8437547,1.187525 3.9999994,3.9999994 0 0 0 2.937805,-1.28571 3.4999996,3.4999996 0 0 0 2.870626,1.474329 3.4999996,3.4999996 0 0 0 3.116605,-1.940967 c 1.162377,0.899372 4.390042,1.739227 7.438822,-1.257287 0,0 -3.638738,1.71715 -5.778458,-0.5529375 A 3.9999994,3.9999994 0 0 0 22.213632,7.218536 3.9999994,3.9999994 0 0 0 19.15387,3.3309182 c -0.009,-4.292e-4 -0.01788,-0.00224 -0.02687,-0.00258 -1.269256,-0.047988 -2.522839,0.8755869 -2.565217,2.1853964 -0.02925,0.9038986 0.629498,1.7948587 1.557527,1.8195271 0.627889,0.016691 1.246281,-0.4420563 1.259355,-1.0810708 0.0086,-0.4212238 -0.299861,-0.8364368 -0.72192,-0.8423259 -0.267934,-0.00374 -0.530434,0.1946322 -0.532267,0.4552693 a 0.2325,0.2325 0 0 1 -0.234095,0.2299602 0.2325,0.2325 0 0 1 -0.232027,-0.234611 c 0.0039,-0.5502016 0.50272,-0.9227119 1.00459,-0.9157065 0.710548,0.00991 1.195261,0.6608577 1.18184,1.3167156 -0.01895,0.9264869 -0.875739,1.5608352 -1.738912,1.5378906 -1.214538,-0.032284 -2.046057,-1.1608472 -2.00918,-2.3006349 0.0129,-0.3988504 0.115693,-0.7668212 0.286288,-1.0929564 0.370665,-0.7086222 1.061683,-1.2198345 1.843298,-1.4324708 a 4.7499994,4.7499994 0 0 0 -4.323767,-2.78432604 4.7499994,4.7499994 0 0 0 -0.01395,0 z" />
  </g>
</svg>
