<?xml version="1.0" encoding="UTF-8" standalone="no"?>
<svg
   xmlns:dc="http://purl.org/dc/elements/1.1/"
   xmlns:cc="http://creativecommons.org/ns#"
   xmlns:rdf="http://www.w3.org/1999/02/22-rdf-syntax-ns#"
   xmlns:svg="http://www.w3.org/2000/svg"
   xmlns="http://www.w3.org/2000/svg"
   xmlns:sodipodi="http://sodipodi.sourceforge.net/DTD/sodipodi-0.dtd"
   xmlns:inkscape="http://www.inkscape.org/namespaces/inkscape"
   sodipodi:docname="cloud3.svg"
   inkscape:version="1.0 (4035a4fb49, 2020-05-01)"
   id="svg1649"
   version="1.1"
   viewBox="0 0 64 23"
   height="23mm"
   width="64mm">
  <defs
     id="defs1643" />
  <sodipodi:namedview
     inkscape:window-maximized="1"
     inkscape:window-y="-8"
     inkscape:window-x="1912"
     inkscape:window-height="1017"
     inkscape:window-width="1920"
     showgrid="false"
     inkscape:document-rotation="0"
     inkscape:current-layer="layer1"
     inkscape:document-units="mm"
     inkscape:cy="70.090157"
     inkscape:cx="163.63938"
     inkscape:zoom="2.8284271"
     inkscape:pageshadow="2"
     inkscape:pageopacity="0.0"
     borderopacity="1.0"
     bordercolor="#666666"
     pagecolor="#ffffff"
     id="base" />
  <metadata
     id="metadata1646">
    <rdf:RDF>
      <cc:Work
         rdf:about="">
        <dc:format>image/svg+xml</dc:format>
        <dc:type
           rdf:resource="http://purl.org/dc/dcmitype/StillImage" />
        <dc:title></dc:title>
      </cc:Work>
    </rdf:RDF>
  </metadata>
  <g
     id="layer1"
     inkscape:groupmode="layer"
     inkscape:label="Vrstva 1">
    <path
       d="m 3.9890799,0.80006141 c -1.71138,0 -3.0890795,1.37621149 -3.0890794,3.08574069 0,1.7095293 1.3776994,3.0857407 3.0890794,3.0857407 H 24.482897 c 0.007,-1.767e-4 0.0136,-0.0021 0.02066,-0.0021 h 0.05837 c 0.452127,0 0.816179,0.3636574 0.816179,0.8152953 v 0.062439 c 0,0.4516369 -0.364052,0.8152953 -0.816179,0.8152953 h -0.05837 c -2.289516,-0.013211 -4.594213,-0.00619 -6.888956,-0.00619 -1.711379,0 -3.089079,1.3762106 -3.089079,3.0857406 0,1.70953 1.3777,3.085741 3.089079,3.08574 h 26.416275 v 5.16e-4 c 0.0055,-1.5e-4 0.01052,-0.0016 0.01601,-0.0016 h 0.04494 c 0.320493,0 0.578557,0.257784 0.578557,0.577931 v 0.04437 c 0,0.320148 -0.258064,0.577931 -0.578557,0.577931 h -0.04494 c -2.276707,0.003 -4.593158,0.0016 -6.544923,0.0016 -1.711377,0 -3.089077,1.376212 -3.089077,3.085741 0,1.70953 1.3777,3.08574 3.089077,3.08574 H 60.01092 C 61.7223,22.2 63.1,20.82379 63.1,19.11426 c 0,-1.709529 -1.3777,-3.085741 -3.08908,-3.085741 h -7.564627 v -5.16e-4 h -0.04494 c -0.320492,0 -0.578041,-0.257784 -0.578041,-0.577931 v -0.04438 c 0,-0.320147 0.257549,-0.577931 0.578041,-0.577931 h 0.04494 3.306554 c 1.711379,0 3.089079,-1.37621 3.089079,-3.08574 0,-1.70953 -1.3777,-3.0857407 -3.089079,-3.0857407 -6.081999,0.046472 -12.178931,-0.068001 -18.253976,0.00719 h -0.05889 c -0.452125,0 -0.815661,-0.3631422 -0.815663,-0.8147801 v -0.062948 c 0,-0.4516378 0.363538,-0.81478 0.815663,-0.81478 h 0.05889 c 0.0019,0 0.0034,4.892e-4 0.0052,5.162e-4 h 5.057204 c 1.71138,0 3.089079,-1.3762114 3.089079,-3.0857407 0,-1.7095258 -1.377699,-3.0857372 -3.089079,-3.0857372 z"
       style="fill:#272d5e;fill-opacity:1;stroke:#e8e6c0;stroke-width:0.6;stroke-linecap:round;stroke-linejoin:bevel;stroke-miterlimit:4;stroke-dasharray:none;paint-order:stroke fill markers"
       id="rect2226" />
  </g>
</svg>
