<?xml version="1.0" encoding="UTF-8" standalone="no"?>
<svg
   xmlns:dc="http://purl.org/dc/elements/1.1/"
   xmlns:cc="http://creativecommons.org/ns#"
   xmlns:rdf="http://www.w3.org/1999/02/22-rdf-syntax-ns#"
   xmlns:svg="http://www.w3.org/2000/svg"
   xmlns="http://www.w3.org/2000/svg"
   xmlns:sodipodi="http://sodipodi.sourceforge.net/DTD/sodipodi-0.dtd"
   xmlns:inkscape="http://www.inkscape.org/namespaces/inkscape"
   sodipodi:docname="cloud_alt2.svg"
   inkscape:version="1.0 (4035a4fb49, 2020-05-01)"
   id="svg8"
   version="1.1"
   viewBox="0 0 13 8.5"
   height="8.5mm"
   width="13mm">
  <defs
     id="defs2" />
  <sodipodi:namedview
     inkscape:window-maximized="1"
     inkscape:window-y="-8"
     inkscape:window-x="1912"
     inkscape:window-height="1017"
     inkscape:window-width="1920"
     showgrid="false"
     inkscape:document-rotation="0"
     inkscape:current-layer="layer1"
     inkscape:document-units="mm"
     inkscape:cy="28.219445"
     inkscape:cx="29.018969"
     inkscape:zoom="11.2"
     inkscape:pageshadow="2"
     inkscape:pageopacity="0.0"
     borderopacity="1.0"
     bordercolor="#666666"
     pagecolor="#ffffff"
     id="base" />
  <metadata
     id="metadata5">
    <rdf:RDF>
      <cc:Work
         rdf:about="">
        <dc:format>image/svg+xml</dc:format>
        <dc:type
           rdf:resource="http://purl.org/dc/dcmitype/StillImage" />
        <dc:title />
      </cc:Work>
    </rdf:RDF>
  </metadata>
  <g
     id="layer1"
     inkscape:groupmode="layer"
     inkscape:label="Vrstva 1">
    <path
       d="M 2.6860668,0.14178345 A 2.4999994,2.4999994 0 0 0 0.21541671,2.6418891 2.4999994,2.4999994 0 0 0 0.61952806,4.0040799 2.7499995,2.7499995 0 0 0 0.09449419,5.6205191 2.7499995,2.7499995 0 0 0 2.8447136,8.3702221 2.7499995,2.7499995 0 0 0 5.1220935,7.1604761 c 1.3553042,0.692925 3.9383652,1.174124 7.8930605,-1.462443 -0.183973,0.06277 -2.907837,0.860181 -4.887558,-0.04341 C 7.2584345,6.1479271 6.1270709,6.1167611 5.4543731,5.3507681 4.8908291,4.7090895 4.8566582,3.6364578 5.5696123,3.0118925 6.0734769,2.5704952 6.8801756,2.510611 7.3245433,3.0294624 7.5059813,3.2413129 7.5841895,3.534054 7.5405518,3.8113268 L 8.7632152,3.81081 A 2.2499994,2.2499994 0 0 0 6.5127064,1.561335 2.2499994,2.2499994 0 0 0 5.1391485,2.0295234 2.4999994,2.4999994 0 0 0 2.7150069,0.14178345 a 2.4999994,2.4999994 0 0 0 -0.02894,0 z M 7.5405518,3.8113268 C 7.5090875,4.011252 7.416396,4.2033093 7.244446,4.3503121 6.9572858,4.5958113 6.4974426,4.6279248 6.2465726,4.3265409 a 0.12672443,0.13262443 45.899277 0 1 0.020672,-0.1829345 0.12672443,0.13262443 45.899277 0 1 0.182417,0.011885 c 0.1498732,0.1800487 0.4457488,0.1598293 0.6314863,0.00103 0.1088628,-0.093068 0.1739,-0.2150268 0.2005039,-0.3451986 C 7.3247867,3.6002885 7.2662159,3.3679875 7.1245553,3.2025785 6.7821475,2.8027785 6.1383818,2.8522188 5.7354929,3.2051624 5.1455038,3.7220106 5.1736396,4.6290207 5.6522946,5.1740341 c 0.6302243,0.717596 1.7422998,0.69335 2.5290436,0.146761 A 2.2499994,2.2499994 0 0 0 8.7632152,3.8113268 Z M 5.1748037,5.6200021 a 2.2499994,2.2499994 0 0 0 5.186e-4,5.17e-4 H 2.8441977 Z"
       style="opacity:1;fill:#ffffff;fill-opacity:1;stroke:#fffffe;stroke-width:0;stroke-linecap:round;stroke-linejoin:bevel;stroke-miterlimit:4;stroke-dasharray:none;stroke-opacity:1;paint-order:stroke fill markers"
       id="path1189" />
  </g>
</svg>
