<?xml version="1.0" encoding="UTF-8" standalone="no"?>
<svg
   xmlns:dc="http://purl.org/dc/elements/1.1/"
   xmlns:cc="http://creativecommons.org/ns#"
   xmlns:rdf="http://www.w3.org/1999/02/22-rdf-syntax-ns#"
   xmlns:svg="http://www.w3.org/2000/svg"
   xmlns="http://www.w3.org/2000/svg"
   xmlns:sodipodi="http://sodipodi.sourceforge.net/DTD/sodipodi-0.dtd"
   xmlns:inkscape="http://www.inkscape.org/namespaces/inkscape"
   sodipodi:docname="cloud2.svg"
   inkscape:version="1.0 (4035a4fb49, 2020-05-01)"
   id="svg934"
   version="1.1"
   viewBox="0 0 45 22"
   height="22mm"
   width="45mm">
  <defs
     id="defs928" />
  <sodipodi:namedview
     inkscape:window-maximized="0"
     inkscape:window-y="79"
     inkscape:window-x="2294"
     inkscape:window-height="1040"
     inkscape:window-width="1397"
     showgrid="false"
     inkscape:document-rotation="0"
     inkscape:current-layer="layer1"
     inkscape:document-units="mm"
     inkscape:cy="138.27749"
     inkscape:cx="64.963946"
     inkscape:zoom="2.8284271"
     inkscape:pageshadow="2"
     inkscape:pageopacity="0.0"
     borderopacity="1.0"
     bordercolor="#666666"
     pagecolor="#ffffff"
     id="base" />
  <metadata
     id="metadata931">
    <rdf:RDF>
      <cc:Work
         rdf:about="">
        <dc:format>image/svg+xml</dc:format>
        <dc:type
           rdf:resource="http://purl.org/dc/dcmitype/StillImage" />
        <dc:title></dc:title>
      </cc:Work>
    </rdf:RDF>
  </metadata>
  <g
     id="layer1"
     inkscape:groupmode="layer"
     inkscape:label="Vrstva 1">
    <path
       sodipodi:nodetypes="sscccssccscccsccssssccsscsssccsscssss"
       d="m 14.911597,0.8000005 c -1.687213,0 -3.045307,1.3587992 -3.045307,3.0468874 0,1.6222381 1.255222,2.937195 2.850453,3.0375793 v 0.00259 c 0.34941,0.056792 0.629726,0.3006433 0.638316,0.5853827 v 5.294e-4 c 0,0.326115 -0.262235,0.5884859 -0.588181,0.5884859 h -0.01654 C 11.236172,8.0607956 7.6576112,8.0610337 4.6453085,8.0609277 c -1.6872132,0 -3.045308,1.3587989 -3.045308,3.0468873 0,1.68809 1.3580948,3.047405 3.045308,3.047405 2.0806847,0 4.1613698,0 6.2420545,0 v 0.0016 c 0.256948,0.0072 0.462069,0.215586 0.462068,0.474718 0,0.263748 -0.212138,0.47627 -0.475507,0.47627 -1.0656709,-0.0043 -2.1365081,-0.0021 -3.2039816,-0.0021 -1.6872136,0 -3.0458249,1.3588 -3.0458249,3.046888 0,1.688089 1.3586113,3.047404 3.0458249,3.047404 H 22.094328 c 1.687214,0 3.045307,-1.359315 3.045307,-3.047404 0,-1.688088 -1.358093,-3.046888 -3.045307,-3.046888 -1.647948,0.0029 -3.297685,-0.0053 -4.944749,0.0026 -0.263505,0 -0.475507,-0.212337 -0.475507,-0.47627 v -5.3e-4 c 0,-0.263932 0.212002,-0.47627 0.475507,-0.47627 3.632424,4.7e-5 7.266066,0 10.898915,0 1.687212,0 3.045308,-1.359315 3.045308,-3.047404 0,-1.6880894 -1.358096,-3.0468883 -3.045308,-3.0468883 h -3.431915 v -10e-4 C 24.294966,8.0596177 24.03615,7.8005111 24.03615,7.478663 v -5.293e-4 c 0,-0.3218492 0.258816,-0.5809641 0.580429,-0.5812466 4.906807,-0.00515 9.826201,-0.00259 14.737594,-0.00259 1.687215,0 3.045826,-1.3593161 3.045826,-3.0474047 0,-1.6880882 -1.358611,-3.0468875 -3.045826,-3.0468875 z"
       style="fill:#272d5e;stroke:#e8e6c0;stroke-width:0.6;stroke-linecap:round;stroke-linejoin:bevel;stroke-miterlimit:4;stroke-dasharray:none;paint-order:stroke fill markers"
       id="rect1511" />
  </g>
</svg>
