<?xml version="1.0" encoding="UTF-8" standalone="no"?>
<svg
   xmlns:dc="http://purl.org/dc/elements/1.1/"
   xmlns:cc="http://creativecommons.org/ns#"
   xmlns:rdf="http://www.w3.org/1999/02/22-rdf-syntax-ns#"
   xmlns:svg="http://www.w3.org/2000/svg"
   xmlns="http://www.w3.org/2000/svg"
   xmlns:xlink="http://www.w3.org/1999/xlink"
   xmlns:sodipodi="http://sodipodi.sourceforge.net/DTD/sodipodi-0.dtd"
   xmlns:inkscape="http://www.inkscape.org/namespaces/inkscape"
   width="40mm"
   height="40mm"
   viewBox="0 0 40 40"
   version="1.1"
   id="svg8"
   inkscape:version="1.0 (4035a4fb49, 2020-05-01)"
   sodipodi:docname="corner_pattern.svg">
  <defs
     id="defs2">
    <linearGradient
       id="linearGradient843"
       inkscape:collect="always">
      <stop
         id="stop839"
         offset="0"
         style="stop-color:#ecac31;stop-opacity:1;" />
      <stop
         id="stop841"
         offset="1"
         style="stop-color:#ff5226;stop-opacity:1" />
    </linearGradient>
    <linearGradient
       gradientUnits="userSpaceOnUse"
       y2="150.84335"
       x2="151.18164"
       y1="0.59081984"
       x1="0.71428519"
       id="linearGradient845"
       xlink:href="#linearGradient843"
       inkscape:collect="always" />
  </defs>
  <sodipodi:namedview
     id="base"
     pagecolor="#ffffff"
     bordercolor="#666666"
     borderopacity="1.0"
     inkscape:pageopacity="0.0"
     inkscape:pageshadow="2"
     inkscape:zoom="3.959798"
     inkscape:cx="68.020231"
     inkscape:cy="98.509032"
     inkscape:document-units="mm"
     inkscape:current-layer="layer1"
     inkscape:document-rotation="0"
     showgrid="false"
     inkscape:window-width="1397"
     inkscape:window-height="1040"
     inkscape:window-x="2128"
     inkscape:window-y="0"
     inkscape:window-maximized="0" />
  <metadata
     id="metadata5">
    <rdf:RDF>
      <cc:Work
         rdf:about="">
        <dc:format>image/svg+xml</dc:format>
        <dc:type
           rdf:resource="http://purl.org/dc/dcmitype/StillImage" />
        <dc:title />
      </cc:Work>
    </rdf:RDF>
  </metadata>
  <g
     inkscape:label="Vrstva 1"
     inkscape:groupmode="layer"
     id="layer1">
    <path
       id="rect863-8-1"
       style="fill:url(#linearGradient845);stroke:#e8e6c0;stroke-width:0;stroke-linecap:round;stroke-linejoin:bevel;stroke-miterlimit:4;stroke-dasharray:none;paint-order:stroke fill markers;fill-opacity:1"
       d="M 9.4492188 0 L 9.4492188 1.890625 L 9.4492188 9.4492188 L 1.890625 9.4492188 L 0 9.4492188 L 0 11.337891 L 0 94.488281 L 0 96.378906 L 0 103.9375 L 0 105.82617 L 11.337891 105.82617 L 11.337891 103.9375 L 11.337891 86.929688 L 20.787109 86.929688 L 20.787109 85.039062 L 20.787109 73.701172 L 30.236328 73.701172 L 30.236328 71.810547 L 30.236328 30.236328 L 73.701172 30.236328 L 73.701172 28.345703 L 73.701172 20.787109 L 86.929688 20.787109 L 86.929688 18.898438 L 86.929688 11.337891 L 105.82617 11.337891 L 105.82617 9.4492188 L 105.82617 1.890625 L 105.82617 0 L 103.9375 0 L 96.378906 0 L 94.488281 0 L 11.337891 0 L 9.4492188 0 z M 115.27539 0 L 115.27539 1.890625 L 115.27539 11.337891 L 117.16602 11.337891 L 141.73242 11.337891 L 141.73242 9.4492188 L 126.61328 9.4492188 L 126.61328 1.890625 L 151.18164 1.890625 L 151.18164 0 L 117.16602 0 L 115.27539 0 z M 11.337891 1.890625 L 94.488281 1.890625 L 94.488281 9.4492188 L 11.337891 9.4492188 L 11.337891 1.890625 z M 96.378906 1.890625 L 103.9375 1.890625 L 103.9375 9.4492188 L 96.378906 9.4492188 L 96.378906 1.890625 z M 117.16602 1.890625 L 124.72461 1.890625 L 124.72461 9.4492188 L 117.16602 9.4492188 L 117.16602 1.890625 z M 1.890625 11.337891 L 9.4492188 11.337891 L 9.4492188 18.898438 L 9.4492188 20.787109 L 9.4492188 85.039062 L 9.4492188 86.929688 L 9.4492188 94.488281 L 1.890625 94.488281 L 1.890625 11.337891 z M 11.337891 11.337891 L 18.898438 11.337891 L 18.898438 18.898438 L 11.337891 18.898438 L 11.337891 11.337891 z M 20.787109 11.337891 L 85.039062 11.337891 L 85.039062 18.898438 L 20.787109 18.898438 L 20.787109 11.337891 z M 11.337891 20.787109 L 18.898438 20.787109 L 18.898438 71.810547 L 18.898438 73.701172 L 18.898438 85.039062 L 11.337891 85.039062 L 11.337891 20.787109 z M 20.787109 20.787109 L 28.345703 20.787109 L 28.345703 28.345703 L 20.787109 28.345703 L 20.787109 20.787109 z M 30.236328 20.787109 L 71.810547 20.787109 L 71.810547 28.345703 L 30.236328 28.345703 L 30.236328 20.787109 z M 20.787109 30.236328 L 28.345703 30.236328 L 28.345703 71.810547 L 20.787109 71.810547 L 20.787109 30.236328 z M 1.890625 96.378906 L 9.4492188 96.378906 L 9.4492188 103.9375 L 1.890625 103.9375 L 1.890625 96.378906 z M 0 115.27539 L 0 117.16602 L 0 124.72461 L 0 126.61328 L 0 151.18164 L 1.890625 151.18164 L 1.890625 126.61328 L 9.4492188 126.61328 L 9.4492188 141.73242 L 11.337891 141.73242 L 11.337891 115.27539 L 0 115.27539 z M 1.890625 117.16602 L 9.4492188 117.16602 L 9.4492188 124.72461 L 1.890625 124.72461 L 1.890625 117.16602 z "
       transform="scale(0.26458333)" />
  </g>
</svg>
