<?xml version="1.0" encoding="UTF-8" standalone="no"?>
<svg
   xmlns:dc="http://purl.org/dc/elements/1.1/"
   xmlns:cc="http://creativecommons.org/ns#"
   xmlns:rdf="http://www.w3.org/1999/02/22-rdf-syntax-ns#"
   xmlns:svg="http://www.w3.org/2000/svg"
   xmlns="http://www.w3.org/2000/svg"
   xmlns:sodipodi="http://sodipodi.sourceforge.net/DTD/sodipodi-0.dtd"
   xmlns:inkscape="http://www.inkscape.org/namespaces/inkscape"
   sodipodi:docname="lantern.svg"
   inkscape:version="1.0 (4035a4fb49, 2020-05-01)"
   id="svg8"
   version="1.1"
   viewBox="0 0 40 70"
   height="70mm"
   width="40mm">
  <defs
     id="defs2" />
  <sodipodi:namedview
     inkscape:window-maximized="1"
     inkscape:window-y="-8"
     inkscape:window-x="1912"
     inkscape:window-height="1017"
     inkscape:window-width="1920"
     showgrid="false"
     inkscape:document-rotation="0"
     inkscape:current-layer="layer1"
     inkscape:document-units="mm"
     inkscape:cy="281.87224"
     inkscape:cx="228.04463"
     inkscape:zoom="1"
     inkscape:pageshadow="2"
     inkscape:pageopacity="0.0"
     borderopacity="1.0"
     bordercolor="#666666"
     pagecolor="#ffffff"
     id="base"
     showguides="false" />
  <metadata
     id="metadata5">
    <rdf:RDF>
      <cc:Work
         rdf:about="">
        <dc:format>image/svg+xml</dc:format>
        <dc:type
           rdf:resource="http://purl.org/dc/dcmitype/StillImage" />
        <dc:title></dc:title>
      </cc:Work>
    </rdf:RDF>
  </metadata>
  <g
     id="layer1"
     inkscape:groupmode="layer"
     inkscape:label="Vrstva 1">
    <rect
       y="4.2992662e-07"
       x="19.625"
       height="37.831078"
       width="0.74999917"
       id="rect833"
       style="fill:#ecac31;fill-opacity:1;stroke:#e8e6c0;stroke-width:0;stroke-linecap:round;stroke-linejoin:bevel;paint-order:stroke fill markers" />
    <path
       id="path889"
       style="fill:#ecac31;fill-opacity:1;stroke:#e8e6c0;stroke-width:0;stroke-linecap:round;stroke-linejoin:bevel;paint-order:stroke fill markers"
       inkscape:transform-center-x="0.00036572307"
       inkscape:transform-center-y="-0.16269754"
       d="m 20.000846,62.583491 -1.000972,0.976685 v 6.109187 h 0.500228 v -6.108671 h 0.250113 v 6.113838 h 0.499711 v -6.113838 l 0.250114,5.16e-4 v 6.125726 h 0.499712 v -6.125726 z" />
    <rect
       style="fill:#ecac31;fill-opacity:1;stroke:#e8e6c0;stroke-width:0;stroke-linecap:round;stroke-linejoin:bevel;paint-order:stroke fill markers"
       id="rect920"
       width="0.0083521726"
       height="0.10440215"
       x="20.287428"
       y="61.652252" />
    <path
       id="path939"
       style="fill:#ecac31;fill-opacity:1;stroke:#e8e6c0;stroke-width:0;stroke-linecap:round;stroke-linejoin:bevel;paint-order:stroke fill markers"
       inkscape:transform-center-x="0.022922792"
       inkscape:transform-center-y="-0.21919517"
       d="m 5.9794798,40.099594 -0.9792681,1.128611 0.760677,0.870231 -0.761194,0.877467 0.7627442,0.872299 -0.763261,0.879531 0.7617108,0.871265 -0.7622275,0.878501 0.7622275,0.871262 -0.7627442,0.879018 0.7617105,0.871265 -0.7622273,0.878498 0.7622273,0.871265 -0.762744,0.879018 0.7617105,0.871262 -0.7622272,0.878501 0.7622272,0.871265 -0.7627442,0.879015 0.9787517,1.119312 v 0.0021 h 0.00982 23.050272 0.0098 l 4.981091,-0.0021 0.969968,-1.119312 -0.754994,-0.878499 0.75551,-0.871781 -0.754991,-0.877983 0.755507,-0.87178 -0.754992,-0.878502 0.75551,-0.871781 -0.754994,-0.877982 0.75551,-0.871781 -0.754991,-0.878499 0.755507,-0.871781 -0.754991,-0.877983 0.75551,-0.871783 -0.75551,-0.879015 0.756026,-0.872815 -0.75396,-0.876948 0.754476,-0.87075 -0.969966,-1.128611 z m 0.2702679,0.49971 H 33.749877 v 1.247987 H 6.2497477 Z m 27.4996133,1.748213 v 1.249537 H 6.249231 v -1.24747 h 22.789824 0.0098 z M 6.2487142,44.098831 H 33.748845 v 1.250053 H 6.2487142 Z m 24.0445268,1.749764 h 3.455085 v 1.250053 H 6.2481973 v -1.249534 h 22.7898227 0.0098 z m -0.249598,1.750282 H 33.74781 V 48.84893 H 6.2476805 v -1.249537 h 22.7898245 0.0098 z m 0.248563,1.749764 h 3.455088 v 1.250053 H 6.2471638 v -1.249537 h 22.7898222 0.0098 z M 6.2466471,51.098921 H 29.03647 33.746778 v 1.250053 H 6.2466471 Z m 24.0445269,1.749763 h 3.455086 v 1.250053 H 6.2461303 v -1.249534 h 22.7898237 0.0098 z M 6.2456136,54.598966 h 22.7898214 0.0098 4.70049 v 1.250053 H 6.2456136 Z" />
    <rect
       style="fill:#ecac31;fill-opacity:1;stroke:#e8e6c0;stroke-width:0;stroke-linecap:round;stroke-linejoin:bevel;paint-order:stroke fill markers"
       id="rect833-2"
       width="0.74999982"
       height="7.0674992"
       x="19.625"
       y="56.202637" />
    <ellipse
       style="fill:#ecac31;fill-opacity:1;stroke:#e8e6c0;stroke-width:0;stroke-linecap:round;stroke-linejoin:bevel;paint-order:stroke fill markers"
       id="path922"
       cx="19.975"
       cy="59.299511"
       rx="0.8749994"
       ry="0.87499946" />
    <path
       id="path922-4"
       style="fill:#ecac31;fill-opacity:0;stroke:#ecac31;stroke-width:0.2;stroke-linecap:round;stroke-linejoin:bevel;stroke-miterlimit:4;stroke-dasharray:none;stroke-opacity:1;paint-order:stroke fill markers"
       d="m 18.799886,58.849352 a 0.49999966,0.4999996 0 0 0 -0.499711,0.500229 0.49999966,0.4999996 0 0 0 0.499711,0.499711 0.49999966,0.4999996 0 0 0 0.500228,-0.499711 0.49999966,0.4999996 0 0 0 -0.500228,-0.500229 z m 2.40037,0 a 0.49999966,0.49999958 0 0 0 -0.500228,0.500229 0.49999966,0.49999958 0 0 0 0.500228,0.499711 0.49999966,0.49999958 0 0 0 0.499711,-0.499711 0.49999966,0.49999958 0 0 0 -0.499711,-0.500229 z" />
    <path
       sodipodi:type="star"
       style="fill:#ecac31;fill-opacity:0;stroke:#ecac31;stroke-width:0.74356726;stroke-linecap:round;stroke-linejoin:bevel;stroke-miterlimit:4;stroke-dasharray:none;stroke-opacity:1;paint-order:stroke fill markers"
       id="path1212"
       sodipodi:sides="3"
       sodipodi:cx="16.53396"
       sodipodi:cy="26.683519"
       sodipodi:r1="2.6281006"
       sodipodi:r2="1.3140503"
       sodipodi:arg1="0.51142"
       sodipodi:arg2="1.5586175"
       inkscape:flatsided="true"
       inkscape:rounded="-1.42247e-16"
       inkscape:randomized="9.78384e-16"
       d="m 18.825797,27.969754 -4.551667,0.05544 2.227824,-3.969576 z"
       inkscape:transform-center-x="-0.016002921"
       inkscape:transform-center-y="-0.41874758"
       transform="matrix(1,0,0,0.65112142,3.513759,22.049263)" />
  </g>
</svg>
