<svg xmlns="http://www.w3.org/2000/svg" height="60" width="60"><path style="fill:#fff;fill-opacity:1;stroke:#4e4bff;stroke-width:0;stroke-linecap:round;stroke-linejoin:bevel;stroke-miterlimit:4;stroke-dasharray:none;paint-order:stroke fill markers" d="M29.752 0A30 30 0 0 0 0 30a30 30 0 0 0 30 30 30 30 0 0 0 30-30A30 30 0 0 0 30 0a30 30 0 0 0-.248 0zm22.725 13.774-.5 3.99-6.797 16.009-5.287 1.32-9.298 20.94-9.01-20.737-5.657-1.56-6.873-16.045-.86-3.85 23.23 3.701zm-38.946 3.493-.564 3.493 7.753 3.12 2.582 5.67-5.034-.073 1.839 2.84 4.025.216 6.156 16.6 6.423-16.582 4.03-.212 1.555-2.83-4.791.108 2.388-6.45 7.87-2.542-.563-3.295-11.075 3.53-5.823 18.488-4.728-17.542z"/></svg>