<svg width="40" height="40" viewBox="0 0 40 40" fill="none" xmlns="http://www.w3.org/2000/svg">
<g clip-path="url(#clip0_801_1605)">
<path d="M19.8347 0.000170703C14.5591 0.0437656 9.51437 2.17013 5.79931 5.91615C2.08425 9.66216 -0.000180503 14.7244 1.17236e-08 20.0002C-7.58244e-08 22.6266 0.517315 25.2273 1.52241 27.6538C2.5275 30.0804 4.00069 32.2851 5.85786 34.1423C7.71503 35.9995 9.91982 37.4727 12.3463 38.4778C14.7728 39.4829 17.3736 40.0002 20 40.0002C22.6264 40.0002 25.2272 39.4829 27.6537 38.4778C30.0802 37.4727 32.285 35.9995 34.1421 34.1423C35.9993 32.2851 37.4725 30.0804 38.4776 27.6538C39.4827 25.2273 40 22.6266 40 20.0002C40 17.3737 39.4827 14.773 38.4776 12.3465C37.4725 9.91999 35.9993 7.71521 34.1421 5.85803C32.285 4.00086 30.0802 2.52767 27.6537 1.52258C25.2272 0.517486 22.6264 0.000170616 20 0.000170703C19.9449 -5.69011e-05 19.8898 -5.69011e-05 19.8347 0.000170703V0.000170703ZM34.985 9.18286L34.6514 11.8421L30.1202 22.5152L26.5956 23.3956L20.3966 37.3559L14.39 23.5308L10.619 22.4912L6.03666 11.794L5.46274 9.22794L20.9495 11.6949L34.985 9.18286ZM9.02043 11.5116L8.64483 13.8403L13.8131 15.9196L15.5349 19.6997L12.1785 19.6516L13.4044 21.5446L16.0877 21.6889L20.1923 32.7556L24.4742 21.7009L27.1605 21.5597L28.1971 19.6726L25.003 19.7448L26.5956 15.4449L31.8419 13.7502L31.4663 11.5537L24.0835 13.9064L20.2013 26.2321L17.0493 14.5374L9.02043 11.5116Z" fill="#131313"/>
</g>
<defs>
<clipPath id="clip0_801_1605">
<rect width="40" height="40" fill="white"/>
</clipPath>
</defs>
</svg>
