<svg width="40" height="40" viewBox="0 0 40 40" fill="none" xmlns="http://www.w3.org/2000/svg">
<g clip-path="url(#clip0_801_1611)">
<path d="M19.9671 6.78427e-06C14.6684 0.00873598 9.58982 2.11973 5.84621 5.86951C2.10261 9.61929 -7.23942e-06 14.7014 0 20C1.7683e-07 25.3043 2.10714 30.3914 5.85787 34.1421C9.60859 37.8929 14.6957 40 20 40C25.3043 40 30.3914 37.8929 34.1421 34.1421C37.8929 30.3914 40 25.3043 40 20C40 17.3736 39.4827 14.7728 38.4776 12.3463C37.4725 9.91983 35.9993 7.71504 34.1421 5.85787C32.285 4.0007 30.0802 2.52751 27.6537 1.52242C25.2272 0.517322 22.6264 6.78427e-06 20 6.78427e-06C19.989 -2.26142e-06 19.978 -2.26142e-06 19.9671 6.78427e-06H19.9671ZM14.9672 4.80894C15.354 4.80894 18.9877 8.30306 18.7045 8.5873C18.6195 8.67219 17.9329 8.73269 17.0667 8.76682V9.07558C16.8304 11.5903 16.8685 16.848 16.81 19.3675H24.6478C24.6478 18.9231 24.6858 15.9749 24.5306 11.1996C24.5207 10.8684 24.6233 10.6946 24.9416 10.6918C26.0226 10.6839 27.1046 10.6791 28.1867 10.6858C28.5245 10.6879 28.6329 10.8539 28.6262 11.2113C28.2697 29.8918 28.5616 28.5881 28.5616 31.7521C29.428 31.7863 30.2043 31.8459 30.2894 31.9319C30.5707 32.2161 27.0061 35.7103 26.6194 35.7103C26.2325 35.7103 22.6242 32.2171 22.9085 31.9317C22.9933 31.847 23.5199 31.7874 24.6224 31.7531C24.6224 29.1918 24.68 25.055 24.7142 23.3234C24.7183 23.1262 24.6712 22.9885 24.6712 22.7521H16.8655C16.8655 23.4454 16.8208 26.2872 16.9995 29.8694C17.0218 30.3127 16.8452 30.4512 16.4389 30.4492C15.4495 30.4465 14.4593 30.4386 13.4691 30.4416C13.0688 30.4426 12.8959 30.2921 12.9086 29.845C12.9984 26.5794 13.1977 21.6399 12.894 9.07661V8.76683C11.9497 8.73269 11.2944 8.67318 11.2084 8.58731C10.9232 8.30209 14.5815 4.80895 14.9672 4.80895L14.9672 4.80894Z" fill="#131313"/>
</g>
<defs>
<clipPath id="clip0_801_1611">
<rect width="40" height="40" fill="white"/>
</clipPath>
</defs>
</svg>
