<svg xmlns="http://www.w3.org/2000/svg" height="60" width="60" xml:space="preserve"><path style="fill:#fff;fill-opacity:1;stroke:#4e4bff;stroke-width:0;stroke-linecap:round;stroke-linejoin:bevel;paint-order:stroke fill markers" d="M29.95 0A30 30 0 0 0 0 30a30 30 0 0 0 30 30 30 30 0 0 0 30-30A30 30 0 0 0 30 0a30 30 0 0 0-.05 0zm-7.5 7.213c.58 0 6.032 5.242 5.607 5.668-.128.127-1.158.218-2.457.27v.462c-.354 3.772-.297 11.659-.385 15.438h11.757c0-.666.057-5.089-.176-12.252-.015-.497.139-.757.616-.761 1.622-.012 3.245-.02 4.868-.01.507.004.67.253.66.789-.536 28.02-.098 26.065-.098 30.811 1.3.051 2.464.14 2.592.27.422.426-4.925 5.667-5.505 5.667-.58 0-5.993-5.24-5.566-5.667.127-.128.917-.217 2.57-.268 0-3.842.087-10.048.138-12.645.006-.296-.064-.502-.064-.857H25.298c0 1.04-.067 5.303.201 10.676.034.665-.231.873-.84.87-1.485-.004-2.97-.016-4.455-.012-.6.002-.86-.224-.841-.895.135-4.898.434-12.307-.022-31.152v-.465c-1.416-.051-2.4-.14-2.528-.27-.428-.427 5.06-5.667 5.638-5.667z"/></svg>