<svg width="43" height="43" viewBox="0 0 43 43" fill="none" xmlns="http://www.w3.org/2000/svg">
<path d="M21.967 2.00001C17 1.5 11.5898 4.11973 7.84618 7.86951C4.10258 11.6193 1.5 16.5 1.99997 22C3 27.5 4.10711 32.3914 7.85784 36.1421C11.6086 39.8929 17.1957 41.5 22.5 41.5C27.8043 41.5 32.3914 39.8929 36.1421 36.1421C39.8928 32.3914 42 27.3043 42 22C42 19.3736 41.4827 16.7729 40.4776 14.3463C39.4725 11.9198 37.9993 9.71505 36.1421 7.85788C34.2849 6.0007 32.0802 4.52752 29.6536 3.52242C27.2271 2.51733 25.6264 2.00001 23 2.00001C22.989 2 21.978 2 21.967 2.00001ZM16.5 7C16.8867 7 20.9877 10.3031 20.7045 10.5873C20.6195 10.6722 19.9329 10.7327 19.0667 10.7668V11.0756C18.8304 13.5903 18.8685 18.848 18.8099 21.3675L26.5305 21C26.5305 20.5555 26.6858 17.9749 26.5305 13.1996C26.5207 12.8684 26.6233 12.6946 26.9415 12.6918C28.0225 12.6839 29.1046 12.6791 30.1866 12.6858C30.5245 12.6879 30.6329 12.8539 30.6262 13.2113C30.2696 31.8918 30.5616 30.5881 30.5616 33.7521C31.4279 33.7863 32.2043 33.8459 32.2894 33.9319C32.5707 34.2162 28.3867 37.5 28 37.5C27.6132 37.5 24.6242 34.2171 24.9084 33.9317C24.9933 33.847 25.5199 33.7874 26.6224 33.7531C26.6224 31.1918 26.68 27.055 26.7141 25.3234C26.7183 25.1262 26.5 24.7364 26.5 24.5L18.8655 24.7521C19 26 18.8208 28.2872 18.9995 31.8694C19.0217 32.3127 18.8451 32.4512 18.4388 32.4492C17.4495 32.4465 16.4593 32.4386 15.4691 32.4416C15.0687 32.4426 14.8959 32.2921 14.9086 31.845C14.9984 28.5794 15.3037 25.0633 15 12.5L14.894 10.7668C13.9496 10.7327 13.2943 10.6732 13.2084 10.5873C12.9231 10.3021 16.1142 7 16.5 7Z" fill="#EAEAE1" stroke="black"/>
</svg>
