<svg xmlns="http://www.w3.org/2000/svg" xml:space="preserve" width="60" height="60"><path style="fill:#fff;fill-opacity:1" class="fill-007ab9" fill="#fff" clip-rule="evenodd" fill-rule="evenodd" d="M46.837 44.137V32.425c0-6.275-3.35-9.195-7.816-9.195-3.604 0-5.219 1.983-6.119 3.374V23.71h-6.79c.09 1.917 0 20.427 0 20.427h6.79V32.729c0-.609.044-1.219.224-1.655.49-1.22 1.607-2.483 3.482-2.483 2.458 0 3.44 1.873 3.44 4.618v10.929h6.789zM18.959 20.922c2.367 0 3.842-1.57 3.842-3.531-.044-2.003-1.475-3.528-3.797-3.528s-3.841 1.524-3.841 3.528c0 1.961 1.474 3.531 3.753 3.531zM30 60C13.432 60 0 46.568 0 30 0 13.431 13.432 0 30 0c16.568 0 30 13.431 30 30 0 16.568-13.432 30-30 30zm-7.646-15.863V23.71h-6.789v20.427z"/></svg>