<svg width="40" height="40" viewBox="0 0 40 40" fill="none" xmlns="http://www.w3.org/2000/svg">
<g clip-path="url(#clip0_801_1597)">
<path fill-rule="evenodd" clip-rule="evenodd" d="M31.2247 29.4247V21.6167C31.2247 17.4333 28.9913 15.4867 26.014 15.4867C23.6113 15.4867 22.5347 16.8087 21.9347 17.736V15.8067H17.408C17.468 17.0847 17.408 29.4247 17.408 29.4247H21.9347V21.8193C21.9347 21.4133 21.964 21.0067 22.084 20.716C22.4107 19.9027 23.1553 19.0607 24.4053 19.0607C26.044 19.0607 26.6987 20.3093 26.6987 22.1393V29.4253H31.2247V29.4247ZM12.6393 13.948C14.2173 13.948 15.2007 12.9013 15.2007 11.594C15.1713 10.2587 14.2173 9.242 12.6693 9.242C11.1213 9.242 10.1087 10.258 10.1087 11.594C10.1087 12.9013 11.0913 13.948 12.6107 13.948H12.6393ZM20 40C8.95467 40 0 31.0453 0 20C0 8.954 8.95467 0 20 0C31.0453 0 40 8.954 40 20C40 31.0453 31.0453 40 20 40ZM14.9027 29.4247V15.8067H10.3767V29.4247H14.9027Z" fill="#131313"/>
</g>
<defs>
<clipPath id="clip0_801_1597">
<rect width="40" height="40" fill="white"/>
</clipPath>
</defs>
</svg>
