<svg width="43" height="44" viewBox="0 0 43 44" fill="none" xmlns="http://www.w3.org/2000/svg">
<path d="M23.4347 19.5V20.4532L24.2189 19.9114C24.5551 19.6791 24.8265 19.4317 25.0869 19.1945C25.7795 18.5633 26.3939 18.0034 27.9437 17.987C29.6366 18.4841 30.804 19.0135 31.5625 19.8191C32.3113 20.6144 32.7247 21.7501 32.7247 23.6166V30.5448L29.2251 30.8736L29.4995 25.0234L29.5 25.0117V25C29.5 24.0153 29.2697 23.0386 28.7837 22.2912C28.2882 21.5292 27.5175 21 26.5 21C25.163 21 24.0587 21.4375 23.62 22.5296L23.584 22.6193V22.716C23.584 22.7941 23.5625 22.9032 23.5223 23.1073L23.5188 23.1253C23.4832 23.306 23.4385 23.5419 23.4349 23.7879L23.0035 27.4413L22.9967 27.4981L23.003 27.555L23.3762 30.9246H19.9103L19.9105 30.8942C19.912 30.5542 19.9141 30.0671 19.9164 29.4785C19.9211 28.3015 19.9267 26.7188 19.9305 25.096C19.9368 22.3599 19.938 19.4878 19.9195 18.2717L23.4347 18.0232V19.5ZM16.7184 13.462L16.7007 13.5268V13.594C16.7007 14.2371 16.6194 14.6619 16.3861 14.9394C16.168 15.1988 15.71 15.448 14.6393 15.448H14.6107C13.3559 15.448 12.6087 14.6137 12.6087 13.594C12.6087 12.4817 13.3884 11.5 14.6107 11.5C15.2256 11.5 15.8235 11.8016 16.2378 12.233C16.6663 12.6793 16.8029 13.1533 16.7184 13.462ZM12.9999 25.0096L13.0003 24.9912L12.9993 24.9728L12.6411 18.3888L16.4027 18.9329V30.9246H12.8864L12.9999 25.0096ZM1 22C1 33.3177 10.6722 42.9937 21.9889 43C33.556 43.5085 42 33.2587 42 22C42 10.7444 33.5505 0.468992 21.9556 1.50195C10.7721 2.49826 1 10.6265 1 22Z" fill="#EAEAE1" stroke="black"/>
</svg>
