<svg xmlns="http://www.w3.org/2000/svg" height="60" width="60" xml:space="preserve"><path d="M30.001 0C13.432 0 0 13.434 0 30.001 0 46.571 13.432 60 30.001 60 46.571 60 60 46.57 60 30.001 60 13.434 46.57 0 30.001 0zm15.112 23.952c.016.324.022.65.022.979 0 9.991-7.605 21.51-21.51 21.51a21.408 21.408 0 0 1-11.59-3.395c.592.07 1.192.105 1.803.105a15.168 15.168 0 0 0 9.39-3.236 7.57 7.57 0 0 1-7.062-5.252 7.383 7.383 0 0 0 1.422.135c.69 0 1.357-.09 1.992-.265a7.566 7.566 0 0 1-6.066-7.412v-.097a7.534 7.534 0 0 0 3.426.946 7.558 7.558 0 0 1-3.364-6.294c0-1.385.373-2.685 1.023-3.8a21.464 21.464 0 0 0 15.585 7.898 7.56 7.56 0 0 1 7.365-9.283 7.554 7.554 0 0 1 5.518 2.387 15.101 15.101 0 0 0 4.8-1.835 7.582 7.582 0 0 1-3.325 4.183 15.116 15.116 0 0 0 4.343-1.19 15.274 15.274 0 0 1-3.772 3.916z" fill="#fff" class="fill-000000" style="fill:#fff;fill-opacity:1;stroke-width:1.21833"/></svg>