<svg width="1708" height="1080" viewBox="0 0 1708 1080" fill="none" xmlns="http://www.w3.org/2000/svg">
<g filter="url(#filter0_d_630_155)">
<mask id="path-1-outside-1_630_155" maskUnits="userSpaceOnUse" x="-4" y="-4" width="1712" height="1086" fill="black">
<rect fill="white" x="-4" y="-4" width="1712" height="1086"/>
<path d="M0 0L17 6.5H35.5L42.5 18.5L60.5 27.5H79.5L86.5 40H100L117 52L126.5 64.5L142 70L140 87.5L152 104.5L167 114.5L175 131.5H194.5L211 145L229 150.5L237 169.5L256 166.5L276 178.5L272 194.5L276 212H296.5L305.5 227.5L320 235H338L353 250L369 244L387.5 250L401.5 260L406 273L428 270.5L432 283L447 288H464L480 301.5V315L494.5 326.5L511.5 336.5H532.5L537.5 347.5L551.5 356.5L563 369.5L576.5 365L579 388L568.5 394.5L570.5 421L584.5 437.5L608.5 432L617.5 456.5L634 459.5L653 476H669L684.5 480L694 501.5L708 513L721 505L737.5 521L762 528L767 521L784 528L786 544.5H800L812.5 560L821 553L827 566L841 572.5L848 583.5L860 600L856 609.5L864.5 626L882 621L900.5 628.5L907 647L916 637.5L923.5 662.5L937 679.5L951.5 684L970.5 679.5L986.5 687.5L995 706.5L1017.5 710V722L1035 731L1050.5 727L1062.5 741.5L1075.5 731L1090.5 738L1106 745.5L1129.5 741.5L1136.5 760.5L1159 774H1180L1189.5 765L1204.5 780.5H1221.5L1234 792H1245.5L1257 808L1266.5 794.5L1288 801.5L1301 812L1321 808L1328 823L1321 837L1337.5 841L1344.5 854L1362.5 849L1379.5 865.5L1393.5 856.5L1401 872.5L1419.5 865.5L1441 880.5L1458.5 886L1454.5 904.5L1466.5 912.5L1488.5 904.5L1510 916.5L1526 919L1540.5 932V942.5L1556 948L1565.5 963L1584.5 967.5L1581.5 984.5H1597.5L1608.5 998L1621 988.5L1636 995.5L1642.5 1003.5L1632 1016.5L1638 1034.5L1655.5 1051L1676.5 1047.5L1698 1061.5L1705 1080H810L798.5 1076.5L787.5 1062L791.5 1048L771.5 1040L787.5 1022L767 1014V997L755 972.5L732 966L706.5 972.5L698 957H680.5L683 938.5L669 933.5L661.5 919.5L635.5 911L627 896.5L613.5 906.5H594.5L586 883.5H568.5L551.5 869.5L529.5 856V840L508 836.5L511 817.5L499 802.5L483.5 807.5L461.5 794H444.5L428.5 778.5L442 769L444.5 754L426 735L428.5 707.5L411 693L393.5 697L388.5 684L397.5 662L393.5 644.5L379.5 634L400.5 625.5V609.5L383.5 600.5L375.5 586.5L388.5 572L373.5 560V541L358 528L343.5 510.5L350 494L337.5 487H322.5L310 476.5L298.5 463.5V448H284.5L270 432V414L245 407.5L227.5 411.5L211 398V382.5L198 369.5L208.5 356.5L204 342L192 339.5L180.5 321.5L169.5 309L175 293L169.5 278L177.5 265L158.5 257.5V244L143.5 238.5L154 221L136.5 212L123.5 200.5V178.5L110.5 174H92.5L86.5 155.5L70.5 150.5V131.5L54 125.5L45.5 110.5V92.5L31 77L35.5 64.5L24.5 52L21 36L7 27.5V15L0 0Z"/>
</mask>
<path d="M0 0L17 6.5H35.5L42.5 18.5L60.5 27.5H79.5L86.5 40H100L117 52L126.5 64.5L142 70L140 87.5L152 104.5L167 114.5L175 131.5H194.5L211 145L229 150.5L237 169.5L256 166.5L276 178.5L272 194.5L276 212H296.5L305.5 227.5L320 235H338L353 250L369 244L387.5 250L401.5 260L406 273L428 270.5L432 283L447 288H464L480 301.5V315L494.5 326.5L511.5 336.5H532.5L537.5 347.5L551.5 356.5L563 369.5L576.5 365L579 388L568.5 394.5L570.5 421L584.5 437.5L608.5 432L617.5 456.5L634 459.5L653 476H669L684.5 480L694 501.5L708 513L721 505L737.5 521L762 528L767 521L784 528L786 544.5H800L812.5 560L821 553L827 566L841 572.5L848 583.5L860 600L856 609.5L864.5 626L882 621L900.5 628.5L907 647L916 637.5L923.5 662.5L937 679.5L951.5 684L970.5 679.5L986.5 687.5L995 706.5L1017.5 710V722L1035 731L1050.5 727L1062.5 741.5L1075.5 731L1090.5 738L1106 745.5L1129.5 741.5L1136.5 760.5L1159 774H1180L1189.5 765L1204.5 780.5H1221.5L1234 792H1245.5L1257 808L1266.5 794.5L1288 801.5L1301 812L1321 808L1328 823L1321 837L1337.5 841L1344.5 854L1362.5 849L1379.5 865.5L1393.5 856.5L1401 872.5L1419.5 865.5L1441 880.5L1458.5 886L1454.5 904.5L1466.5 912.5L1488.5 904.5L1510 916.5L1526 919L1540.5 932V942.5L1556 948L1565.5 963L1584.5 967.5L1581.5 984.5H1597.5L1608.5 998L1621 988.5L1636 995.5L1642.5 1003.5L1632 1016.5L1638 1034.5L1655.5 1051L1676.5 1047.5L1698 1061.5L1705 1080H810L798.5 1076.5L787.5 1062L791.5 1048L771.5 1040L787.5 1022L767 1014V997L755 972.5L732 966L706.5 972.5L698 957H680.5L683 938.5L669 933.5L661.5 919.5L635.5 911L627 896.5L613.5 906.5H594.5L586 883.5H568.5L551.5 869.5L529.5 856V840L508 836.5L511 817.5L499 802.5L483.5 807.5L461.5 794H444.5L428.5 778.5L442 769L444.5 754L426 735L428.5 707.5L411 693L393.5 697L388.5 684L397.5 662L393.5 644.5L379.5 634L400.5 625.5V609.5L383.5 600.5L375.5 586.5L388.5 572L373.5 560V541L358 528L343.5 510.5L350 494L337.5 487H322.5L310 476.5L298.5 463.5V448H284.5L270 432V414L245 407.5L227.5 411.5L211 398V382.5L198 369.5L208.5 356.5L204 342L192 339.5L180.5 321.5L169.5 309L175 293L169.5 278L177.5 265L158.5 257.5V244L143.5 238.5L154 221L136.5 212L123.5 200.5V178.5L110.5 174H92.5L86.5 155.5L70.5 150.5V131.5L54 125.5L45.5 110.5V92.5L31 77L35.5 64.5L24.5 52L21 36L7 27.5V15L0 0Z" fill="#042617"/>
<path d="M0 0L17 6.5H35.5L42.5 18.5L60.5 27.5H79.5L86.5 40H100L117 52L126.5 64.5L142 70L140 87.5L152 104.5L167 114.5L175 131.5H194.5L211 145L229 150.5L237 169.5L256 166.5L276 178.5L272 194.5L276 212H296.5L305.5 227.5L320 235H338L353 250L369 244L387.5 250L401.5 260L406 273L428 270.5L432 283L447 288H464L480 301.5V315L494.5 326.5L511.5 336.5H532.5L537.5 347.5L551.5 356.5L563 369.5L576.5 365L579 388L568.5 394.5L570.5 421L584.5 437.5L608.5 432L617.5 456.5L634 459.5L653 476H669L684.5 480L694 501.5L708 513L721 505L737.5 521L762 528L767 521L784 528L786 544.5H800L812.5 560L821 553L827 566L841 572.5L848 583.5L860 600L856 609.5L864.5 626L882 621L900.5 628.5L907 647L916 637.5L923.5 662.5L937 679.5L951.5 684L970.5 679.5L986.5 687.5L995 706.5L1017.5 710V722L1035 731L1050.5 727L1062.5 741.5L1075.5 731L1090.5 738L1106 745.5L1129.5 741.5L1136.5 760.5L1159 774H1180L1189.5 765L1204.5 780.5H1221.5L1234 792H1245.5L1257 808L1266.5 794.5L1288 801.5L1301 812L1321 808L1328 823L1321 837L1337.5 841L1344.5 854L1362.5 849L1379.5 865.5L1393.5 856.5L1401 872.5L1419.5 865.5L1441 880.5L1458.5 886L1454.5 904.5L1466.5 912.5L1488.5 904.5L1510 916.5L1526 919L1540.5 932V942.5L1556 948L1565.5 963L1584.5 967.5L1581.5 984.5H1597.5L1608.5 998L1621 988.5L1636 995.5L1642.5 1003.5L1632 1016.5L1638 1034.5L1655.5 1051L1676.5 1047.5L1698 1061.5L1705 1080H810L798.5 1076.5L787.5 1062L791.5 1048L771.5 1040L787.5 1022L767 1014V997L755 972.5L732 966L706.5 972.5L698 957H680.5L683 938.5L669 933.5L661.5 919.5L635.5 911L627 896.5L613.5 906.5H594.5L586 883.5H568.5L551.5 869.5L529.5 856V840L508 836.5L511 817.5L499 802.5L483.5 807.5L461.5 794H444.5L428.5 778.5L442 769L444.5 754L426 735L428.5 707.5L411 693L393.5 697L388.5 684L397.5 662L393.5 644.5L379.5 634L400.5 625.5V609.5L383.5 600.5L375.5 586.5L388.5 572L373.5 560V541L358 528L343.5 510.5L350 494L337.5 487H322.5L310 476.5L298.5 463.5V448H284.5L270 432V414L245 407.5L227.5 411.5L211 398V382.5L198 369.5L208.5 356.5L204 342L192 339.5L180.5 321.5L169.5 309L175 293L169.5 278L177.5 265L158.5 257.5V244L143.5 238.5L154 221L136.5 212L123.5 200.5V178.5L110.5 174H92.5L86.5 155.5L70.5 150.5V131.5L54 125.5L45.5 110.5V92.5L31 77L35.5 64.5L24.5 52L21 36L7 27.5V15L0 0Z" stroke="black" stroke-width="4" mask="url(#path-1-outside-1_630_155)"/>
</g>
<defs>
<filter id="filter0_d_630_155" x="-16.9026" y="-3.6334" width="1724.8" height="1096.63" filterUnits="userSpaceOnUse" color-interpolation-filters="sRGB">
<feFlood flood-opacity="0" result="BackgroundImageFix"/>
<feColorMatrix in="SourceAlpha" type="matrix" values="0 0 0 0 0 0 0 0 0 0 0 0 0 0 0 0 0 0 127 0" result="hardAlpha"/>
<feOffset dx="-13" dy="11"/>
<feComposite in2="hardAlpha" operator="out"/>
<feColorMatrix type="matrix" values="0 0 0 0 1 0 0 0 0 1 0 0 0 0 1 0 0 0 1 0"/>
<feBlend mode="normal" in2="BackgroundImageFix" result="effect1_dropShadow_630_155"/>
<feBlend mode="normal" in="SourceGraphic" in2="effect1_dropShadow_630_155" result="shape"/>
</filter>
</defs>
</svg>
