<svg width="26" height="14" viewBox="0 0 26 14" fill="none" xmlns="http://www.w3.org/2000/svg">
<g clip-path="url(#clip0_629_117)">
<path d="M14.0547 12.3383C13.877 12.2815 13.8487 12.1757 13.748 12.0824C13.6473 11.9892 13.7377 9.7174 13.748 9.61905L13.9547 8.50681L12.5 8L10 8L7.5 7.5L4 7.05346L2.04134 7.05346C1.77758 7.02574 1.5357 6.8935 1.359 6.78065C1.1823 6.66779 1.13746 6.08646 1.15133 5.95459C1.16519 5.82271 1.32994 5.26306 1.52624 5.18941C1.72255 5.11576 1.98664 5.0367 2.25039 5.06442L5.5 5.5L9 5.5L11.5 6L14.1742 6.41832L14.5 4.5L14.55 2.83826C14.5602 2.73984 14.6286 2.64975 14.7465 2.57939C15.1 2.39294 14.9836 2.60431 15.2122 2.44301C15.5973 2.44517 15.6555 2.48974 15.7901 2.47514C15.9811 2.51465 16.4078 2.96275 16.5396 3.04699L19.5 5L22.5 6.5L24.7652 8.08082C24.8528 8.13672 24.9204 8.19927 24.9641 8.26489C25.0199 8.4632 24.9518 8.38142 25.0198 8.46327C25.0198 8.46327 24.99 8.49958 24.9336 8.55469C24.8772 8.60979 24.5676 8.87174 24.4703 8.9082L21 10.5L17.5 11.5L15.2704 12.3188C15.0493 12.4428 15.0031 12.2714 14.8082 12.2702C14.6132 12.2691 14.0547 12.3383 14.0547 12.3383Z" fill="black"/>
</g>
<defs>
<clipPath id="clip0_629_117">
<rect width="10.0001" height="24" fill="white" transform="translate(25.5425 3.49048) rotate(96)"/>
</clipPath>
</defs>
</svg>
