<svg xmlns="http://www.w3.org/2000/svg" viewBox="0 0 45 15" height="15mm" width="45mm"><path d="M4.675.3A3.169 3.169 0 0 0 1.5 3.476a3.169 3.169 0 0 0 3.175 3.177H15.63a.861.861 0 0 1 .137-.014h.064c.047 0 .092.007.137.014h.02v.002c.4.074.703.422.703.844s-.302.77-.702.843v.005h-.046c-.037.005-.073.011-.112.011h-.064c-.038 0-.075-.006-.112-.01h-5.4a3.169 3.169 0 0 0-3.175 3.176 3.169 3.169 0 0 0 3.175 3.176h30.07a3.169 3.169 0 0 0 3.175-3.176 3.169 3.169 0 0 0-3.175-3.177H29.633V8.34a.84.84 0 0 1-.823-.84c0-.461.365-.832.823-.842v-.004h4.31a3.169 3.169 0 0 0 3.175-3.177A3.169 3.169 0 0 0 33.943.3z" style="fill:#272d5e;fill-opacity:1;stroke:#e8e6c0;stroke-width:.6;stroke-linecap:round;stroke-linejoin:bevel;paint-order:stroke fill markers;stroke-miterlimit:4;stroke-dasharray:none;stroke-opacity:1"/></svg>