<svg xmlns="http://www.w3.org/2000/svg" viewBox="0 0 13 8.5" height="8.5mm" width="13mm"><path d="M2.686.142a2.5 2.5 0 0 0-2.47 2.5A2.5 2.5 0 0 0 .62 4.004a2.75 2.75 0 0 0-.526 1.617 2.75 2.75 0 0 0 2.75 2.75 2.75 2.75 0 0 0 2.278-1.21c1.355.692 3.938 1.174 7.893-1.463-.184.063-2.908.86-4.887-.043-.87.493-2 .462-2.674-.304-.563-.642-.597-1.715.116-2.34.503-.44 1.31-.5 1.755.018a.98.98 0 0 1 .216.782h1.222a2.25 2.25 0 0 0-2.25-2.25 2.25 2.25 0 0 0-1.374.469A2.5 2.5 0 0 0 2.715.142a2.5 2.5 0 0 0-.029 0zm4.855 3.67a.876.876 0 0 1-.297.538c-.287.246-.747.278-.997-.023a.127.133 45.9 0 1 .02-.183.127.133 45.9 0 1 .183.011c.15.18.445.16.631.002a.608.608 0 0 0 .2-.346.728.728 0 0 0-.156-.608c-.343-.4-.987-.35-1.39.002-.59.517-.561 1.424-.083 1.969.63.718 1.743.693 2.53.147a2.25 2.25 0 0 0 .581-1.51zM5.175 5.62a2.25 2.25 0 0 0 0 0h-2.33z" style="opacity:1;fill:#fff;fill-opacity:1;stroke:#fffffe;stroke-width:0;stroke-linecap:round;stroke-linejoin:bevel;stroke-miterlimit:4;stroke-dasharray:none;stroke-opacity:1;paint-order:stroke fill markers"/></svg>