<svg xmlns="http://www.w3.org/2000/svg" width="27.5mm" height="13.5mm" viewBox="0 0 27.5 13.5"><path style="opacity:1;fill:#fff;fill-opacity:1;stroke:#fe0000;stroke-width:0;stroke-linecap:round;stroke-linejoin:bevel;stroke-miterlimit:4;stroke-dasharray:none;stroke-opacity:1;paint-order:stroke fill markers" d="M13.889.189A4.75 4.75 0 0 0 9.17 4.522a5 5 0 0 0-4.006-2.008 5 5 0 0 0-5 5 5 5 0 0 0 5 5 5 5 0 0 0 2.17-.495c.84-.796 1.131-2.115.463-3.114-.555-.83-1.72-1.182-2.567-.61-.615.416-.873 1.283-.447 1.907.304.445.936.634 1.384.324.312-.216.441-.662.224-.972a.233.233 0 0 1 .058-.323.233.233 0 0 1 .324.058c.38.542.166 1.267-.342 1.618-.681.471-1.593.2-2.032-.443-.586-.857-.242-2.003.57-2.552 1.081-.73 2.526-.295 3.215.734.228.34.364.71.42 1.086.11.741-.094 1.507-.525 2.128a4 4 0 0 0 2.844 1.188 4 4 0 0 0 2.938-1.286 3.5 3.5 0 0 0 2.87 1.474 3.5 3.5 0 0 0 3.117-1.94c1.162.899 4.39 1.739 7.439-1.258 0 0-3.639 1.717-5.779-.553a4 4 0 0 0 .705-2.266 4 4 0 0 0-3.06-3.888c-.01 0-.018-.002-.027-.003-1.27-.048-2.523.876-2.565 2.186-.03.904.63 1.795 1.557 1.82.628.016 1.247-.443 1.26-1.082.008-.421-.3-.836-.722-.842-.268-.004-.53.194-.533.455a.233.233 0 0 1-.234.23.233.233 0 0 1-.232-.235c.004-.55.503-.922 1.005-.915.71.01 1.195.66 1.182 1.316-.02.927-.876 1.561-1.74 1.538-1.214-.032-2.045-1.16-2.008-2.3a2.52 2.52 0 0 1 .286-1.093c.37-.709 1.062-1.22 1.843-1.433A4.75 4.75 0 0 0 13.903.19a4.75 4.75 0 0 0-.014 0z"/></svg>