<svg xmlns="http://www.w3.org/2000/svg" viewBox="0 0 45 22" height="22mm" width="45mm"><path d="M14.912.8a3.04 3.04 0 0 0-3.046 3.047 3.037 3.037 0 0 0 2.85 3.037v.003c.35.057.63.3.64.585v.001a.587.587 0 0 1-.59.588H4.646A3.04 3.04 0 0 0 1.6 11.108a3.04 3.04 0 0 0 3.045 3.047h6.242v.002a.475.475 0 0 1-.013.951c-1.066-.004-2.137-.002-3.204-.002a3.04 3.04 0 0 0-3.046 3.047A3.04 3.04 0 0 0 7.67 21.2h14.424a3.04 3.04 0 0 0 3.046-3.047 3.04 3.04 0 0 0-3.046-3.047c-1.648.003-3.297-.006-4.944.002a.475.475 0 0 1-.476-.476v0c0-.264.212-.477.476-.477h10.898a3.04 3.04 0 0 0 3.046-3.047 3.04 3.04 0 0 0-3.046-3.047h-3.431V8.06a.58.58 0 0 1-.58-.581v0a.58.58 0 0 1 .58-.582c4.906-.005 9.826-.003 14.737-.003A3.04 3.04 0 0 0 42.4 3.847 3.04 3.04 0 0 0 39.354.8z" style="fill:#272d5e;stroke:#e8e6c0;stroke-width:.6;stroke-linecap:round;stroke-linejoin:bevel;stroke-miterlimit:4;stroke-dasharray:none;paint-order:stroke fill markers"/></svg>