<svg xmlns="http://www.w3.org/2000/svg" viewBox="0 0 64 23" height="23mm" width="64mm"><path d="M3.99.8A3.08 3.08 0 0 0 .9 3.886a3.08 3.08 0 0 0 3.09 3.086h20.493c.007 0 .013-.003.02-.003h.059c.452 0 .816.364.816.816v.062a.814.814 0 0 1-.816.815h-.058c-2.29-.013-4.595-.006-6.89-.006a3.08 3.08 0 0 0-3.088 3.086 3.08 3.08 0 0 0 3.089 3.086H44.03v0l.016-.001h.045c.32 0 .578.257.578.578v.044c0 .32-.258.578-.578.578h-.045c-2.277.003-4.593.002-6.545.002a3.08 3.08 0 0 0-3.09 3.085 3.08 3.08 0 0 0 3.09 3.086h22.509a3.08 3.08 0 0 0 3.089-3.086 3.08 3.08 0 0 0-3.09-3.085h-7.564v-.001h-.045a.577.577 0 0 1-.578-.578v-.044c0-.32.258-.578.578-.578h3.352a3.08 3.08 0 0 0 3.089-3.086 3.08 3.08 0 0 0-3.09-3.086c-6.081.047-12.178-.068-18.253.007h-.059a.813.813 0 0 1-.816-.814v-.063c0-.452.364-.815.816-.815h5.121a3.08 3.08 0 0 0 3.09-3.085A3.08 3.08 0 0 0 42.56.8z" style="fill:#272d5e;fill-opacity:1;stroke:#e8e6c0;stroke-width:.6;stroke-linecap:round;stroke-linejoin:bevel;stroke-miterlimit:4;stroke-dasharray:none;paint-order:stroke fill markers"/></svg>