<svg xmlns="http://www.w3.org/2000/svg" viewBox="0 0 31 13" height="13mm" width="31mm"><g style="opacity:1;fill:#feffff;fill-opacity:1"><path transform="matrix(.26458 0 0 .26458 -48.39 -4.034)" d="M241.107 15.45c-8.255.006-15.24 5.932-16.7 13.952.34.153.672.32.995.504 4.445 2.529 6.656 8.1 3.782 12.436-2.044 3.082-6.551 4.603-10.06 2.556-1.24-.722-2.165-1.871-2.575-3.144-.41-1.273-.304-2.673.527-3.893 1.166-1.712 3.703-2.555 5.678-1.37 1.38.826 2.068 2.607 1.1 3.988a.542.504 1.713 0 1-.752.144.542.504 1.713 0 1-.157-.695c.6-.856.143-2.038-.777-2.59-1.408-.845-3.3-.215-4.174 1.068-1.303 1.915-.31 4.465 1.703 5.639 2.943 1.716 6.81.417 8.565-2.23 2.525-3.81.551-8.795-3.422-11.055-.196-.112-.402-.208-.606-.307 0 .007-.003.013-.004.02a15.118 15.118 0 0 0-20.464 10.49c-1.276.286-4.715.132-8.813.664-4.793.578-7.332.324-11.662 5.012 3.095-.984 12.793-4.191 20.963 2.945a15.118 15.118 0 0 0 22.379 7.596 12.278 12.278 0 0 0 7.908 6.89c2.089.335 4.238.258 6.223-.29 5.45-1.508 8.954-6.585 6.855-11.43-1.586-3.66-6.356-6.157-10.695-4.928-3.248.92-5.332 3.961-4.059 6.838.943 2.13 3.733 3.584 6.242 2.855 1.835-.532 3.013-2.264 2.284-3.875a.681.576 7.943 0 1 .376-.73.681.576 7.943 0 1 .885.36c1.03 2.273-.565 4.623-3.052 5.345-3.275.95-6.81-.889-8.004-3.586-1.566-3.539.94-7.201 4.845-8.307 5.104-1.445 10.612 1.441 12.446 5.672 1.193 2.753.808 5.553-.639 7.875-.009.015-.02.029-.03.043a12.269 12.269 0 0 0 9.11 4.07c6.784 0 12.283-5.499 12.283-12.283-2.959.002-2.124-.003 0-.002 0-.17-.014-.34-.021-.511-1.558.29-3.16.229-4.635-.188-2.286-.646-4.275-2.125-5.344-4.39-1.641-3.48-.354-8.05 3.442-9.815 2.903-1.35 6.629-.452 7.984 2.476 1.033 2.232.206 5.158-2.244 6.276a.511.532 66.394 0 1-.701-.248.511.532 66.394 0 1 .273-.684c1.865-.851 2.518-3.148 1.707-4.9-1.096-2.369-4.182-3.116-6.586-1.998-3.214 1.494-4.324 5.436-2.908 8.437 1.8 3.815 6.634 5.099 10.574 3.518a13.692 13.692 0 0 0 4.563-5.836c7.017-11.847 8.254-3.881 23.552-8.277-5.308 1.031-10.954-6.097-16.826-3.932-4.44 1.22-6.344.788-7.662-.022a13.7 13.7 0 0 0-17.783-5.251 17.008 17.008 0 0 0-15.877-10.903z" style="opacity:1;fill:#feffff;fill-opacity:1;stroke:#fff;stroke-width:0;stroke-linecap:round;stroke-linejoin:bevel;stroke-miterlimit:4;stroke-dasharray:none;stroke-opacity:1;paint-order:stroke fill markers"/></g></svg>