<svg width="43" height="44" viewBox="0 0 43 44" fill="none" xmlns="http://www.w3.org/2000/svg">
<path d="M8 13.3893V11.5711L14.9339 12.4956L14.9339 12.4957L14.9416 12.4966L23.4416 13.4966L23.5733 13.4946L36.5 11.5795V13.9017L32.1292 24.5859L28.8626 25.5192L28.546 25.7905L25.5529 32.2755L22.215 38.4119L19.4545 32.7912L16.4596 25.803L16.2038 25.5434L12.9934 24.1107L8 13.3893ZM11.6866 13.0361L11.0304 13.3284L10.1753 15.6687L10.4225 16.2881L15.6236 18.8713L16.735 21.1882L14.1857 21.1516L13.7589 21.9234L14.9848 23.8164L15.3317 24.0393L18.126 24.4503L21.7195 34.9179L22.6586 34.9361L26.8004 24.243L28.9412 24.4965L29.4446 24.2287L30.6418 21.9013L30.2241 21.1733L27.7191 21.0381L28.9743 17.848L33.9957 16.2259L34.3349 15.6659L33.9592 13.4694L33.3146 13.0772L25.9318 15.43L25.6042 15.7643L22.4962 26.2529L19.5281 16.3933L19.236 16.0735L11.6866 13.0361ZM21.8348 1.50015C15.7429 1.50015 10.7705 3.04091 7.41826 7.59039C3.65349 11.3968 0.999814 16.3131 1 21.7448C1 24.4798 2.05486 27.4173 3.06053 29.8452C4.09075 32.3323 5.60077 34.5922 7.50437 36.4958C9.40797 38.3994 11.6679 39.9095 14.155 40.9397C16.5888 41.9478 19.6645 43 22.3967 43C24.916 43 27.0643 42.1016 29.2502 41.1876C29.4481 41.1049 29.6463 41.022 29.8451 40.9397C32.3322 39.9095 34.5921 38.3994 36.4957 36.4958C38.3993 34.5922 39.9094 32.3323 40.9396 29.8452C41.9834 27.3252 42.2084 24.3883 42.2084 21.7447C42.2084 19.0892 41.9808 16.6688 40.9396 14.1551C39.9094 11.668 38.3993 9.40806 36.4957 7.50446C34.5921 5.60086 32.3322 4.09084 29.8451 3.06062C29.4178 2.88364 29.0329 2.70829 28.6572 2.53709C28.507 2.46867 28.3583 2.40092 28.2089 2.334C27.6926 2.10267 27.1792 1.88643 26.6245 1.71828C25.5062 1.37933 24.2591 1.24763 22.4654 1.49988C22.4534 1.49987 22.4365 1.49989 22.4067 1.49991C22.3336 1.49996 22.1826 1.50007 21.8348 1.50015Z" fill="#EAEAE1" stroke="black" stroke-linecap="round" stroke-linejoin="bevel"/>
</svg>
