<svg xmlns="http://www.w3.org/2000/svg" preserveAspectRatio="xMinYMin meet" viewBox="0 0 6.144 6.144" height="60" width="60"><path style="fill:#fff;fill-opacity:1;stroke:#4e4bff;stroke-width:0;stroke-linecap:round;stroke-linejoin:bevel;paint-order:stroke fill markers" d="M3.072 0A3.072 3.072 0 0 0 0 3.072a3.072 3.072 0 0 0 3.072 3.072 3.072 3.072 0 0 0 3.072-3.072A3.072 3.072 0 0 0 3.072 0zm-.003.614a.211.211 0 0 1 .12.036l2.246 1.498.004.002.01.007a.174.174 0 0 1 .011.01.316.316 0 0 1 .009.009.214.214 0 0 1 .01.011.212.212 0 0 1 .017.022l.006.01a.187.187 0 0 1 .007.014l.004.01a.211.211 0 0 1 .006.015l.003.01.004.018h0l.002.01.002.027v1.498l-.002.027-.002.01-.004.017c0 .004-.002.007-.003.01a.232.232 0 0 1-.005.016l-.005.01a.204.204 0 0 1-.007.014l-.006.01a.199.199 0 0 1-.01.013.19.19 0 0 1-.017.02l-.008.009a.263.263 0 0 1-.012.01l-.01.007-.003.002-2.247 1.498a.212.212 0 0 1-.117.036.208.208 0 0 1-.117-.036L.709 3.996l-.003-.003-.01-.007-.011-.01C.68 3.974.679 3.97.676 3.968l-.01-.012C.662 3.953.66 3.951.657 3.947a.153.153 0 0 1-.022-.036L.63 3.9l-.005-.015a.138.138 0 0 1-.004-.01l-.004-.019-.002-.009a.192.192 0 0 1-.002-.027V2.323l.002-.028.002-.009a.214.214 0 0 1 .004-.018l.003-.01a.213.213 0 0 1 .005-.015l.005-.01a.184.184 0 0 1 .007-.014l.006-.01a.192.192 0 0 1 .027-.033.165.165 0 0 1 .008-.009.298.298 0 0 1 .012-.01l.01-.007.003-.003L2.955.65a.211.211 0 0 1 .114-.036zm-.208.606L1.206 2.323l.74.495.915-.613zm.422 0v.986l.916.612.739-.495zm-.211 1.352-.747.5.747.5.747-.5zm-2.035.147v.706l.528-.353zm4.07 0-.528.353.528.353zm-3.162.607-.739.495 1.655 1.103v-.985l-.916-.613zm2.254 0-.916.613v.985L4.938 3.82z"/></svg>