<svg xmlns="http://www.w3.org/2000/svg" xmlns:xlink="http://www.w3.org/1999/xlink" width="40mm" height="40mm" viewBox="0 0 40 40"><defs><linearGradient id="a"><stop offset="0" style="stop-color:#ecac31;stop-opacity:1"/><stop offset="1" style="stop-color:#ff5226;stop-opacity:1"/></linearGradient><linearGradient gradientUnits="userSpaceOnUse" y2="150.843" x2="151.182" y1=".591" x1=".714" id="b" xlink:href="#a"/></defs><path style="fill:url(#b);stroke:#e8e6c0;stroke-width:0;stroke-linecap:round;stroke-linejoin:bevel;stroke-miterlimit:4;stroke-dasharray:none;paint-order:stroke fill markers;fill-opacity:1" d="M9.45 0v9.45H0V105.825h11.338V86.93h9.45V73.7h9.448V30.236h43.465v-9.449H86.93v-9.449h18.896V0H9.45zm105.825 0V11.338h26.457V9.449h-15.119V1.891h24.569V0h-35.906zM11.338 1.89h83.15v7.56h-83.15V1.89zm85.04 0h7.56v7.56h-7.56V1.89zm20.788 0h7.559v7.56h-7.559V1.89zM1.891 11.339h7.558V94.489H1.891V11.337zm9.447 0h7.56v7.56h-7.56v-7.56zm9.45 0h64.251v7.56H20.787v-7.56zm-9.45 9.45h7.56v64.251h-7.56V20.787zm9.45 0h7.558v7.558h-7.559v-7.559zm9.448 0h41.575v7.558H30.236v-7.559zm-9.449 9.448h7.559v41.575h-7.559V30.236zM1.891 96.38h7.558v7.558H1.891V96.38zM0 115.275v35.907h1.89v-24.569h7.56v15.12h1.888v-26.458H0zm1.89 1.891h7.56v7.559H1.89v-7.559z" transform="scale(.26458)"/></svg>