<svg width="43" height="43" viewBox="0 0 43 43" fill="none" xmlns="http://www.w3.org/2000/svg">
<path d="M31.2853 28.9706L29.4965 29L10.6087 28.9528L16.5469 22.6778L21.1877 26.3904L21.4901 26.6324L21.8 26.4L25.4684 23.6487L31.2853 28.9706ZM26.6809 18.6151L26.6545 18.6369L26.6314 18.6621L21.4553 24.3088L9.94992 14.6218V13.0266L21 12.5006L31.9236 13.0206L31.5524 14.5761L26.6809 18.6151ZM1 21C1 32.2651 9.99099 42.5029 21.0453 41.498C32.2272 40.4814 42 32.3738 42 21C42 9.66566 32.2585 0.487736 20.9772 1.00053C9.98799 1.50005 1 9.65383 1 21ZM9.94992 17.4149L15.2417 21.5427L9.94992 26.7242V17.4149ZM32.0499 26.7885L26.7571 22.0099L32.0499 17.4773V26.7885Z" fill="#EAEAE1" stroke="black"/>
</svg>
