<svg width="40" height="40" viewBox="0 0 40 40" fill="none" xmlns="http://www.w3.org/2000/svg">
<g clip-path="url(#clip0_801_1607)">
<path fill-rule="evenodd" clip-rule="evenodd" d="M20 40C8.9543 40 0 31.0457 0 20C0 8.9543 8.9543 0 20 0C31.0457 0 40 8.9543 40 20C40 31.0457 31.0457 40 20 40ZM8.44992 26.9135L14.9468 20.768L8.44992 15.3908V26.9135ZM31.5499 11.5498H8.44992V13.8545L19.9999 23.8408L31.5499 13.8545V11.5498ZM31.5499 15.3908L25.053 20.768L31.5499 26.9135V15.3908ZM24.3312 21.5362L19.9999 25.3771L15.6687 21.5362L8.44992 28.4498H31.5499L24.3312 21.5362Z" fill="#131313"/>
</g>
<defs>
<clipPath id="clip0_801_1607">
<rect width="40" height="40" fill="white"/>
</clipPath>
</defs>
</svg>
