<svg width="44" height="44" viewBox="0 0 44 44" fill="none" xmlns="http://www.w3.org/2000/svg">
<path d="M14.4718 42.4216L14.527 42.4467L14.5865 42.4578C15.2041 42.5736 15.7198 42.4469 16.0788 42.1101C16.4209 41.7891 16.5448 41.3476 16.5448 40.9753C16.5448 40.9103 16.5625 40.7868 16.6073 40.5651C16.622 40.4921 16.64 40.4069 16.6597 40.3135C16.6929 40.1561 16.731 39.9756 16.7667 39.7915C16.8848 39.1817 17.0048 38.4001 17.0001 37.4974L16.9969 36.8769L16.3912 37.012C13.7506 37.6012 12.0962 36.9399 11.1057 36.1848C10.6019 35.8006 10.2558 35.3811 10.0366 35.0592C9.92722 34.8986 9.85028 34.7635 9.8018 34.6712C9.77758 34.6251 9.76056 34.5898 9.75021 34.5676C9.74536 34.5572 9.74199 34.5496 9.74003 34.5452C9.26826 33.322 8.69339 32.3566 8.23473 31.6948C8.00464 31.3628 7.80316 31.1063 7.65755 30.9311C7.58472 30.8435 7.5258 30.7761 7.48417 30.7297C7.46336 30.7064 7.44686 30.6884 7.4351 30.6758L7.42106 30.6608L7.41681 30.6563L7.41539 30.6548L7.41486 30.6542L7.41464 30.654C7.41454 30.6539 7.41445 30.6538 7.05369 31L7.41445 30.6538L7.38107 30.619L7.34165 30.5913C7.31156 30.5701 7.28272 30.5494 7.2551 30.5294C7.96035 30.6621 8.56311 31.1454 9.02746 31.681C9.27912 31.9713 9.47455 32.2593 9.60703 32.4752C9.67298 32.5827 9.72261 32.6711 9.75513 32.7314C9.77137 32.7615 9.78329 32.7845 9.7908 32.7992L9.79873 32.815L9.79994 32.8174L9.80007 32.8177L9.80016 32.8179L9.80018 32.8179L9.80028 32.8181L9.80731 32.8327L9.81569 32.8474C10.7895 34.5564 12.1042 35.2079 13.356 35.3233C14.5715 35.4354 15.6747 35.0388 16.2809 34.7594L16.5716 34.6254V34.3053C16.5716 33.6939 16.6557 33.0385 16.8045 32.4835C16.96 31.9035 17.1616 31.5258 17.3327 31.3734L18.1645 30.6325L17.0581 30.5034C14.8657 30.2475 12.996 29.762 11.5738 28.4872C10.1597 27.2196 9.10668 25.0957 8.72971 21.3792L8.72486 21.3314L8.711 21.2853C8.39239 20.228 8.60127 19.3693 9.04722 18.5871C9.42711 17.9207 9.96067 17.3359 10.5068 16.7373C10.6288 16.6036 10.7513 16.4693 10.8729 16.3332L11.0788 16.1029L10.9649 15.8157C10.9611 15.8061 10.957 15.7958 10.9527 15.785C10.7452 15.2639 9.99694 13.3851 10.8635 10.9121C10.9038 10.9034 10.95 10.8945 11.0015 10.8862C11.2418 10.8477 11.5998 10.8218 12.0461 10.883C12.9297 11.0039 14.2037 11.4717 15.622 12.9455L15.8303 13.162L16.1193 13.0796C17.6696 12.6379 19.3294 12.42 20.9938 12.4112L21.0594 12.4109L21.1227 12.3937C21.7685 12.2177 22.5324 12.2602 23.3676 12.421C24.0407 12.5506 24.7181 12.7476 25.3833 12.9411C25.544 12.9878 25.704 13.0343 25.8631 13.0796L26.0907 13.1445L26.2852 13.0096C28.1558 11.7114 29.4683 11.2199 30.2841 11.0439C30.6752 10.9595 30.953 10.9475 31.1254 10.9539C32.0097 13.4803 31.393 15.3159 31.2228 15.745L31.1132 16.0216L31.3039 16.2499C31.9582 17.0329 32.629 17.8884 33.0778 18.7714C33.5266 19.6544 33.7231 20.5053 33.5161 21.3042L33.5001 21.3659V21.4296C33.5001 25.2531 32.3079 27.499 30.6558 28.865C28.9784 30.2519 26.7496 30.7982 24.5505 31.0494L23.4376 31.1766L24.2754 31.9202C24.9654 32.5326 25.9323 33.6617 25.4843 35.2014L25.4644 35.2698V35.3411C25.4644 36.6843 25.3506 37.904 25.2357 38.8763C25.1968 39.206 25.1582 39.5032 25.1236 39.7698C25.1069 39.8987 25.0911 40.0205 25.0766 40.1354C25.0341 40.4724 25.0001 40.7703 25.0001 40.9753C25.0001 41.24 25.1107 41.5073 25.2379 41.7247C25.3726 41.9548 25.5598 42.1869 25.7822 42.3889C26.2126 42.7801 26.8689 43.1374 27.599 42.9901L27.6103 42.9879L27.6214 42.9851C35.8688 40.9232 42.4949 31.7705 42.5001 22.5209C42.7536 16.6047 40.1027 11.0978 36.0415 7.20289C31.9798 3.30743 26.4669 0.986308 20.9535 1.50219C10.0458 2.52281 1.00012 10.8857 1.00012 22.51C1.00012 31.8037 6.70216 38.8894 14.4718 42.4216Z" fill="#EAEAE1" stroke="black"/>
</svg>
