<svg width="87" height="87" viewBox="0 0 87 87" fill="none" xmlns="http://www.w3.org/2000/svg">
<path d="M42.7965 8.32402C38.0908 8.32402 33.4311 9.25088 29.0836 11.0517C24.7361 12.8525 20.7859 15.4919 17.4585 18.8194C10.7384 25.5394 6.96313 34.6538 6.96313 44.1574C6.96313 59.9957 17.2473 73.4332 31.4731 78.199C33.2648 78.4857 33.8381 77.3749 33.8381 76.4074V70.3515C23.9123 72.5015 21.7981 65.5498 21.7981 65.5498C20.1498 61.3932 17.8206 60.2824 17.8206 60.2824C14.5598 58.0607 18.0715 58.1324 18.0715 58.1324C21.6548 58.3832 23.554 61.8232 23.554 61.8232C26.6715 67.2699 31.939 65.6574 33.9815 64.7974C34.304 62.4682 35.2356 60.8915 36.239 59.9957C28.284 59.0999 19.9348 56.0182 19.9348 42.3657C19.9348 38.3882 21.2965 35.199 23.6256 32.6549C23.2673 31.759 22.0131 28.0324 23.984 23.1949C23.984 23.1949 26.994 22.2274 33.8381 26.8499C36.669 26.0615 39.7506 25.6674 42.7965 25.6674C45.8423 25.6674 48.924 26.0615 51.7548 26.8499C58.599 22.2274 61.609 23.1949 61.609 23.1949C63.5798 28.0324 62.3256 31.759 61.9673 32.6549C64.2965 35.199 65.6581 38.3882 65.6581 42.3657C65.6581 56.054 57.2731 59.064 49.2823 59.9599C50.5723 61.0707 51.7548 63.2565 51.7548 66.589V76.4074C51.7548 77.3749 52.3281 78.5215 54.1556 78.199C68.3815 73.3974 78.6298 59.9957 78.6298 44.1574C78.6298 39.4517 77.7029 34.792 75.9022 30.4445C74.1014 26.097 71.4619 22.1468 68.1345 18.8194C64.807 15.4919 60.8568 12.8525 56.5093 11.0517C52.1618 9.25088 47.5022 8.32402 42.7965 8.32402Z" fill="black"/>
</svg>
