<svg xmlns="http://www.w3.org/2000/svg" height="60" width="60" xml:space="preserve"><path d="M30 0C13.433 0 0 13.769 0 30.765 0 44.359 8.598 55.878 20.518 59.95c1.5.28 2.049-.67 2.049-1.487 0-.737-.027-2.665-.04-5.237-8.344 1.862-10.112-4.125-10.112-4.125-1.366-3.55-3.335-4.5-3.335-4.5-2.718-1.916.201-1.876.201-1.876 3.014.215 4.594 3.175 4.594 3.175 2.679 4.7 7.018 3.348 8.732 2.558.268-1.982 1.045-3.348 1.902-4.112-6.656-.777-13.66-3.415-13.66-15.202 0-3.361 1.164-6.107 3.08-8.25-.308-.777-1.34-3.911.294-8.143 0 0 2.518-.83 8.25 3.147 2.398-.683 4.956-1.018 7.514-1.031 2.544.013 5.116.348 7.513 1.031 5.732-3.978 8.237-3.147 8.237-3.147 1.634 4.232.602 7.366.294 8.143 1.915 2.156 3.08 4.902 3.08 8.25 0 11.814-7.017 14.412-13.7 15.175 1.071.951 2.035 2.826 2.035 5.693 0 4.111-.04 7.433-.04 8.438 0 .817.536 1.78 2.063 1.473C51.415 55.865 60 44.346 60 30.765 60 13.769 46.567 0 30 0z" fill-rule="evenodd" clip-rule="evenodd" fill="#fff" class="fill-000000" style="fill:#fffffe;fill-opacity:1;stroke-width:.133932"/></svg>