<svg width="72" height="140" viewBox="0 0 72 140" fill="none" xmlns="http://www.w3.org/2000/svg">
<ellipse cx="4.2788" cy="62.0597" rx="3.44652" ry="3.44652" fill="black"/>
<ellipse cx="4.2788" cy="70.3312" rx="3.44652" ry="3.44652" fill="black"/>
<ellipse cx="4.27929" cy="78.6043" rx="3.44652" ry="3.44652" fill="black"/>
<ellipse cx="4.27978" cy="86.8753" rx="3.44652" ry="3.44652" fill="black"/>
<ellipse cx="4.27953" cy="95.1462" rx="3.44652" ry="3.44652" fill="black"/>
<ellipse cx="4.2788" cy="103.418" rx="3.44652" ry="3.44652" fill="black"/>
<ellipse cx="12.2068" cy="61.7156" rx="3.10187" ry="3.10187" fill="black"/>
<ellipse cx="12.2064" cy="69.9868" rx="3.10187" ry="3.10187" fill="black"/>
<ellipse cx="12.2064" cy="78.2594" rx="3.10187" ry="3.10187" fill="black"/>
<ellipse cx="12.2061" cy="86.5305" rx="3.10187" ry="3.10187" fill="black"/>
<ellipse cx="12.2059" cy="94.8013" rx="3.10187" ry="3.10187" fill="black"/>
<ellipse cx="12.2066" cy="103.074" rx="3.10187" ry="3.10187" fill="black"/>
<ellipse cx="20.1327" cy="61.3711" rx="2.75722" ry="2.75722" fill="black"/>
<ellipse cx="20.1322" cy="69.6415" rx="2.75722" ry="2.75722" fill="black"/>
<ellipse cx="20.1327" cy="77.9142" rx="2.75722" ry="2.75722" fill="black"/>
<ellipse cx="20.1325" cy="86.1855" rx="2.75722" ry="2.75722" fill="black"/>
<ellipse cx="20.1334" cy="94.4576" rx="2.75722" ry="2.75722" fill="black"/>
<ellipse cx="20.1325" cy="102.729" rx="2.75722" ry="2.75722" fill="black"/>
<ellipse cx="28.061" cy="61.0264" rx="2.41257" ry="2.41256" fill="black"/>
<ellipse cx="28.0608" cy="69.2973" rx="2.41257" ry="2.41256" fill="black"/>
<ellipse cx="28.0603" cy="77.5688" rx="2.41257" ry="2.41256" fill="black"/>
<ellipse cx="28.061" cy="85.8413" rx="2.41257" ry="2.41256" fill="black"/>
<ellipse cx="28.061" cy="94.113" rx="2.41257" ry="2.41256" fill="black"/>
<ellipse cx="28.0605" cy="102.385" rx="2.41257" ry="2.41256" fill="black"/>
<ellipse cx="35.9871" cy="60.6817" rx="2.06791" ry="2.06791" fill="black"/>
<ellipse cx="35.9871" cy="68.9526" rx="2.06791" ry="2.06791" fill="black"/>
<ellipse cx="35.9876" cy="77.2254" rx="2.06791" ry="2.06791" fill="black"/>
<ellipse cx="35.9869" cy="85.4956" rx="2.06791" ry="2.06791" fill="black"/>
<ellipse cx="35.9866" cy="93.7669" rx="2.06791" ry="2.06791" fill="black"/>
<ellipse cx="35.9871" cy="102.04" rx="2.06791" ry="2.06791" fill="black"/>
<ellipse cx="43.9137" cy="60.3368" rx="1.72326" ry="1.72326" fill="black"/>
<ellipse cx="43.9144" cy="68.6089" rx="1.72326" ry="1.72326" fill="black"/>
<ellipse cx="43.9147" cy="76.8809" rx="1.72326" ry="1.72326" fill="black"/>
<ellipse cx="43.9132" cy="85.1511" rx="1.72326" ry="1.72326" fill="black"/>
<ellipse cx="43.9139" cy="93.4225" rx="1.72326" ry="1.72326" fill="black"/>
<ellipse cx="43.9137" cy="101.695" rx="1.72326" ry="1.72326" fill="black"/>
<ellipse cx="51.8413" cy="59.9927" rx="1.37861" ry="1.37861" fill="black"/>
<ellipse cx="4.27855" cy="53.787" rx="3.44652" ry="3.44652" fill="black"/>
<ellipse cx="12.2061" cy="53.443" rx="3.10187" ry="3.10187" fill="black"/>
<ellipse cx="20.1327" cy="53.0982" rx="2.75722" ry="2.75722" fill="black"/>
<ellipse cx="28.0608" cy="52.7538" rx="2.41257" ry="2.41256" fill="black"/>
<ellipse cx="35.9866" cy="52.4082" rx="2.06791" ry="2.06791" fill="black"/>
<ellipse cx="43.9142" cy="52.065" rx="1.72326" ry="1.72326" fill="black"/>
<ellipse cx="51.8408" cy="51.72" rx="1.37861" ry="1.37861" fill="black"/>
<ellipse cx="4.27929" cy="45.5162" rx="3.44652" ry="3.44652" fill="black"/>
<ellipse cx="12.2068" cy="45.1724" rx="3.10187" ry="3.10187" fill="black"/>
<ellipse cx="20.1327" cy="44.8272" rx="2.75722" ry="2.75722" fill="black"/>
<ellipse cx="28.0605" cy="44.4815" rx="2.41257" ry="2.41256" fill="black"/>
<ellipse cx="35.9876" cy="44.1377" rx="2.06791" ry="2.06791" fill="black"/>
<ellipse cx="43.9125" cy="43.7917" rx="1.72326" ry="1.72326" fill="black"/>
<ellipse cx="51.8413" cy="43.4485" rx="1.37861" ry="1.37861" fill="black"/>
<ellipse cx="4.27929" cy="37.2454" rx="3.44652" ry="3.44652" fill="black"/>
<ellipse cx="12.2061" cy="36.9005" rx="3.10187" ry="3.10187" fill="black"/>
<ellipse cx="20.1334" cy="36.5567" rx="2.75722" ry="2.75722" fill="black"/>
<ellipse cx="28.0603" cy="36.2106" rx="2.41257" ry="2.41256" fill="black"/>
<ellipse cx="35.9866" cy="35.8661" rx="2.06791" ry="2.06791" fill="black"/>
<ellipse cx="43.9139" cy="35.5219" rx="1.72326" ry="1.72326" fill="black"/>
<ellipse cx="51.8415" cy="35.1778" rx="1.37861" ry="1.37861" fill="black"/>
<ellipse cx="4.27807" cy="28.9724" rx="3.44652" ry="3.44652" fill="black"/>
<ellipse cx="12.2066" cy="28.6289" rx="3.10187" ry="3.10187" fill="black"/>
<ellipse cx="20.1329" cy="28.284" rx="2.75722" ry="2.75722" fill="black"/>
<ellipse cx="28.0615" cy="27.9398" rx="2.41257" ry="2.41256" fill="black"/>
<ellipse cx="35.9871" cy="27.5943" rx="2.06791" ry="2.06791" fill="black"/>
<ellipse cx="43.9137" cy="27.2498" rx="1.72326" ry="1.72326" fill="black"/>
<ellipse cx="51.8413" cy="26.9054" rx="1.37861" ry="1.37861" fill="black"/>
<ellipse cx="4.27978" cy="20.7026" rx="3.44652" ry="3.44652" fill="black"/>
<ellipse cx="12.2054" cy="20.3565" rx="3.10187" ry="3.10187" fill="black"/>
<ellipse cx="20.1329" cy="20.0124" rx="2.75722" ry="2.75722" fill="black"/>
<ellipse cx="28.0605" cy="19.6672" rx="2.41257" ry="2.41256" fill="black"/>
<ellipse cx="35.9876" cy="19.3238" rx="2.06791" ry="2.06791" fill="black"/>
<ellipse cx="43.9139" cy="18.9782" rx="1.72326" ry="1.72326" fill="black"/>
<ellipse cx="51.8408" cy="18.6334" rx="1.37861" ry="1.37861" fill="black"/>
<ellipse cx="4.27807" cy="28.9724" rx="3.44652" ry="3.44652" fill="black"/>
<ellipse cx="12.2066" cy="28.6289" rx="3.10187" ry="3.10187" fill="black"/>
<ellipse cx="20.1329" cy="28.284" rx="2.75722" ry="2.75722" fill="black"/>
<ellipse cx="28.0615" cy="27.9398" rx="2.41257" ry="2.41256" fill="black"/>
<ellipse cx="35.9871" cy="27.5943" rx="2.06791" ry="2.06791" fill="black"/>
<ellipse cx="43.9137" cy="27.2498" rx="1.72326" ry="1.72326" fill="black"/>
<ellipse cx="51.8413" cy="26.9054" rx="1.37861" ry="1.37861" fill="black"/>
<ellipse cx="4.27978" cy="20.7026" rx="3.44652" ry="3.44652" fill="black"/>
<ellipse cx="12.2054" cy="20.3565" rx="3.10187" ry="3.10187" fill="black"/>
<ellipse cx="20.1329" cy="20.0124" rx="2.75722" ry="2.75722" fill="black"/>
<ellipse cx="28.0605" cy="19.6672" rx="2.41257" ry="2.41256" fill="black"/>
<ellipse cx="35.9876" cy="19.3238" rx="2.06791" ry="2.06791" fill="black"/>
<ellipse cx="43.9139" cy="18.9782" rx="1.72326" ry="1.72326" fill="black"/>
<ellipse cx="51.8408" cy="18.6334" rx="1.37861" ry="1.37861" fill="black"/>
<ellipse cx="4.2788" cy="12.4296" rx="3.44652" ry="3.44652" fill="black"/>
<ellipse cx="12.2061" cy="12.0854" rx="3.10187" ry="3.10187" fill="black"/>
<ellipse cx="20.1322" cy="11.7397" rx="2.75722" ry="2.75722" fill="black"/>
<ellipse cx="28.061" cy="11.3958" rx="2.41257" ry="2.41256" fill="black"/>
<ellipse cx="35.9871" cy="11.0514" rx="2.06791" ry="2.06791" fill="black"/>
<ellipse cx="43.9147" cy="10.7074" rx="1.72326" ry="1.72326" fill="black"/>
<ellipse cx="51.841" cy="10.3618" rx="1.37861" ry="1.37861" fill="black"/>
<ellipse cx="4.27904" cy="4.15847" rx="3.44652" ry="3.44652" fill="black"/>
<ellipse cx="12.2056" cy="3.81333" rx="3.10187" ry="3.10187" fill="black"/>
<ellipse cx="20.1329" cy="3.46929" rx="2.75722" ry="2.75722" fill="black"/>
<ellipse cx="28.0595" cy="3.12359" rx="2.41257" ry="2.41256" fill="black"/>
<ellipse cx="35.9871" cy="2.77958" rx="2.06791" ry="2.06791" fill="black"/>
<ellipse cx="43.9139" cy="2.4349" rx="1.72326" ry="1.72326" fill="black"/>
<ellipse cx="51.8417" cy="2.0912" rx="1.37861" ry="1.37861" fill="black"/>
<ellipse cx="4.27978" cy="119.962" rx="3.44652" ry="3.44652" fill="black"/>
<ellipse cx="12.2059" cy="119.617" rx="3.10187" ry="3.10187" fill="black"/>
<ellipse cx="20.1329" cy="119.273" rx="2.75722" ry="2.75722" fill="black"/>
<ellipse cx="28.0608" cy="118.928" rx="2.41257" ry="2.41256" fill="black"/>
<ellipse cx="35.9869" cy="118.583" rx="2.06791" ry="2.06791" fill="black"/>
<ellipse cx="43.913" cy="118.238" rx="1.72326" ry="1.72326" fill="black"/>
<ellipse cx="51.8415" cy="117.895" rx="1.37861" ry="1.37861" fill="black"/>
<ellipse cx="4.27978" cy="111.69" rx="3.44652" ry="3.44652" fill="black"/>
<ellipse cx="12.2056" cy="111.345" rx="3.10187" ry="3.10187" fill="black"/>
<ellipse cx="20.1329" cy="111.001" rx="2.75722" ry="2.75722" fill="black"/>
<ellipse cx="28.0608" cy="110.656" rx="2.41257" ry="2.41256" fill="black"/>
<ellipse cx="35.9871" cy="110.311" rx="2.06791" ry="2.06791" fill="black"/>
<ellipse cx="43.9139" cy="109.966" rx="1.72326" ry="1.72326" fill="black"/>
<ellipse cx="51.8405" cy="109.621" rx="1.37861" ry="1.37861" fill="black"/>
<ellipse cx="4.27904" cy="136.505" rx="3.44652" ry="3.44652" fill="black"/>
<ellipse cx="12.5513" cy="136.506" rx="3.44652" ry="3.44652" fill="black"/>
<ellipse cx="20.1327" cy="135.816" rx="2.75722" ry="2.75722" fill="black"/>
<ellipse cx="28.0603" cy="135.47" rx="2.41257" ry="2.41256" fill="black"/>
<ellipse cx="35.9876" cy="135.127" rx="2.06791" ry="2.06791" fill="black"/>
<ellipse cx="43.9139" cy="134.782" rx="1.72326" ry="1.72326" fill="black"/>
<ellipse cx="51.8415" cy="134.438" rx="1.37861" ry="1.37861" fill="black"/>
<ellipse cx="58.3904" cy="134.092" rx="1.03396" ry="1.03396" fill="black"/>
<ellipse cx="4.27831" cy="128.233" rx="3.44652" ry="3.44652" fill="black"/>
<ellipse cx="12.2066" cy="127.889" rx="3.10187" ry="3.10187" fill="black"/>
<ellipse cx="20.1327" cy="127.544" rx="2.75722" ry="2.75722" fill="black"/>
<ellipse cx="28.06" cy="127.199" rx="2.41257" ry="2.41256" fill="black"/>
<ellipse cx="35.9866" cy="126.854" rx="2.06791" ry="2.06791" fill="black"/>
<ellipse cx="43.9144" cy="126.51" rx="1.72326" ry="1.72326" fill="black"/>
<ellipse cx="51.841" cy="126.166" rx="1.37861" ry="1.37861" fill="black"/>
<ellipse cx="51.8403" cy="68.2628" rx="1.37861" ry="1.37861" fill="black"/>
<ellipse cx="51.841" cy="76.5355" rx="1.37861" ry="1.37861" fill="black"/>
<ellipse cx="51.8413" cy="84.8074" rx="1.37861" ry="1.37861" fill="black"/>
<ellipse cx="51.841" cy="93.0785" rx="1.37861" ry="1.37861" fill="black"/>
<ellipse cx="51.8405" cy="101.35" rx="1.37861" ry="1.37861" fill="black"/>
<ellipse cx="58.3904" cy="59.6477" rx="1.03396" ry="1.03396" fill="black"/>
<ellipse cx="58.3904" cy="51.3751" rx="1.03396" ry="1.03396" fill="black"/>
<ellipse cx="58.3906" cy="43.1036" rx="1.03396" ry="1.03396" fill="black"/>
<ellipse cx="58.3902" cy="34.8322" rx="1.03396" ry="1.03396" fill="black"/>
<ellipse cx="58.3906" cy="26.5608" rx="1.03396" ry="1.03396" fill="black"/>
<ellipse cx="58.3906" cy="18.2897" rx="1.03396" ry="1.03396" fill="black"/>
<ellipse cx="58.3906" cy="26.5608" rx="1.03396" ry="1.03396" fill="black"/>
<ellipse cx="58.3906" cy="18.2897" rx="1.03396" ry="1.03396" fill="black"/>
<ellipse cx="58.3899" cy="10.0167" rx="1.03396" ry="1.03396" fill="black"/>
<ellipse cx="58.3897" cy="1.74535" rx="1.03396" ry="1.03396" fill="black"/>
<ellipse cx="58.3906" cy="117.55" rx="1.03396" ry="1.03396" fill="black"/>
<ellipse cx="58.3899" cy="109.277" rx="1.03396" ry="1.03396" fill="black"/>
<ellipse cx="58.3904" cy="125.821" rx="1.03396" ry="1.03396" fill="black"/>
<ellipse cx="58.3894" cy="67.9181" rx="1.03396" ry="1.03396" fill="black"/>
<ellipse cx="58.3906" cy="76.1913" rx="1.03396" ry="1.03396" fill="black"/>
<ellipse cx="58.3902" cy="84.4622" rx="1.03396" ry="1.03396" fill="black"/>
<ellipse cx="58.3899" cy="92.7334" rx="1.03396" ry="1.03396" fill="black"/>
<ellipse cx="58.3899" cy="101.006" rx="1.03396" ry="1.03396" fill="black"/>
<ellipse cx="64.9381" cy="133.748" rx="0.689305" ry="0.689305" fill="black"/>
<ellipse cx="64.9383" cy="59.3024" rx="0.689305" ry="0.689305" fill="black"/>
<ellipse cx="64.9396" cy="51.0312" rx="0.689305" ry="0.689305" fill="black"/>
<ellipse cx="64.9386" cy="42.7591" rx="0.689305" ry="0.689305" fill="black"/>
<ellipse cx="64.9388" cy="34.4879" rx="0.689305" ry="0.689305" fill="black"/>
<ellipse cx="64.9381" cy="26.2151" rx="0.689305" ry="0.689305" fill="black"/>
<ellipse cx="64.9391" cy="17.9446" rx="0.689305" ry="0.689305" fill="black"/>
<ellipse cx="64.9381" cy="26.2151" rx="0.689305" ry="0.689305" fill="black"/>
<ellipse cx="64.9391" cy="17.9446" rx="0.689305" ry="0.689305" fill="black"/>
<ellipse cx="64.9386" cy="9.6727" rx="0.689305" ry="0.689305" fill="black"/>
<ellipse cx="64.9383" cy="1.40104" rx="0.689305" ry="0.689305" fill="black"/>
<ellipse cx="64.9391" cy="117.205" rx="0.689305" ry="0.689305" fill="black"/>
<ellipse cx="64.9396" cy="108.933" rx="0.689305" ry="0.689305" fill="black"/>
<ellipse cx="64.9378" cy="125.476" rx="0.689305" ry="0.689305" fill="black"/>
<ellipse cx="64.9381" cy="67.5739" rx="0.689305" ry="0.689305" fill="black"/>
<ellipse cx="64.9391" cy="75.8469" rx="0.689305" ry="0.689305" fill="black"/>
<ellipse cx="64.9388" cy="84.1178" rx="0.689305" ry="0.689305" fill="black"/>
<ellipse cx="64.9381" cy="92.3885" rx="0.689305" ry="0.689305" fill="black"/>
<ellipse cx="64.9381" cy="100.661" rx="0.689305" ry="0.689305" fill="black"/>
<ellipse cx="71.4865" cy="133.404" rx="0.344652" ry="0.344652" fill="black"/>
<ellipse cx="71.4858" cy="58.9584" rx="0.344652" ry="0.344652" fill="black"/>
<ellipse cx="71.4863" cy="50.6859" rx="0.344652" ry="0.344652" fill="black"/>
<ellipse cx="71.4865" cy="42.415" rx="0.344652" ry="0.344652" fill="black"/>
<ellipse cx="71.4865" cy="34.1437" rx="0.344652" ry="0.344652" fill="black"/>
<ellipse cx="71.4855" cy="25.8708" rx="0.344652" ry="0.344652" fill="black"/>
<ellipse cx="71.4858" cy="17.5994" rx="0.344652" ry="0.344652" fill="black"/>
<ellipse cx="71.4855" cy="25.8708" rx="0.344652" ry="0.344652" fill="black"/>
<ellipse cx="71.4858" cy="17.5994" rx="0.344652" ry="0.344652" fill="black"/>
<ellipse cx="71.4865" cy="9.32837" rx="0.344652" ry="0.344652" fill="black"/>
<ellipse cx="71.4858" cy="1.05583" rx="0.344652" ry="0.344652" fill="black"/>
<ellipse cx="71.4853" cy="116.86" rx="0.344652" ry="0.344652" fill="black"/>
<ellipse cx="71.486" cy="108.588" rx="0.344652" ry="0.344652" fill="black"/>
<ellipse cx="71.4865" cy="125.132" rx="0.344652" ry="0.344652" fill="black"/>
<ellipse cx="71.4865" cy="67.2298" rx="0.344652" ry="0.344652" fill="black"/>
<ellipse cx="71.4863" cy="75.5022" rx="0.344652" ry="0.344652" fill="black"/>
<ellipse cx="71.485" cy="83.7726" rx="0.344652" ry="0.344652" fill="black"/>
<ellipse cx="71.4863" cy="92.0442" rx="0.344652" ry="0.344652" fill="black"/>
<ellipse cx="71.4863" cy="100.317" rx="0.344652" ry="0.344652" fill="black"/>
</svg>
