<svg xmlns="http://www.w3.org/2000/svg" width="40mm" height="70mm" viewBox="0 0 40 70"><path style="fill:#eee;fill-opacity:1;stroke:#e8e6c0;stroke-width:0;stroke-linecap:round;stroke-linejoin:bevel;paint-order:stroke fill markers" d="M19.625 0h.75v37.831h-.75zM20 62.583l-1 .977v6.11h.5v-6.11h.25v6.115h.5V63.56h.25v6.126h.5V63.56z"/><path style="fill:#eee;fill-opacity:.99068332;stroke:#e8e6c0;stroke-width:0;stroke-linecap:round;stroke-linejoin:bevel;paint-order:stroke fill markers" d="M20.287 61.652h.008v.104h-.008z"/><path d="M5.98 40.1 5 41.228l.76.87-.76.878.762.872-.763.88.762.871-.762.878.762.872-.763.879.762.871-.762.879.762.87-.763.88.762.871-.762.879.762.87-.763.88.979 1.12v.001H29.045l4.98-.002.97-1.12-.754-.878.755-.871-.755-.878.756-.872-.755-.879.755-.871-.755-.878.756-.872-.755-.879.755-.872-.755-.877.756-.872-.756-.88.756-.872-.754-.877.755-.87-.97-1.13zm.27.5h27.5v1.247H6.25zm27.5 1.748v1.25H6.25V42.35h22.799zm-27.501 1.75h27.5v1.25h-27.5zm24.044 1.75h3.455v1.25h-27.5V45.85h22.8zm-.25 1.75h3.705v1.25h-27.5V47.6h22.8zm.25 1.75h3.454v1.25h-27.5V49.35h22.8zm-24.046 1.75h27.5v1.251h-27.5zm24.044 1.75h3.455v1.25h-27.5V52.85h22.8zM6.246 54.6h27.5v1.25h-27.5z" style="fill:#eee;fill-opacity:1;stroke:#e8e6c0;stroke-width:0;stroke-linecap:round;stroke-linejoin:bevel;paint-order:stroke fill markers"/><path style="fill:#eee;fill-opacity:1;stroke:#e8e6c0;stroke-width:0;stroke-linecap:round;stroke-linejoin:bevel;paint-order:stroke fill markers" d="M19.625 56.203h.75v7.067h-.75z"/><circle cy="59.3" cx="19.975" style="fill:#eee;fill-opacity:1;stroke:#e8e6c0;stroke-width:0;stroke-linecap:round;stroke-linejoin:bevel;paint-order:stroke fill markers" r=".875"/><path d="M18.8 58.85a.5.5 0 0 0-.5.5.5.5 0 0 0 .5.5.5.5 0 0 0 .5-.5.5.5 0 0 0-.5-.5zm2.4 0a.5.5 0 0 0-.5.5.5.5 0 0 0 .5.5.5.5 0 0 0 .5-.5.5.5 0 0 0-.5-.5z" style="fill:none;fill-opacity:.74901962;stroke:#eee;stroke-width:.2;stroke-linecap:round;stroke-linejoin:bevel;stroke-miterlimit:4;stroke-dasharray:none;stroke-opacity:1;paint-order:stroke fill markers"/><path transform="matrix(1 0 0 .65112 3.514 22.05)" d="m18.826 27.97-4.552.055 2.228-3.97z" style="fill:none;fill-opacity:.74901962;stroke:#eee;stroke-width:.74356726;stroke-linecap:round;stroke-linejoin:bevel;stroke-miterlimit:4;stroke-dasharray:none;stroke-opacity:1;paint-order:stroke fill markers"/></svg>