<svg xmlns="http://www.w3.org/2000/svg" width="40mm" height="105mm" viewBox="0 0 40 105"><path style="fill:#ecac31;fill-opacity:1;stroke:#e8e6c0;stroke-width:0;stroke-linecap:round;stroke-linejoin:bevel;paint-order:stroke fill markers" d="M19.625 0h.75v68.106h-.75zM20 97.584l-1 .977v6.109h.5V98.56h.25v6.114h.5V98.56h.25v6.126h.5v-6.125zM20.287 96.653h.008v.104h-.008zM5.98 70.1 5 71.228l.76.87-.76.878.762.872-.763.88.762.871-.762.878.762.872-.763.879.762.871-.762.879.762.87-.763.88.762.871-.762.879.762.87-.763.88.979 1.12v.001H29.045l4.98-.002.97-1.12-.754-.878.755-.871-.755-.878.756-.872-.755-.879.755-.871-.755-.878.756-.872-.755-.879.755-.872-.755-.877.756-.872-.756-.88.756-.872-.754-.877.755-.87-.97-1.13zm.27.5h27.5v1.247H6.25zm27.5 1.748v1.25H6.25V72.35h22.799zm-27.501 1.75h27.5v1.25h-27.5zm24.044 1.75h3.455v1.25h-27.5V75.85h22.8zm-.25 1.75h3.705v1.25h-27.5V77.6h22.8zm.25 1.75h3.454v1.25h-27.5V79.35h22.8zm-24.046 1.75h27.5v1.251h-27.5zm24.044 1.75h3.455v1.25h-27.5V82.85h22.8zM6.246 84.6h27.5v1.25h-27.5z"/><path transform="scale(.26458)" d="M74.078 325.305v14.886a3.78 3.78 0 0 0-2.267 3.463 3.78 3.78 0 0 0 2.267 3.463v25.397h2.836v-25.32a3.78 3.78 0 0 0 2.455-3.54 3.78 3.78 0 0 0-2.455-3.539v-14.81h-2.836zm1.512 16.459a1.89 1.89 0 0 1 1.889 1.89 1.89 1.89 0 0 1-1.89 1.889 1.89 1.89 0 0 1-1.89-1.889 1.89 1.89 0 0 1 1.89-1.89z" style="fill:#ecac31;fill-opacity:1;stroke:#e8e6c0;stroke-width:0;stroke-linecap:round;stroke-linejoin:bevel;paint-order:stroke fill markers"/><path d="M18.603 90.271a.582.629 0 0 0-.582.63.582.629 0 0 0 .582.628.582.629 0 0 0 .582-.629.582.629 0 0 0-.582-.629zm2.794 0a.582.629 0 0 0-.582.63.582.629 0 0 0 .582.628.582.629 0 0 0 .582-.629.582.629 0 0 0-.582-.629z" style="fill:#ecac31;fill-opacity:0;stroke:#ecac31;stroke-width:.24204;stroke-linecap:round;stroke-linejoin:bevel;stroke-miterlimit:4;stroke-dasharray:none;stroke-opacity:1;paint-order:stroke fill markers"/><path transform="matrix(1 0 0 .65112 3.514 52.05)" d="m18.826 27.97-4.552.055 2.228-3.97z" style="fill:#ecac31;fill-opacity:0;stroke:#ecac31;stroke-width:.743567;stroke-linecap:round;stroke-linejoin:bevel;stroke-miterlimit:4;stroke-dasharray:none;stroke-opacity:1;paint-order:stroke fill markers"/></svg>