<svg width="42" height="42" viewBox="0 0 42 42" fill="none" xmlns="http://www.w3.org/2000/svg">
<path d="M28.3518 16.3551L29.8749 16.3771L29.652 18.4628L29.6489 18.4917L29.6506 18.5208L29.9143 22.9554L29.9335 23.2789L30.2576 23.2845L33.4598 23.3406L32.9412 24.4766L29.5133 24.6489L28.3933 24.5068L28.3518 16.3551ZM26.0091 17.5035H23.6147V17.5035L23.61 17.5035C23.5733 17.504 23.5374 17.5044 23.5024 17.5049C22.9552 17.5113 22.5984 17.5155 22.0738 17.7523L22.0738 17.7523L22.0682 17.7549C21.6277 17.9632 21.2523 18.2877 20.9825 18.6935C20.7127 19.0992 20.5587 19.5709 20.5371 20.0577L20.521 20.4188L20.8824 20.4232L23.6564 20.4574L24.0092 20.4618L24.0107 20.1089L24.0162 18.8125L25.7768 18.6118L26.1141 24.4655H24.3124L24.0069 21.7865L23.9715 21.4762H23.6592H20.7427H20.3403L20.396 21.8747C20.4193 22.0408 20.4166 22.2112 20.4135 22.4148C20.4123 22.4903 20.4111 22.5705 20.411 22.6566C20.411 22.9517 20.4278 23.2966 20.5619 23.6305L20.5625 23.632C20.6589 23.8687 20.8285 24.1362 20.9977 24.3794C21.0902 24.5123 21.1877 24.6451 21.2808 24.7696L20.1401 25.5224C19.8706 24.976 19.6438 24.382 19.4253 23.7457L19.4253 23.7457L19.4231 23.7396C19.1916 23.104 19.1207 22.4426 19.0432 21.7186C19.0372 21.6633 19.0313 21.6077 19.0252 21.5516L19.025 21.55C19.0158 21.4687 19.0065 21.3888 18.9972 21.3102C18.9145 20.6052 18.8435 20 19.0147 19.378L19.0148 19.378L19.0167 19.3704C19.1732 18.7471 19.3167 18.4402 19.4683 18.2318C19.5903 18.064 19.7198 17.9516 19.9147 17.7824C19.976 17.7292 20.0438 17.6703 20.1199 17.6023L20.12 17.6024L20.1259 17.5969C20.3675 17.3708 20.6926 17.2 21.0257 17.025C21.0829 16.995 21.1404 16.9648 21.1976 16.9342C21.4572 16.7955 21.7386 16.7251 22.0564 16.6455C22.1261 16.6281 22.1975 16.6102 22.2708 16.5911C22.6588 16.4989 23.0537 16.4384 23.4515 16.4102L23.4515 16.4102L23.4567 16.4098C23.6991 16.3889 23.919 16.386 24.5019 16.3827C24.5925 16.3822 24.6956 16.381 24.8072 16.3796C25.0632 16.3765 25.3636 16.3728 25.6578 16.3765L26.0091 17.5035ZM14.7706 19.7356L13.1581 21.1345L10.9375 19.3695L10.3427 18.8968L10.3699 19.6561L10.5424 24.4655H8.35V16.4005L9.89679 16.3533L12.5182 18.1426L12.7379 18.2925L12.9412 18.121L14.9689 16.4104L17.15 16.3584V24.4655H15.8155L15.3481 19.9639L15.2787 19.2949L14.7706 19.7356ZM20 0.65C14.5835 0.65 10.4116 2.80912 6.61038 6.61038C2.78425 10.4365 0.65 16.4438 0.65 21.8262C0.65 27.2392 2.80618 31.5854 6.61038 35.3896C10.4495 39.2287 16.4256 40.85 21.7847 40.85C27.1731 40.85 31.5673 39.2119 35.3896 35.3896C39.2164 31.5628 41.35 25.4887 41.35 20.1074C41.35 14.6931 39.1927 10.4135 35.3896 6.61038C31.5617 2.78245 25.3794 0.65 20 0.65Z" fill="#EAEAE1" stroke="black" stroke-width="0.7"/>
</svg>
