<svg xmlns="http://www.w3.org/2000/svg" height="60" width="60"><path style="fill:#fff;fill-opacity:1;stroke-width:.0585936" d="M30 0A30 30 0 0 0 0 30a30 30 0 0 0 30 30 30 30 0 0 0 30-30A30 30 0 0 0 30 0zm10.567 22.5 3.329.05v10.352l4.854.047-.672 2.774h-7.51zm-5.09.021c.52-.003 1.146.004 1.898.027l.852 2.732h-4.305c-.926.013-1.372 0-2.095.327a3.494 3.494 0 0 0-1.997 3.003l4.161.051.06-2.828h3.606v-.006l.001.006.038 9.892h-3.695l-.012-4.486h-4.375c.11.78.328 1.978.652 2.783.242.596.466 1.172.911 1.763l-2.664 1.757c-.545-.993-.972-2.088-1.372-3.253a14.525 14.525 0 0 1-.792-3.405c-.133-1.172-.152-2.298.167-3.456a6.106 6.106 0 0 1 1.814-2.916c.49-.458 1.172-.782 1.72-1.074.546-.292 1.16-.412 1.73-.56a11.572 11.572 0 0 1 1.86-.286c.389-.034.967-.066 1.836-.07zm-11.3.073v13.16l-3.286-.004v-8.147l-3.172 3.756-3.108-3.84-.031 8.258h-3.33v-13.18h3.442l2.915 3.976 3.15-3.978z"/></svg>