<svg width="40" height="40" viewBox="0 0 40 40" fill="none" xmlns="http://www.w3.org/2000/svg">
<g clip-path="url(#clip0_801_1599)">
<path d="M20 0C14.6957 0 9.60859 2.10714 5.85786 5.85786C2.10714 9.60859 0 14.6957 0 20C0 25.3043 2.10714 30.3914 5.85786 34.1421C9.60859 37.8929 14.6957 40 20 40C25.3043 40 30.3914 37.8929 34.1421 34.1421C37.8929 30.3914 40 25.3043 40 20C40 14.6957 37.8929 9.60859 34.1421 5.85786C30.3914 2.10714 25.3043 0 20 0V0ZM27.0449 15L29.2637 15.0327V21.9346L32.5 21.9663L32.0522 23.8155H27.0449V15ZM23.6509 15.0142C23.9985 15.0123 24.4157 15.0169 24.917 15.0317L25.4848 16.8535H22.6147C21.9971 16.8618 21.7002 16.8535 21.2178 17.0713C20.8349 17.2524 20.5085 17.5345 20.274 17.8873C20.0394 18.24 19.9055 18.6501 19.8867 19.0733L22.6607 19.1074L22.7002 17.2221H25.105V17.2178L25.1054 17.2221H25.105L25.1308 23.8169H22.6675L22.6592 20.8262H19.7427C19.8154 21.3462 19.9614 22.1445 20.1772 22.6817C20.3389 23.0786 20.4878 23.4629 20.7847 23.8564L19.0088 25.0283C18.645 24.3657 18.3609 23.6357 18.0943 22.8593C17.8274 22.1267 17.65 21.3645 17.5659 20.5894C17.4775 19.8081 17.4648 19.0571 17.6772 18.2851C17.8861 17.5348 18.3059 16.8602 18.8867 16.3413C19.2129 16.0362 19.668 15.8203 20.0327 15.6255C20.3975 15.4306 20.8067 15.3506 21.1861 15.2515C21.5938 15.1544 22.0087 15.0907 22.4268 15.061C22.6859 15.0388 23.0716 15.0174 23.6509 15.0142L23.6509 15.0142ZM16.1177 15.0625V23.8364L13.9272 23.8334V18.4018L11.8125 20.9062L9.74075 18.3457L9.71969 23.8511H7.5V15.0645H9.79492L11.7378 17.7153L13.8374 15.0635L16.1177 15.0625Z" fill="#131313"/>
</g>
<defs>
<clipPath id="clip0_801_1599">
<rect width="40" height="40" fill="white"/>
</clipPath>
</defs>
</svg>
