<svg width="40" height="40" viewBox="0 0 40 40" fill="none" xmlns="http://www.w3.org/2000/svg">
<g clip-path="url(#clip0_801_1601)">
<path d="M19.9998 0.000732422C8.9542 0.000732422 0 8.9552 0 20.0006C0 28.4738 5.27147 35.7171 12.7115 38.6312C12.5365 37.0488 12.3786 34.6152 12.7809 32.8876C13.1442 31.3268 15.1261 22.9463 15.1261 22.9463C15.1261 22.9463 14.5277 21.7484 14.5277 19.9769C14.5277 17.196 16.1396 15.1198 18.1467 15.1198C19.8529 15.1198 20.6772 16.401 20.6772 17.9371C20.6772 19.6532 19.5847 22.2186 19.0207 24.5961C18.5497 26.5869 20.0191 28.2102 21.9824 28.2102C25.5373 28.2102 28.2696 24.4621 28.2696 19.0517C28.2696 14.2632 24.8286 10.9151 19.9156 10.9151C14.2249 10.9151 10.8846 15.1833 10.8846 19.5944C10.8846 21.3134 11.5467 23.1566 12.373 24.1585C12.5363 24.3566 12.5604 24.5302 12.5118 24.7322C12.3598 25.364 12.0226 26.7223 11.9562 27.0003C11.869 27.3664 11.6663 27.4441 11.2874 27.2678C8.78944 26.105 7.2278 22.4532 7.2278 19.5198C7.2278 13.2108 11.8115 7.41708 20.4425 7.41708C27.3804 7.41708 32.7722 12.3608 32.7722 18.9679C32.7722 25.8608 28.4262 31.4079 22.3939 31.4079C20.3674 31.4079 18.4621 30.3551 17.81 29.1115C17.81 29.1115 16.8071 32.9301 16.564 33.8659C16.1122 35.6031 14.8935 37.7807 14.0782 39.1089C15.9497 39.6883 17.9382 40.0007 19.9998 40.0007C31.0458 40.0007 40 31.0467 40 20.0006C40 8.9552 31.0458 0.000732422 19.9998 0.000732422Z" fill="#131313"/>
</g>
<defs>
<clipPath id="clip0_801_1601">
<rect width="40" height="40" fill="white"/>
</clipPath>
</defs>
</svg>
