<svg width="43" height="42" viewBox="0 0 43 42" fill="none" xmlns="http://www.w3.org/2000/svg">
<path d="M23.5 1.5C12.4544 1.5 1.5 9.9308 1.5 20.9762C1.5 29.4494 7.27147 36.7164 14.7115 39.6305C14.5365 38.048 14.1094 35.2276 14.5118 33.5C14.8751 31.9392 17.5 24 17.5 24C17.5 24 16.5277 22.7476 16.5277 20.9762C16.5277 18.1953 18.2934 16.7382 20.1467 16.1191C22 15.5 23 17.4639 23 19C23 20.7161 21.5847 23.2179 21.0207 25.5954C20.5497 27.5861 21.9156 29.5 23.9824 29.2095C27.5 28.5 30.2696 25.4614 30.2696 20.051C30.2696 15.2625 27 11.5 21.9156 11.9143C16.5 12.5 12.8846 16.1826 12.8846 20.5936C12.8846 22.3127 13.5467 24.1558 14.373 25.1578C14.5363 25.3558 14.5604 25.5295 14.5118 25.7315C14.3598 26.3633 14.0226 27.7216 13.9562 27.9996C13.869 28.3657 13.6663 28.4434 13.2874 28.2671C10.7894 27.1043 9 21.9334 9 19C9 12.691 13.8115 8.41634 22.4425 8.41634C29.3804 8.41634 34 13.0357 34.7722 19.9671C35.5 26.5 31.0323 32.5 25 32.5C22.9734 32.5 20.7987 31.2436 20.1467 30C20.1467 30 18.8071 33.9294 18.564 34.8651C18.1122 36.6024 16.8935 38.7799 16.0782 40.1081C17.9497 40.6876 20.3809 40.4726 22.4425 40.4726C33.4885 40.4726 42 32.0459 42 20.9999C42 9.95447 34.546 1.5 23.5 1.5Z" fill="#EAEAE1" stroke="black"/>
</svg>
