<svg xmlns="http://www.w3.org/2000/svg" height="60" width="60" stroke-miterlimit="2" stroke-linejoin="round" clip-rule="evenodd" fill-rule="evenodd" xml:space="preserve"><path style="fill:#fff;fill-opacity:1;stroke-width:.117187" class="fill-000000" fill="#fff" fill-rule="nonzero" d="M30 .001c-16.569 0-30 13.432-30 30 0 12.71 7.907 23.575 19.067 27.946-.262-2.374-.5-6.024.104-8.616.545-2.34 3.518-14.912 3.518-14.912s-.897-1.797-.897-4.454c0-4.171 2.417-7.285 5.428-7.285 2.56 0 3.796 1.921 3.796 4.226 0 2.574-1.639 6.422-2.485 9.988-.707 2.986 1.498 5.421 4.443 5.421 5.332 0 9.43-5.622 9.43-13.738 0-7.182-5.161-12.205-12.53-12.205-8.537 0-13.547 6.403-13.547 13.02 0 2.578.993 5.343 2.233 6.846.244.297.28.557.208.86-.228.948-.734 2.985-.834 3.402-.13.55-.435.666-1.003.402-3.747-1.745-6.09-7.222-6.09-11.622 0-9.464 6.876-18.154 19.823-18.154 10.407 0 18.494 7.415 18.494 17.326 0 10.34-6.519 18.66-15.567 18.66-3.04 0-5.898-1.58-6.876-3.445 0 0-1.504 5.728-1.87 7.132-.677 2.606-2.505 5.872-3.728 7.864 2.807.87 5.79 1.338 8.883 1.338 16.569 0 30-13.431 30-30C60 13.433 46.569 0 30 0z"/></svg>