<svg width="43" height="43" viewBox="0 0 43 43" fill="none" xmlns="http://www.w3.org/2000/svg">
<path d="M22.0008 2.00004C9.5 3.50006 1.5 10.9563 1.5 22.0009C1.5 33.047 11.0662 41.5001 22.1123 41.5001C33.5 41.0001 42 33.047 42 22.0009C42 10.9563 33 1.50006 22.0008 2.00004ZM32.0755 17.9682C32.0861 18.1843 32.0902 18.4011 32.0902 18.6204C32.5 25.1985 28.2503 31.0392 18 33.0001C15.2606 33.0027 12.328 32.1777 10.0231 30.6973C10.4178 30.7435 10.8182 30.7671 11.2251 30.7671C13.4947 30.7709 15.7146 30.4012 17.5 29.0001C16.4483 28.9798 15.4141 28.2412 14.5701 27.6134C13.726 26.9856 13.0992 26.1098 12.7773 25.1084C13.0896 25.169 13.407 25.1992 13.7251 25.1985C14.1849 25.1985 14.63 25.1384 15.0531 25.0223C13.9124 24.7916 12.8866 24.1736 12.1496 23.2729C11.4125 22.3723 11.0096 21.2445 11.0091 20.0808L11.0099 20.0158C11.7097 20.4052 12.4926 20.6216 13.293 20.6469C12.6026 20.1863 12.0366 19.5623 11.6454 18.8303C11.2542 18.0983 11.0498 17.281 11.0505 16.451C11.0505 15.5275 11.0505 14.5853 11.7328 13.9169C12.9986 15.474 14.5777 16.7475 16.3677 17.6547C18.1577 18.5618 20 18.6204 22.1226 19.1825C21.9497 18.4428 21.9461 17.6736 22.1123 16.9323C22.2784 16.1911 22.61 15.4969 23.0821 14.9018C23.5543 14.3068 24.1548 13.8261 24.8389 13.4957C25.523 13.1654 25.7404 12.9998 26.5 13.0001C27.4675 13.0059 28.4041 13.1343 29.0369 13.408C29.6696 13.6817 30.5284 13.9972 31 14.5001C32.129 14.2782 32.9227 13.9498 33.9119 13.3621C33.5357 14.5299 32.553 15.8705 31.5 16.5001C32.4994 16.3816 33.67 15.7645 34.5901 15.3569C33.9149 16.3708 33.0632 17.2552 32.0755 17.9682Z" fill="#EAEAE1" stroke="black"/>
</svg>
