<?xml version="1.0" encoding="UTF-8" standalone="no"?>
<svg
   xmlns:dc="http://purl.org/dc/elements/1.1/"
   xmlns:cc="http://creativecommons.org/ns#"
   xmlns:rdf="http://www.w3.org/1999/02/22-rdf-syntax-ns#"
   xmlns:svg="http://www.w3.org/2000/svg"
   xmlns="http://www.w3.org/2000/svg"
   xmlns:sodipodi="http://sodipodi.sourceforge.net/DTD/sodipodi-0.dtd"
   xmlns:inkscape="http://www.inkscape.org/namespaces/inkscape"
   inkscape:version="1.0 (4035a4fb49, 2020-05-01)"
   sodipodi:docname="cogwheel.svg"
   xml:space="preserve"
   style="enable-background:new 0 0 368 368;"
   viewBox="0 0 368 368"
   y="0px"
   x="0px"
   id="Capa_1"
   version="1.1"><metadata
   id="metadata49"><rdf:RDF><cc:Work
       rdf:about=""><dc:format>image/svg+xml</dc:format><dc:type
         rdf:resource="http://purl.org/dc/dcmitype/StillImage" /></cc:Work></rdf:RDF></metadata><defs
   id="defs47" /><sodipodi:namedview
   inkscape:current-layer="Capa_1"
   inkscape:window-maximized="1"
   inkscape:window-y="-8"
   inkscape:window-x="1912"
   inkscape:cy="197.98775"
   inkscape:cx="151.07162"
   inkscape:zoom="1.6332629"
   showgrid="false"
   id="namedview45"
   inkscape:window-height="1017"
   inkscape:window-width="1920"
   inkscape:pageshadow="2"
   inkscape:pageopacity="0"
   guidetolerance="10"
   gridtolerance="10"
   objecttolerance="10"
   borderopacity="1"
   bordercolor="#666666"
   pagecolor="#ffffff" />


<g
   id="g14">
</g>
<g
   id="g16">
</g>
<g
   id="g18">
</g>
<g
   id="g20">
</g>
<g
   id="g22">
</g>
<g
   id="g24">
</g>
<g
   id="g26">
</g>
<g
   id="g28">
</g>
<g
   id="g30">
</g>
<g
   id="g32">
</g>
<g
   id="g34">
</g>
<g
   id="g36">
</g>
<g
   id="g38">
</g>
<g
   id="g40">
</g>
<g
   id="g42">
</g>
<path
   id="path874"
   d="m 204.52955,369.53759 c 2.37813,-0.55743 4.41193,-2.01942 5.45487,-3.92122 0.74342,-1.3556 0.85412,-3.83504 1.06837,-23.92638 l 0.23902,-22.41407 1.18995,-2.07357 c 1.48663,-2.59054 3.72051,-3.88885 9.4657,-5.50135 7.55191,-2.11959 13.35152,-4.45252 23.31917,-9.38028 10.0105,-4.94895 11.69632,-5.42947 14.87322,-4.23943 0.74013,0.27726 8.22942,7.33343 16.64285,15.68038 8.41343,8.34695 15.9856,15.5239 16.82702,15.94878 2.06643,1.04343 5.52057,0.9781 7.69136,-0.14549 2.59653,-1.34396 28.08,-27.03133 28.99828,-29.2303 0.93925,-2.24924 0.93881,-4.22147 -10e-4,-6.46872 -0.49313,-1.17852 -5.93175,-6.97009 -16.21953,-17.27212 -10.74612,-10.761 -15.59233,-15.93647 -15.85277,-16.92979 -0.7768,-2.96286 -0.37447,-5.38086 1.44816,-8.70339 5.33374,-9.72303 9.27114,-18.97311 12.17592,-28.60477 2.16634,-7.18314 3.06309,-8.70327 5.95932,-10.10196 1.9952,-0.96355 2.73929,-0.99472 23.74754,-0.99472 21.12366,0 21.74226,-0.0263 23.78239,-1.01157 1.26178,-0.60935 2.60477,-1.78062 3.37766,-2.94576 L 370,205.36765 v -20.33769 -20.3377 l -1.28306,-1.93421 c -0.7729,-1.16514 -2.11588,-2.3364 -3.37767,-2.94575 -2.04012,-0.98526 -2.65872,-1.01157 -23.78238,-1.01157 -21.12368,0 -21.74228,-0.0263 -23.78241,-1.01157 -2.70988,-1.3087 -4.02875,-3.40853 -5.57921,-8.8829 -2.57931,-9.10709 -6.92122,-19.6504 -11.23939,-27.29224 -2.99737,-5.30445 -3.65465,-7.70099 -2.89311,-10.54866 0.49591,-1.85431 2.3967,-3.94238 16.23792,-17.837701 13.07426,-13.125329 15.76408,-16.054163 16.20518,-17.645113 0.71215,-2.56853 0.67029,-3.758358 -0.20606,-5.857282 -0.89332,-2.139573 -26.87466,-28.330025 -29.19219,-29.42714 -1.98919,-0.941677 -5.57172,-0.91971 -7.49757,0.04597 -0.84142,0.421922 -8.41359,7.599947 -16.82702,15.951172 -8.41343,8.35122 -15.90272,15.409811 -16.64285,15.68575 -3.18153,1.186139 -4.86493,0.706036 -14.87322,-4.241817 -9.95173,-4.91989 -15.73922,-7.249212 -23.31917,-9.385389 -5.86931,-1.654088 -7.83957,-2.791316 -9.38792,-5.418656 L 211.29214,50.784001 211.05312,28.36993 C 210.79049,3.7720054 210.83309,4.1210937 207.83327,1.9939805 205.26825,0.17518607 203.26216,8.0319006e-7 184.99985,8.0319006e-7 166.73752,8.0319006e-7 164.73144,0.17518607 162.16643,1.9939805 159.1666,4.1210937 159.2092,3.7720054 158.9469,28.369937 l -0.23902,22.414069 -1.26772,2.151155 c -1.54836,2.627339 -3.51862,3.764567 -9.38793,5.418655 -7.57995,2.136177 -13.36744,4.465499 -23.31917,9.385389 -10.00829,4.947853 -11.69169,5.427956 -14.87323,4.241817 C 109.11969,71.705083 101.6304,64.633233 93.216969,56.265804 83.027572,46.132114 77.326392,40.805992 76.142547,40.314635 c -2.405382,-0.998361 -5.302275,-0.928181 -7.443945,0.180338 -2.596529,1.34395 -28.080003,27.031315 -28.998277,29.230296 -0.876471,2.098863 -0.918351,3.288666 -0.206181,5.857282 0.441101,1.59095 3.13092,4.519784 16.205164,17.645108 13.841235,13.895321 15.742023,15.983391 16.237922,17.837701 0.741763,2.77366 0.07673,5.38216 -2.489943,9.76642 -4.111413,7.0229 -8.322298,17.05586 -11.325688,26.98484 -2.139009,7.07145 -3.043557,8.59497 -5.930944,9.98938 -1.995193,0.96356 -2.739285,0.99473 -23.747527,0.99473 -21.1236595,0 -21.7422644,0.0263 -23.7823963,1.01157 -1.2617774,0.60935 -2.6047656,1.78061 -3.3776656,2.94575 L 5.5104717e-7,164.69226 v 20.3377 20.33769 L 1.2830661,207.30186 c 0.7729,1.16514 2.1158882,2.33641 3.3776656,2.94576 2.0401319,0.98525 2.6587368,1.01157 23.7823963,1.01157 21.123671,0 21.742275,0.0263 23.782408,1.01156 2.70987,1.30871 4.028743,3.40854 5.579203,8.8829 2.605373,9.19909 6.837602,19.44751 11.421539,27.65747 2.932248,5.25174 3.475991,7.32121 2.693065,10.24973 -0.472779,1.76838 -2.590146,4.08826 -16.220035,17.77141 -13.074244,13.12533 -15.764063,16.05417 -16.205164,17.64512 -0.712171,2.56861 -0.670291,3.7584 0.20618,5.85728 0.918273,2.19897 26.401748,27.88634 28.998277,29.2303 2.143437,1.10943 5.040892,1.17862 7.443945,0.17777 1.180048,-0.49147 6.917753,-5.84998 17.074422,-15.94598 8.413432,-8.36317 15.902722,-15.43388 16.642862,-15.71267 3.17149,-1.1946 4.86015,-0.71358 14.87323,4.23664 9.96765,4.92776 15.76727,7.26069 23.31917,9.38028 5.79985,1.62785 8.22475,3.03727 9.58087,5.56869 1.05976,1.97819 1.07812,2.31953 1.3138,24.4203 0.21425,20.09134 0.32495,22.57078 1.06837,23.92638 1.07871,1.96702 3.05399,3.3398 5.6719,3.94184 2.61452,0.60127 36.26545,0.5834 38.84238,-0.0206 z M 172.3319,263.53281 c -6.27894,-1.03938 -11.7126,-2.5595 -17.29535,-4.83857 -25.00009,-10.20586 -42.66698,-31.52373 -48.29722,-58.27814 -0.9285,-4.41219 -1.08017,-6.57255 -1.08017,-15.38614 0,-8.79262 0.15278,-10.97899 1.07251,-15.34776 4.50102,-21.37989 16.4809,-39.14467 34.44197,-51.07343 23.2605,-15.44835 53.86991,-17.34838 78.99378,-4.90343 22.38516,11.08837 37.69152,30.89269 43.08582,55.74714 0.8997,4.14541 1.05506,6.3666 1.0728,15.33903 0.0229,11.5904 -0.61102,16.03462 -3.58382,25.1241 -8.7811,26.84868 -32.1521,47.53218 -59.9672,53.07137 -8.83485,1.75942 -19.8363,1.97053 -28.44312,0.54583 z"
   style="fill:#000000;fill-opacity:1;fill-rule:evenodd;stroke:#000000;stroke-width:0;stroke-miterlimit:4;stroke-dasharray:none;stroke-opacity:1" /></svg>
