<?xml version="1.0" encoding="UTF-8" standalone="no"?>
<svg
   xmlns:dc="http://purl.org/dc/elements/1.1/"
   xmlns:cc="http://creativecommons.org/ns#"
   xmlns:rdf="http://www.w3.org/1999/02/22-rdf-syntax-ns#"
   xmlns:svg="http://www.w3.org/2000/svg"
   xmlns="http://www.w3.org/2000/svg"
   xmlns:sodipodi="http://sodipodi.sourceforge.net/DTD/sodipodi-0.dtd"
   xmlns:inkscape="http://www.inkscape.org/namespaces/inkscape"
   width="1024px"
   height="1024px"
   viewBox="0 0 1024 1024"
   version="1.1"
   id="svg6"
   sodipodi:docname="myanimelist.svg"
   inkscape:version="1.0 (4035a4fb49, 2020-05-01)">
  <metadata
     id="metadata12">
    <rdf:RDF>
      <cc:Work
         rdf:about="">
        <dc:format>image/svg+xml</dc:format>
        <dc:type
           rdf:resource="http://purl.org/dc/dcmitype/StillImage" />
        <dc:title></dc:title>
      </cc:Work>
    </rdf:RDF>
  </metadata>
  <defs
     id="defs10" />
  <sodipodi:namedview
     inkscape:document-rotation="0"
     pagecolor="#ffffff"
     bordercolor="#666666"
     borderopacity="1"
     objecttolerance="10"
     gridtolerance="10"
     guidetolerance="10"
     inkscape:pageopacity="0"
     inkscape:pageshadow="2"
     inkscape:window-width="1920"
     inkscape:window-height="1017"
     id="namedview8"
     showgrid="false"
     inkscape:zoom="0.83007812"
     inkscape:cx="424.05648"
     inkscape:cy="367.43529"
     inkscape:window-x="1912"
     inkscape:window-y="-8"
     inkscape:window-maximized="1"
     inkscape:current-layer="svg6" />
  <path
     d="M 512 0 A 512 512 0 0 0 0 512 A 512 512 0 0 0 512 1024 A 512 512 0 0 0 1024 512 A 512 512 0 0 0 512 0 z M 692.34961 384 L 749.15039 384.83789 L 749.15039 561.52539 L 832 562.33789 L 820.53711 609.67578 L 692.34961 609.67578 L 692.34961 384 z M 605.46289 384.36328 C 614.36042 384.31406 625.04062 384.43281 637.875 384.8125 L 652.41211 431.44922 L 578.9375 431.44922 C 563.125 431.66172 555.52578 431.45039 543.17578 437.02539 A 59.625 59.625 0 0 0 509.09961 488.27539 L 580.11328 489.15039 L 581.125 440.88672 L 642.6875 440.88672 L 642.6875 440.77539 L 642.69922 440.88672 L 642.6875 440.88672 L 643.34961 609.71289 L 580.28711 609.71289 L 580.07422 533.15039 L 505.41211 533.15039 C 507.27461 546.46289 511.01211 566.90039 516.53711 580.65039 C 520.67461 590.81289 524.48789 600.64961 532.08789 610.72461 L 486.625 640.72461 C 477.3125 623.76211 470.03789 605.07422 463.21289 585.19922 A 247.8875 247.8875 0 0 1 449.6875 527.08789 C 447.425 507.08789 447.09961 487.86211 452.53711 468.09961 A 104.2125 104.2125 0 0 1 483.5 418.33789 C 491.85 410.52539 503.50039 404.99922 512.83789 400.01172 C 522.17539 395.02422 532.65078 392.975 542.36328 390.4375 A 197.5 197.5 0 0 1 574.125 385.5625 C 580.75781 384.99219 590.63367 384.44531 605.46289 384.36328 z M 412.61328 385.59961 L 412.61328 610.21289 L 356.53711 610.13672 L 356.53711 471.08789 L 302.40039 535.19922 L 249.36328 469.65039 L 248.82422 610.58789 L 192 610.58789 L 192 385.65039 L 250.75 385.65039 L 300.48828 453.51172 L 354.23828 385.625 L 412.61328 385.59961 z "
     style="fill:#ffffff;fill-opacity:1"
     id="circle2" />
</svg>
