<?xml version="1.0" encoding="UTF-8" standalone="no"?>
<svg
   xmlns:dc="http://purl.org/dc/elements/1.1/"
   xmlns:cc="http://creativecommons.org/ns#"
   xmlns:rdf="http://www.w3.org/1999/02/22-rdf-syntax-ns#"
   xmlns:svg="http://www.w3.org/2000/svg"
   xmlns="http://www.w3.org/2000/svg"
   xmlns:sodipodi="http://sodipodi.sourceforge.net/DTD/sodipodi-0.dtd"
   xmlns:inkscape="http://www.inkscape.org/namespaces/inkscape"
   width="1000mm"
   height="15mm"
   viewBox="0 0 1000 15"
   version="1.1"
   id="svg8"
   sodipodi:docname="Strip_UP.svg"
   inkscape:version="1.0 (4035a4fb49, 2020-05-01)">
  <defs
     id="defs2" />
  <sodipodi:namedview
     id="base"
     pagecolor="#ffffff"
     bordercolor="#666666"
     borderopacity="1.0"
     inkscape:pageopacity="0.0"
     inkscape:pageshadow="2"
     inkscape:zoom="0.175"
     inkscape:cx="541.39319"
     inkscape:cy="-68.196425"
     inkscape:document-units="mm"
     inkscape:current-layer="layer1"
     inkscape:document-rotation="0"
     showgrid="false"
     inkscape:window-width="1920"
     inkscape:window-height="1017"
     inkscape:window-x="1912"
     inkscape:window-y="-8"
     inkscape:window-maximized="1" />
  <metadata
     id="metadata5">
    <rdf:RDF>
      <cc:Work
         rdf:about="">
        <dc:format>image/svg+xml</dc:format>
        <dc:type
           rdf:resource="http://purl.org/dc/dcmitype/StillImage" />
        <dc:title></dc:title>
      </cc:Work>
    </rdf:RDF>
  </metadata>
  <g
     inkscape:label="Vrstva 1"
     inkscape:groupmode="layer"
     id="layer1">
    <path
       transform="scale(0.26458333)"
       d="M 3191.0527 0.96875 L 3179.5078 9.4960938 L 3168.4062 9.4960938 L 3168.4062 9.4980469 L 3148.3516 9.4980469 L 3144.2441 12.765625 L 3137.8516 12.765625 L 3133.4395 9.4980469 L 3006.4727 9.4980469 L 3006.5742 9.4199219 L 3003.3672 7.2207031 L 2992.0371 7.2148438 L 2989.7715 9.4707031 L 2989.8262 9.4980469 L 2985.7715 9.4980469 L 2980.416 13.701172 L 2975.0254 9.4980469 L 2885.8945 9.4980469 L 2880.041 13.763672 L 2855.9785 13.763672 L 2851.0449 9.4980469 L 2846.7227 3.8125 L 2839.2422 9.4980469 L 2796.125 9.4980469 L 2790.457 4.8808594 L 2776.8203 4.8808594 L 2769.6934 9.4980469 L 2692.5605 9.4980469 L 2688.4082 11.548828 L 2686.4902 9.4980469 L 2600.2812 9.4980469 L 2598.1582 11.677734 L 2600.3477 13.925781 L 2595.8496 13.964844 L 2598.1582 11.677734 L 2595.959 9.4980469 L 2560.0371 9.4980469 L 2552.2227 4.2539062 L 2545.5508 9.4980469 L 2458.834 9.4980469 L 2452.2168 13.855469 L 2444.4688 9.4980469 L 2408.1152 9.4980469 L 2396.1758 0.97070312 L 2384.6309 9.4980469 L 2373.5293 9.4980469 L 2353.4746 9.4980469 L 2349.3672 12.765625 L 2342.9746 12.765625 L 2338.5625 9.4980469 L 2211.5957 9.4980469 L 2211.6973 9.4199219 L 2208.4902 7.2207031 L 2197.1602 7.2148438 L 2194.8945 9.4707031 L 2194.9492 9.4980469 L 2190.8945 9.4980469 L 2185.5391 13.701172 L 2180.1484 9.4980469 L 2091.0176 9.4980469 L 2085.1641 13.763672 L 2061.1016 13.763672 L 2056.168 9.4980469 L 2051.8457 3.8125 L 2044.3652 9.4980469 L 2001.248 9.4980469 L 1995.5801 4.8808594 L 1981.9434 4.8808594 L 1974.8164 9.4980469 L 1897.6836 9.4980469 L 1893.5312 11.548828 L 1891.6133 9.4980469 L 1805.4043 9.4980469 L 1803.2812 11.677734 L 1805.4707 13.925781 L 1800.9727 13.964844 L 1803.2812 11.677734 L 1801.082 9.4980469 L 1765.1602 9.4980469 L 1757.3457 4.2539062 L 1750.6738 9.4980469 L 1663.957 9.4980469 L 1657.3398 13.855469 L 1649.5918 9.4980469 L 1613.2383 9.4980469 L 1601.2988 0.97070312 L 1589.7539 9.4980469 L 1578.6523 9.4980469 L 1578.6523 9.5 L 1558.5977 9.5 L 1554.4902 12.767578 L 1548.0977 12.767578 L 1543.6855 9.5 L 1416.7188 9.5 L 1416.8203 9.421875 L 1413.6133 7.2226562 L 1402.2832 7.2167969 L 1400.0176 9.4726562 L 1400.0723 9.5 L 1396.0176 9.5 L 1390.6621 13.703125 L 1385.2715 9.5 L 1296.1406 9.5 L 1290.2871 13.765625 L 1266.2246 13.765625 L 1261.291 9.5 L 1256.9688 3.8144531 L 1249.4883 9.5 L 1206.3711 9.5 L 1200.7031 4.8828125 L 1187.0664 4.8828125 L 1179.9395 9.5 L 1102.8066 9.5 L 1098.6543 11.550781 L 1096.7363 9.5 L 1010.5273 9.5 L 1008.4043 11.679688 L 1010.5938 13.927734 L 1006.0957 13.966797 L 1008.4043 11.679688 L 1006.2051 9.5 L 970.2832 9.5 L 962.46875 4.2558594 L 955.79688 9.5 L 869.08008 9.5 L 862.46289 13.857422 L 854.71484 9.5 L 818.36133 9.5 L 806.42188 0.97265625 L 794.87695 9.5 L 774.82227 9.5 L 770.71484 12.767578 L 764.32227 12.767578 L 759.91016 9.5 L 632.94336 9.5 L 633.04492 9.421875 L 629.83789 7.2226562 L 618.50781 7.2167969 L 616.24219 9.4726562 L 616.29688 9.5 L 612.24219 9.5 L 606.88672 13.703125 L 601.49609 9.5 L 512.36523 9.5 L 506.51172 13.765625 L 482.44922 13.765625 L 477.51562 9.5 L 473.19336 3.8144531 L 465.71289 9.5 L 422.5957 9.5 L 416.92773 4.8828125 L 403.29102 4.8828125 L 396.16406 9.5 L 319.03125 9.5 L 314.87891 11.550781 L 312.96094 9.5 L 226.75195 9.5 L 224.62891 11.679688 L 226.81836 13.927734 L 222.32031 13.966797 L 224.62891 11.679688 L 222.42969 9.5 L 186.50781 9.5 L 178.69336 4.2558594 L 172.02148 9.5 L 85.304688 9.5 L 78.6875 13.857422 L 70.939453 9.5 L 34.585938 9.5 L 22.646484 0.97265625 L 11.101562 9.5 L 0 9.5 L 0 58.017578 L 783.77539 58.015625 L 783.77539 58.017578 L 1578.6523 58.015625 L 2373.5293 58.013672 L 2373.5293 58.015625 L 3168.4062 58.013672 L 3963.2832 58.011719 L 3963.2832 9.4960938 L 3943.2285 9.4960938 L 3939.1211 12.763672 L 3932.7285 12.763672 L 3928.3164 9.4960938 L 3801.3496 9.4960938 L 3801.4512 9.4179688 L 3798.2441 7.21875 L 3786.9141 7.2128906 L 3784.6484 9.46875 L 3784.7012 9.4960938 L 3780.6465 9.4960938 L 3775.291 13.699219 L 3769.9004 9.4960938 L 3680.7695 9.4960938 L 3674.916 13.761719 L 3650.8535 13.761719 L 3645.9199 9.4960938 L 3641.5977 3.8105469 L 3634.1172 9.4960938 L 3591 9.4960938 L 3585.332 4.8789062 L 3571.6953 4.8789062 L 3564.5684 9.4960938 L 3487.4355 9.4960938 L 3483.2832 11.546875 L 3481.3652 9.4960938 L 3395.1562 9.4960938 L 3393.0332 11.675781 L 3395.2227 13.923828 L 3390.7246 13.962891 L 3393.0332 11.675781 L 3390.834 9.4960938 L 3354.9121 9.4960938 L 3347.0977 4.2519531 L 3340.4258 9.4960938 L 3253.709 9.4960938 L 3247.0918 13.853516 L 3239.3438 9.4960938 L 3202.9902 9.4960938 L 3191.0527 0.96875 z "
       style="fill:#1d2d50;fill-opacity:1;fill-rule:evenodd;stroke-width:1.61422;stroke-opacity:0.969231"
       id="rect849" />
  </g>
</svg>
